<?xml version="1.0" encoding="utf-8" standalone="no"?>
<!DOCTYPE svg PUBLIC "-//W3C//DTD SVG 1.1//EN"
  "http://www.w3.org/Graphics/SVG/1.1/DTD/svg11.dtd">
<svg xmlns:xlink="http://www.w3.org/1999/xlink" width="999.523331pt" height="496.047905pt" viewBox="0 0 999.523331 496.047905" xmlns="http://www.w3.org/2000/svg" version="1.1">
 <metadata>
  <rdf:RDF xmlns:dc="http://purl.org/dc/elements/1.1/" xmlns:cc="http://creativecommons.org/ns#" xmlns:rdf="http://www.w3.org/1999/02/22-rdf-syntax-ns#">
   <cc:Work>
    <dc:type rdf:resource="http://purl.org/dc/dcmitype/StillImage"/>
    <dc:date>2026-01-12T21:28:03.450046</dc:date>
    <dc:format>image/svg+xml</dc:format>
    <dc:creator>
     <cc:Agent>
      <dc:title>Matplotlib v3.10.0, https://matplotlib.org/</dc:title>
     </cc:Agent>
    </dc:creator>
   </cc:Work>
  </rdf:RDF>
 </metadata>
 <defs>
  <style type="text/css">*{stroke-linejoin: round; stroke-linecap: butt}</style>
 </defs>
 <g id="figure_1">
  <g id="patch_1">
   <path d="M 0 496.047905 
L 999.523331 496.047905 
L 999.523331 0 
L 0 0 
z
" style="fill: #ffffff"/>
  </g>
  <g id="axes_1">
   <g id="patch_2">
    <path d="M 53.31375 410.010222 
L 900.655404 410.010222 
L 900.655404 23.837812 
L 53.31375 23.837812 
z
" style="fill: #ffffff"/>
   </g>
   <g id="PathCollection_1">
    <defs>
     <path id="m77090f6c51" d="M 0 3.535534 
C 0.937635 3.535534 1.836992 3.163008 2.5 2.5 
C 3.163008 1.836992 3.535534 0.937635 3.535534 0 
C 3.535534 -0.937635 3.163008 -1.836992 2.5 -2.5 
C 1.836992 -3.163008 0.937635 -3.535534 0 -3.535534 
C -0.937635 -3.535534 -1.836992 -3.163008 -2.5 -2.5 
C -3.163008 -1.836992 -3.535534 -0.937635 -3.535534 0 
C -3.535534 0.937635 -3.163008 1.836992 -2.5 2.5 
C -1.836992 3.163008 -0.937635 3.535534 0 3.535534 
z
" style="stroke: #ffffff; stroke-opacity: 0.8; stroke-width: 0.5"/>
    </defs>
    <g clip-path="url(#pfee7433db4)">
     <use xlink:href="#m77090f6c51" x="103.767509" y="57.560243" style="fill: #f4a5a5; fill-opacity: 0.8; stroke: #ffffff; stroke-opacity: 0.8; stroke-width: 0.5"/>
     <use xlink:href="#m77090f6c51" x="103.961858" y="51.013393" style="fill: #f4a5a5; fill-opacity: 0.8; stroke: #ffffff; stroke-opacity: 0.8; stroke-width: 0.5"/>
     <use xlink:href="#m77090f6c51" x="100.872371" y="59.53814" style="fill: #f4a5a5; fill-opacity: 0.8; stroke: #ffffff; stroke-opacity: 0.8; stroke-width: 0.5"/>
     <use xlink:href="#m77090f6c51" x="105.639708" y="69.392204" style="fill: #f4a5a5; fill-opacity: 0.8; stroke: #ffffff; stroke-opacity: 0.8; stroke-width: 0.5"/>
     <use xlink:href="#m77090f6c51" x="102.211061" y="62.699609" style="fill: #f4a5a5; fill-opacity: 0.8; stroke: #ffffff; stroke-opacity: 0.8; stroke-width: 0.5"/>
     <use xlink:href="#m77090f6c51" x="102.605785" y="62.222195" style="fill: #f4a5a5; fill-opacity: 0.8; stroke: #ffffff; stroke-opacity: 0.8; stroke-width: 0.5"/>
     <use xlink:href="#m77090f6c51" x="105.441473" y="69.000652" style="fill: #f4a5a5; fill-opacity: 0.8; stroke: #ffffff; stroke-opacity: 0.8; stroke-width: 0.5"/>
     <use xlink:href="#m77090f6c51" x="100.123845" y="41.391104" style="fill: #f4a5a5; fill-opacity: 0.8; stroke: #ffffff; stroke-opacity: 0.8; stroke-width: 0.5"/>
     <use xlink:href="#m77090f6c51" x="110.489031" y="77.278385" style="fill: #f4a5a5; fill-opacity: 0.8; stroke: #ffffff; stroke-opacity: 0.8; stroke-width: 0.5"/>
    </g>
   </g>
   <g id="PathCollection_2">
    <defs>
     <path id="m02417c6da2" d="M 0 3.535534 
C 0.937635 3.535534 1.836992 3.163008 2.5 2.5 
C 3.163008 1.836992 3.535534 0.937635 3.535534 0 
C 3.535534 -0.937635 3.163008 -1.836992 2.5 -2.5 
C 1.836992 -3.163008 0.937635 -3.535534 0 -3.535534 
C -0.937635 -3.535534 -1.836992 -3.163008 -2.5 -2.5 
C -3.163008 -1.836992 -3.535534 -0.937635 -3.535534 0 
C -3.535534 0.937635 -3.163008 1.836992 -2.5 2.5 
C -1.836992 3.163008 -0.937635 3.535534 0 3.535534 
z
" style="stroke: #ffffff; stroke-opacity: 0.8; stroke-width: 0.5"/>
    </defs>
    <g clip-path="url(#pfee7433db4)">
     <use xlink:href="#m02417c6da2" x="141.248282" y="61.43802" style="fill: #a5c8e4; fill-opacity: 0.8; stroke: #ffffff; stroke-opacity: 0.8; stroke-width: 0.5"/>
     <use xlink:href="#m02417c6da2" x="147.488198" y="57.438263" style="fill: #a5c8e4; fill-opacity: 0.8; stroke: #ffffff; stroke-opacity: 0.8; stroke-width: 0.5"/>
     <use xlink:href="#m02417c6da2" x="147.078895" y="65.844399" style="fill: #a5c8e4; fill-opacity: 0.8; stroke: #ffffff; stroke-opacity: 0.8; stroke-width: 0.5"/>
     <use xlink:href="#m02417c6da2" x="146.439246" y="60.42131" style="fill: #a5c8e4; fill-opacity: 0.8; stroke: #ffffff; stroke-opacity: 0.8; stroke-width: 0.5"/>
     <use xlink:href="#m02417c6da2" x="138.705399" y="73.260033" style="fill: #a5c8e4; fill-opacity: 0.8; stroke: #ffffff; stroke-opacity: 0.8; stroke-width: 0.5"/>
     <use xlink:href="#m02417c6da2" x="149.091753" y="92.623943" style="fill: #a5c8e4; fill-opacity: 0.8; stroke: #ffffff; stroke-opacity: 0.8; stroke-width: 0.5"/>
     <use xlink:href="#m02417c6da2" x="147.12714" y="62.289732" style="fill: #a5c8e4; fill-opacity: 0.8; stroke: #ffffff; stroke-opacity: 0.8; stroke-width: 0.5"/>
     <use xlink:href="#m02417c6da2" x="144.112692" y="65.018873" style="fill: #a5c8e4; fill-opacity: 0.8; stroke: #ffffff; stroke-opacity: 0.8; stroke-width: 0.5"/>
     <use xlink:href="#m02417c6da2" x="140.620672" y="67.228271" style="fill: #a5c8e4; fill-opacity: 0.8; stroke: #ffffff; stroke-opacity: 0.8; stroke-width: 0.5"/>
    </g>
   </g>
   <g id="PathCollection_3">
    <defs>
     <path id="m27bec71584" d="M 0 3.535534 
C 0.937635 3.535534 1.836992 3.163008 2.5 2.5 
C 3.163008 1.836992 3.535534 0.937635 3.535534 0 
C 3.535534 -0.937635 3.163008 -1.836992 2.5 -2.5 
C 1.836992 -3.163008 0.937635 -3.535534 0 -3.535534 
C -0.937635 -3.535534 -1.836992 -3.163008 -2.5 -2.5 
C -3.163008 -1.836992 -3.535534 -0.937635 -3.535534 0 
C -3.535534 0.937635 -3.163008 1.836992 -2.5 2.5 
C -1.836992 3.163008 -0.937635 3.535534 0 3.535534 
z
" style="stroke: #ffffff; stroke-opacity: 0.8; stroke-width: 0.5"/>
    </defs>
    <g clip-path="url(#pfee7433db4)">
     <use xlink:href="#m27bec71584" x="176.164791" y="50.983425" style="fill: #a5d6a5; fill-opacity: 0.8; stroke: #ffffff; stroke-opacity: 0.8; stroke-width: 0.5"/>
     <use xlink:href="#m27bec71584" x="185.046441" y="42.261368" style="fill: #a5d6a5; fill-opacity: 0.8; stroke: #ffffff; stroke-opacity: 0.8; stroke-width: 0.5"/>
     <use xlink:href="#m27bec71584" x="193.334249" y="64.741438" style="fill: #a5d6a5; fill-opacity: 0.8; stroke: #ffffff; stroke-opacity: 0.8; stroke-width: 0.5"/>
     <use xlink:href="#m27bec71584" x="173.949421" y="45.980342" style="fill: #a5d6a5; fill-opacity: 0.8; stroke: #ffffff; stroke-opacity: 0.8; stroke-width: 0.5"/>
     <use xlink:href="#m27bec71584" x="185.191368" y="49.738698" style="fill: #a5d6a5; fill-opacity: 0.8; stroke: #ffffff; stroke-opacity: 0.8; stroke-width: 0.5"/>
     <use xlink:href="#m27bec71584" x="182.470383" y="57.588656" style="fill: #a5d6a5; fill-opacity: 0.8; stroke: #ffffff; stroke-opacity: 0.8; stroke-width: 0.5"/>
     <use xlink:href="#m27bec71584" x="188.17978" y="66.8501" style="fill: #a5d6a5; fill-opacity: 0.8; stroke: #ffffff; stroke-opacity: 0.8; stroke-width: 0.5"/>
     <use xlink:href="#m27bec71584" x="184.097386" y="66.083588" style="fill: #a5d6a5; fill-opacity: 0.8; stroke: #ffffff; stroke-opacity: 0.8; stroke-width: 0.5"/>
     <use xlink:href="#m27bec71584" x="190.076773" y="49.46766" style="fill: #a5d6a5; fill-opacity: 0.8; stroke: #ffffff; stroke-opacity: 0.8; stroke-width: 0.5"/>
    </g>
   </g>
   <g id="PathCollection_4">
    <g clip-path="url(#pfee7433db4)">
     <use xlink:href="#m77090f6c51" x="239.251303" y="107.743417" style="fill: #f4a5a5; fill-opacity: 0.8; stroke: #ffffff; stroke-opacity: 0.8; stroke-width: 0.5"/>
     <use xlink:href="#m77090f6c51" x="230.611893" y="116.970649" style="fill: #f4a5a5; fill-opacity: 0.8; stroke: #ffffff; stroke-opacity: 0.8; stroke-width: 0.5"/>
     <use xlink:href="#m77090f6c51" x="234.176051" y="70.782058" style="fill: #f4a5a5; fill-opacity: 0.8; stroke: #ffffff; stroke-opacity: 0.8; stroke-width: 0.5"/>
     <use xlink:href="#m77090f6c51" x="237.344044" y="111.759861" style="fill: #f4a5a5; fill-opacity: 0.8; stroke: #ffffff; stroke-opacity: 0.8; stroke-width: 0.5"/>
     <use xlink:href="#m77090f6c51" x="236.510986" y="101.951618" style="fill: #f4a5a5; fill-opacity: 0.8; stroke: #ffffff; stroke-opacity: 0.8; stroke-width: 0.5"/>
     <use xlink:href="#m77090f6c51" x="237.640954" y="92.655652" style="fill: #f4a5a5; fill-opacity: 0.8; stroke: #ffffff; stroke-opacity: 0.8; stroke-width: 0.5"/>
     <use xlink:href="#m77090f6c51" x="243.495136" y="117.717786" style="fill: #f4a5a5; fill-opacity: 0.8; stroke: #ffffff; stroke-opacity: 0.8; stroke-width: 0.5"/>
     <use xlink:href="#m77090f6c51" x="238.562852" y="98.243092" style="fill: #f4a5a5; fill-opacity: 0.8; stroke: #ffffff; stroke-opacity: 0.8; stroke-width: 0.5"/>
     <use xlink:href="#m77090f6c51" x="239.017551" y="92.380705" style="fill: #f4a5a5; fill-opacity: 0.8; stroke: #ffffff; stroke-opacity: 0.8; stroke-width: 0.5"/>
    </g>
   </g>
   <g id="PathCollection_5">
    <g clip-path="url(#pfee7433db4)">
     <use xlink:href="#m02417c6da2" x="279.734601" y="104.603067" style="fill: #a5c8e4; fill-opacity: 0.8; stroke: #ffffff; stroke-opacity: 0.8; stroke-width: 0.5"/>
     <use xlink:href="#m02417c6da2" x="277.638742" y="78.22953" style="fill: #a5c8e4; fill-opacity: 0.8; stroke: #ffffff; stroke-opacity: 0.8; stroke-width: 0.5"/>
     <use xlink:href="#m02417c6da2" x="277.075329" y="92.647181" style="fill: #a5c8e4; fill-opacity: 0.8; stroke: #ffffff; stroke-opacity: 0.8; stroke-width: 0.5"/>
     <use xlink:href="#m02417c6da2" x="271.402978" y="109.419084" style="fill: #a5c8e4; fill-opacity: 0.8; stroke: #ffffff; stroke-opacity: 0.8; stroke-width: 0.5"/>
     <use xlink:href="#m02417c6da2" x="275.471797" y="109.620082" style="fill: #a5c8e4; fill-opacity: 0.8; stroke: #ffffff; stroke-opacity: 0.8; stroke-width: 0.5"/>
     <use xlink:href="#m02417c6da2" x="269.767753" y="108.833369" style="fill: #a5c8e4; fill-opacity: 0.8; stroke: #ffffff; stroke-opacity: 0.8; stroke-width: 0.5"/>
     <use xlink:href="#m02417c6da2" x="281.688314" y="100.43818" style="fill: #a5c8e4; fill-opacity: 0.8; stroke: #ffffff; stroke-opacity: 0.8; stroke-width: 0.5"/>
     <use xlink:href="#m02417c6da2" x="279.314357" y="86.623912" style="fill: #a5c8e4; fill-opacity: 0.8; stroke: #ffffff; stroke-opacity: 0.8; stroke-width: 0.5"/>
     <use xlink:href="#m02417c6da2" x="275.626614" y="96.625906" style="fill: #a5c8e4; fill-opacity: 0.8; stroke: #ffffff; stroke-opacity: 0.8; stroke-width: 0.5"/>
    </g>
   </g>
   <g id="PathCollection_6">
    <g clip-path="url(#pfee7433db4)">
     <use xlink:href="#m27bec71584" x="321.538628" y="84.978054" style="fill: #a5d6a5; fill-opacity: 0.8; stroke: #ffffff; stroke-opacity: 0.8; stroke-width: 0.5"/>
     <use xlink:href="#m27bec71584" x="312.861814" y="132.704115" style="fill: #a5d6a5; fill-opacity: 0.8; stroke: #ffffff; stroke-opacity: 0.8; stroke-width: 0.5"/>
     <use xlink:href="#m27bec71584" x="323.049144" y="89.031967" style="fill: #a5d6a5; fill-opacity: 0.8; stroke: #ffffff; stroke-opacity: 0.8; stroke-width: 0.5"/>
     <use xlink:href="#m27bec71584" x="310.298426" y="112.647375" style="fill: #a5d6a5; fill-opacity: 0.8; stroke: #ffffff; stroke-opacity: 0.8; stroke-width: 0.5"/>
     <use xlink:href="#m27bec71584" x="315.609335" y="92.762865" style="fill: #a5d6a5; fill-opacity: 0.8; stroke: #ffffff; stroke-opacity: 0.8; stroke-width: 0.5"/>
     <use xlink:href="#m27bec71584" x="315.497673" y="128.450722" style="fill: #a5d6a5; fill-opacity: 0.8; stroke: #ffffff; stroke-opacity: 0.8; stroke-width: 0.5"/>
     <use xlink:href="#m27bec71584" x="317.956046" y="140.489488" style="fill: #a5d6a5; fill-opacity: 0.8; stroke: #ffffff; stroke-opacity: 0.8; stroke-width: 0.5"/>
     <use xlink:href="#m27bec71584" x="312.728442" y="392.456931" style="fill: #a5d6a5; fill-opacity: 0.8; stroke: #ffffff; stroke-opacity: 0.8; stroke-width: 0.5"/>
     <use xlink:href="#m27bec71584" x="321.794873" y="107.013252" style="fill: #a5d6a5; fill-opacity: 0.8; stroke: #ffffff; stroke-opacity: 0.8; stroke-width: 0.5"/>
    </g>
   </g>
   <g id="PathCollection_7">
    <g clip-path="url(#pfee7433db4)">
     <use xlink:href="#m77090f6c51" x="362.482793" y="105.33351" style="fill: #f4a5a5; fill-opacity: 0.8; stroke: #ffffff; stroke-opacity: 0.8; stroke-width: 0.5"/>
     <use xlink:href="#m77090f6c51" x="375.074924" y="81.618736" style="fill: #f4a5a5; fill-opacity: 0.8; stroke: #ffffff; stroke-opacity: 0.8; stroke-width: 0.5"/>
     <use xlink:href="#m77090f6c51" x="374.551067" y="114.342723" style="fill: #f4a5a5; fill-opacity: 0.8; stroke: #ffffff; stroke-opacity: 0.8; stroke-width: 0.5"/>
    </g>
   </g>
   <g id="PathCollection_8">
    <g clip-path="url(#pfee7433db4)">
     <use xlink:href="#m02417c6da2" x="409.261276" y="96.525527" style="fill: #a5c8e4; fill-opacity: 0.8; stroke: #ffffff; stroke-opacity: 0.8; stroke-width: 0.5"/>
     <use xlink:href="#m02417c6da2" x="406.397242" y="153.747664" style="fill: #a5c8e4; fill-opacity: 0.8; stroke: #ffffff; stroke-opacity: 0.8; stroke-width: 0.5"/>
     <use xlink:href="#m02417c6da2" x="411.649767" y="128.375258" style="fill: #a5c8e4; fill-opacity: 0.8; stroke: #ffffff; stroke-opacity: 0.8; stroke-width: 0.5"/>
    </g>
   </g>
   <g id="PathCollection_9">
    <g clip-path="url(#pfee7433db4)">
     <use xlink:href="#m27bec71584" x="448.997606" y="67.469461" style="fill: #a5d6a5; fill-opacity: 0.8; stroke: #ffffff; stroke-opacity: 0.8; stroke-width: 0.5"/>
     <use xlink:href="#m27bec71584" x="449.70972" y="136.953992" style="fill: #a5d6a5; fill-opacity: 0.8; stroke: #ffffff; stroke-opacity: 0.8; stroke-width: 0.5"/>
     <use xlink:href="#m27bec71584" x="451.513768" y="139.587579" style="fill: #a5d6a5; fill-opacity: 0.8; stroke: #ffffff; stroke-opacity: 0.8; stroke-width: 0.5"/>
    </g>
   </g>
   <g id="PathCollection_10">
    <defs>
     <path id="m7620392139" d="M 0 3.535534 
C 0.937635 3.535534 1.836992 3.163008 2.5 2.5 
C 3.163008 1.836992 3.535534 0.937635 3.535534 0 
C 3.535534 -0.937635 3.163008 -1.836992 2.5 -2.5 
C 1.836992 -3.163008 0.937635 -3.535534 0 -3.535534 
C -0.937635 -3.535534 -1.836992 -3.163008 -2.5 -2.5 
C -3.163008 -1.836992 -3.535534 -0.937635 -3.535534 0 
C -3.535534 0.937635 -3.163008 1.836992 -2.5 2.5 
C -1.836992 3.163008 -0.937635 3.535534 0 3.535534 
z
" style="stroke: #ffffff; stroke-opacity: 0.8; stroke-width: 0.5"/>
    </defs>
    <g clip-path="url(#pfee7433db4)">
     <use xlink:href="#m7620392139" x="492.387865" y="118.295492" style="fill: #e8d4f0; fill-opacity: 0.8; stroke: #ffffff; stroke-opacity: 0.8; stroke-width: 0.5"/>
     <use xlink:href="#m7620392139" x="496.738977" y="140.251357" style="fill: #e8d4f0; fill-opacity: 0.8; stroke: #ffffff; stroke-opacity: 0.8; stroke-width: 0.5"/>
     <use xlink:href="#m7620392139" x="505.10511" y="189.832962" style="fill: #e8d4f0; fill-opacity: 0.8; stroke: #ffffff; stroke-opacity: 0.8; stroke-width: 0.5"/>
    </g>
   </g>
   <g id="PathCollection_11">
    <defs>
     <path id="m430d8cd6a0" d="M 0 3.535534 
C 0.937635 3.535534 1.836992 3.163008 2.5 2.5 
C 3.163008 1.836992 3.535534 0.937635 3.535534 0 
C 3.535534 -0.937635 3.163008 -1.836992 2.5 -2.5 
C 1.836992 -3.163008 0.937635 -3.535534 0 -3.535534 
C -0.937635 -3.535534 -1.836992 -3.163008 -2.5 -2.5 
C -3.163008 -1.836992 -3.535534 -0.937635 -3.535534 0 
C -3.535534 0.937635 -3.163008 1.836992 -2.5 2.5 
C -1.836992 3.163008 -0.937635 3.535534 0 3.535534 
z
" style="stroke: #ffffff; stroke-opacity: 0.8; stroke-width: 0.5"/>
    </defs>
    <g clip-path="url(#pfee7433db4)">
     <use xlink:href="#m430d8cd6a0" x="541.420324" y="135.196409" style="fill: #c4a8d0; fill-opacity: 0.8; stroke: #ffffff; stroke-opacity: 0.8; stroke-width: 0.5"/>
     <use xlink:href="#m430d8cd6a0" x="544.185062" y="190.782832" style="fill: #c4a8d0; fill-opacity: 0.8; stroke: #ffffff; stroke-opacity: 0.8; stroke-width: 0.5"/>
     <use xlink:href="#m430d8cd6a0" x="550.974548" y="161.413979" style="fill: #c4a8d0; fill-opacity: 0.8; stroke: #ffffff; stroke-opacity: 0.8; stroke-width: 0.5"/>
    </g>
   </g>
   <g id="PathCollection_12">
    <defs>
     <path id="m411c0a8f9d" d="M 0 3.535534 
C 0.937635 3.535534 1.836992 3.163008 2.5 2.5 
C 3.163008 1.836992 3.535534 0.937635 3.535534 0 
C 3.535534 -0.937635 3.163008 -1.836992 2.5 -2.5 
C 1.836992 -3.163008 0.937635 -3.535534 0 -3.535534 
C -0.937635 -3.535534 -1.836992 -3.163008 -2.5 -2.5 
C -3.163008 -1.836992 -3.535534 -0.937635 -3.535534 0 
C -3.535534 0.937635 -3.163008 1.836992 -2.5 2.5 
C -1.836992 3.163008 -0.937635 3.535534 0 3.535534 
z
" style="stroke: #ffffff; stroke-opacity: 0.8; stroke-width: 0.5"/>
    </defs>
    <g clip-path="url(#pfee7433db4)">
     <use xlink:href="#m411c0a8f9d" x="581.22175" y="96.703293" style="fill: #ffd699; fill-opacity: 0.8; stroke: #ffffff; stroke-opacity: 0.8; stroke-width: 0.5"/>
     <use xlink:href="#m411c0a8f9d" x="578.490037" y="100.648045" style="fill: #ffd699; fill-opacity: 0.8; stroke: #ffffff; stroke-opacity: 0.8; stroke-width: 0.5"/>
     <use xlink:href="#m411c0a8f9d" x="586.716881" y="96.174404" style="fill: #ffd699; fill-opacity: 0.8; stroke: #ffffff; stroke-opacity: 0.8; stroke-width: 0.5"/>
    </g>
   </g>
   <g id="PathCollection_13">
    <defs>
     <path id="m254d71815b" d="M 0 3.535534 
C 0.937635 3.535534 1.836992 3.163008 2.5 2.5 
C 3.163008 1.836992 3.535534 0.937635 3.535534 0 
C 3.535534 -0.937635 3.163008 -1.836992 2.5 -2.5 
C 1.836992 -3.163008 0.937635 -3.535534 0 -3.535534 
C -0.937635 -3.535534 -1.836992 -3.163008 -2.5 -2.5 
C -3.163008 -1.836992 -3.535534 -0.937635 -3.535534 0 
C -3.535534 0.937635 -3.163008 1.836992 -2.5 2.5 
C -1.836992 3.163008 -0.937635 3.535534 0 3.535534 
z
" style="stroke: #ffffff; stroke-opacity: 0.8; stroke-width: 0.5"/>
    </defs>
    <g clip-path="url(#pfee7433db4)">
     <use xlink:href="#m254d71815b" x="672.891505" y="118.295492" style="fill: #c9c9c9; fill-opacity: 0.8; stroke: #ffffff; stroke-opacity: 0.8; stroke-width: 0.5"/>
     <use xlink:href="#m254d71815b" x="679.875826" y="140.251357" style="fill: #c9c9c9; fill-opacity: 0.8; stroke: #ffffff; stroke-opacity: 0.8; stroke-width: 0.5"/>
     <use xlink:href="#m254d71815b" x="676.452909" y="105.33351" style="fill: #c9c9c9; fill-opacity: 0.8; stroke: #ffffff; stroke-opacity: 0.8; stroke-width: 0.5"/>
     <use xlink:href="#m254d71815b" x="678.932512" y="132.236649" style="fill: #c9c9c9; fill-opacity: 0.8; stroke: #ffffff; stroke-opacity: 0.8; stroke-width: 0.5"/>
     <use xlink:href="#m254d71815b" x="675.870646" y="141.091724" style="fill: #c9c9c9; fill-opacity: 0.8; stroke: #ffffff; stroke-opacity: 0.8; stroke-width: 0.5"/>
     <use xlink:href="#m254d71815b" x="682.130121" y="81.618736" style="fill: #c9c9c9; fill-opacity: 0.8; stroke: #ffffff; stroke-opacity: 0.8; stroke-width: 0.5"/>
     <use xlink:href="#m254d71815b" x="686.737307" y="101.862578" style="fill: #c9c9c9; fill-opacity: 0.8; stroke: #ffffff; stroke-opacity: 0.8; stroke-width: 0.5"/>
     <use xlink:href="#m254d71815b" x="678.902809" y="148.86721" style="fill: #c9c9c9; fill-opacity: 0.8; stroke: #ffffff; stroke-opacity: 0.8; stroke-width: 0.5"/>
     <use xlink:href="#m254d71815b" x="678.873875" y="189.832962" style="fill: #c9c9c9; fill-opacity: 0.8; stroke: #ffffff; stroke-opacity: 0.8; stroke-width: 0.5"/>
     <use xlink:href="#m254d71815b" x="669.428581" y="147.911229" style="fill: #c9c9c9; fill-opacity: 0.8; stroke: #ffffff; stroke-opacity: 0.8; stroke-width: 0.5"/>
     <use xlink:href="#m254d71815b" x="677.698124" y="96.525527" style="fill: #c9c9c9; fill-opacity: 0.8; stroke: #ffffff; stroke-opacity: 0.8; stroke-width: 0.5"/>
     <use xlink:href="#m254d71815b" x="680.672662" y="157.928969" style="fill: #c9c9c9; fill-opacity: 0.8; stroke: #ffffff; stroke-opacity: 0.8; stroke-width: 0.5"/>
     <use xlink:href="#m254d71815b" x="676.186327" y="132.456851" style="fill: #c9c9c9; fill-opacity: 0.8; stroke: #ffffff; stroke-opacity: 0.8; stroke-width: 0.5"/>
     <use xlink:href="#m254d71815b" x="671.668397" y="153.747664" style="fill: #c9c9c9; fill-opacity: 0.8; stroke: #ffffff; stroke-opacity: 0.8; stroke-width: 0.5"/>
     <use xlink:href="#m254d71815b" x="683.729281" y="184.886454" style="fill: #c9c9c9; fill-opacity: 0.8; stroke: #ffffff; stroke-opacity: 0.8; stroke-width: 0.5"/>
     <use xlink:href="#m254d71815b" x="682.700205" y="179.420423" style="fill: #c9c9c9; fill-opacity: 0.8; stroke: #ffffff; stroke-opacity: 0.8; stroke-width: 0.5"/>
     <use xlink:href="#m254d71815b" x="676.94773" y="186.040046" style="fill: #c9c9c9; fill-opacity: 0.8; stroke: #ffffff; stroke-opacity: 0.8; stroke-width: 0.5"/>
     <use xlink:href="#m254d71815b" x="672.997111" y="67.469461" style="fill: #c9c9c9; fill-opacity: 0.8; stroke: #ffffff; stroke-opacity: 0.8; stroke-width: 0.5"/>
     <use xlink:href="#m254d71815b" x="676.516453" y="392.456931" style="fill: #c9c9c9; fill-opacity: 0.8; stroke: #ffffff; stroke-opacity: 0.8; stroke-width: 0.5"/>
     <use xlink:href="#m254d71815b" x="673.4043" y="392.456931" style="fill: #c9c9c9; fill-opacity: 0.8; stroke: #ffffff; stroke-opacity: 0.8; stroke-width: 0.5"/>
     <use xlink:href="#m254d71815b" x="681.231341" y="136.953992" style="fill: #c9c9c9; fill-opacity: 0.8; stroke: #ffffff; stroke-opacity: 0.8; stroke-width: 0.5"/>
     <use xlink:href="#m254d71815b" x="683.882394" y="135.196409" style="fill: #c9c9c9; fill-opacity: 0.8; stroke: #ffffff; stroke-opacity: 0.8; stroke-width: 0.5"/>
     <use xlink:href="#m254d71815b" x="674.41765" y="190.782832" style="fill: #c9c9c9; fill-opacity: 0.8; stroke: #ffffff; stroke-opacity: 0.8; stroke-width: 0.5"/>
     <use xlink:href="#m254d71815b" x="678.164451" y="114.342723" style="fill: #c9c9c9; fill-opacity: 0.8; stroke: #ffffff; stroke-opacity: 0.8; stroke-width: 0.5"/>
     <use xlink:href="#m254d71815b" x="674.921797" y="119.34857" style="fill: #c9c9c9; fill-opacity: 0.8; stroke: #ffffff; stroke-opacity: 0.8; stroke-width: 0.5"/>
     <use xlink:href="#m254d71815b" x="674.321367" y="113.654849" style="fill: #c9c9c9; fill-opacity: 0.8; stroke: #ffffff; stroke-opacity: 0.8; stroke-width: 0.5"/>
     <use xlink:href="#m254d71815b" x="676.140694" y="161.413979" style="fill: #c9c9c9; fill-opacity: 0.8; stroke: #ffffff; stroke-opacity: 0.8; stroke-width: 0.5"/>
     <use xlink:href="#m254d71815b" x="678.073581" y="134.915712" style="fill: #c9c9c9; fill-opacity: 0.8; stroke: #ffffff; stroke-opacity: 0.8; stroke-width: 0.5"/>
     <use xlink:href="#m254d71815b" x="683.332856" y="128.375258" style="fill: #c9c9c9; fill-opacity: 0.8; stroke: #ffffff; stroke-opacity: 0.8; stroke-width: 0.5"/>
     <use xlink:href="#m254d71815b" x="681.237844" y="140.231365" style="fill: #c9c9c9; fill-opacity: 0.8; stroke: #ffffff; stroke-opacity: 0.8; stroke-width: 0.5"/>
     <use xlink:href="#m254d71815b" x="674.375487" y="392.456931" style="fill: #c9c9c9; fill-opacity: 0.8; stroke: #ffffff; stroke-opacity: 0.8; stroke-width: 0.5"/>
     <use xlink:href="#m254d71815b" x="672.714056" y="392.456931" style="fill: #c9c9c9; fill-opacity: 0.8; stroke: #ffffff; stroke-opacity: 0.8; stroke-width: 0.5"/>
     <use xlink:href="#m254d71815b" x="679.539352" y="139.587579" style="fill: #c9c9c9; fill-opacity: 0.8; stroke: #ffffff; stroke-opacity: 0.8; stroke-width: 0.5"/>
     <use xlink:href="#m254d71815b" x="677.030389" y="96.703293" style="fill: #c9c9c9; fill-opacity: 0.8; stroke: #ffffff; stroke-opacity: 0.8; stroke-width: 0.5"/>
     <use xlink:href="#m254d71815b" x="674.186567" y="100.648045" style="fill: #c9c9c9; fill-opacity: 0.8; stroke: #ffffff; stroke-opacity: 0.8; stroke-width: 0.5"/>
     <use xlink:href="#m254d71815b" x="678.299728" y="96.174404" style="fill: #c9c9c9; fill-opacity: 0.8; stroke: #ffffff; stroke-opacity: 0.8; stroke-width: 0.5"/>
    </g>
   </g>
   <g id="PathCollection_14">
    <defs>
     <path id="m3543a05c63" d="M 0 3.535534 
C 0.937635 3.535534 1.836992 3.163008 2.5 2.5 
C 3.163008 1.836992 3.535534 0.937635 3.535534 0 
C 3.535534 -0.937635 3.163008 -1.836992 2.5 -2.5 
C 1.836992 -3.163008 0.937635 -3.535534 0 -3.535534 
C -0.937635 -3.535534 -1.836992 -3.163008 -2.5 -2.5 
C -3.163008 -1.836992 -3.535534 -0.937635 -3.535534 0 
C -3.535534 0.937635 -3.163008 1.836992 -2.5 2.5 
C -1.836992 3.163008 -0.937635 3.535534 0 3.535534 
z
" style="stroke: #ffffff; stroke-opacity: 0.8; stroke-width: 0.5"/>
    </defs>
    <g clip-path="url(#pfee7433db4)">
     <use xlink:href="#m3543a05c63" x="769.295811" y="201.874024" style="fill: #fdc8b3; fill-opacity: 0.8; stroke: #ffffff; stroke-opacity: 0.8; stroke-width: 0.5"/>
    </g>
   </g>
   <g id="PathCollection_15">
    <defs>
     <path id="m22ff72ff0e" d="M 0 3.535534 
C 0.937635 3.535534 1.836992 3.163008 2.5 2.5 
C 3.163008 1.836992 3.535534 0.937635 3.535534 0 
C 3.535534 -0.937635 3.163008 -1.836992 2.5 -2.5 
C 1.836992 -3.163008 0.937635 -3.535534 0 -3.535534 
C -0.937635 -3.535534 -1.836992 -3.163008 -2.5 -2.5 
C -3.163008 -1.836992 -3.535534 -0.937635 -3.535534 0 
C -3.535534 0.937635 -3.163008 1.836992 -2.5 2.5 
C -1.836992 3.163008 -0.937635 3.535534 0 3.535534 
z
" style="stroke: #ffffff; stroke-opacity: 0.8; stroke-width: 0.5"/>
    </defs>
    <g clip-path="url(#pfee7433db4)">
     <use xlink:href="#m22ff72ff0e" x="808.220595" y="205.961983" style="fill: #b3e0d6; fill-opacity: 0.8; stroke: #ffffff; stroke-opacity: 0.8; stroke-width: 0.5"/>
    </g>
   </g>
   <g id="PathCollection_16">
    <defs>
     <path id="ma5eeb011fe" d="M 0 3.535534 
C 0.937635 3.535534 1.836992 3.163008 2.5 2.5 
C 3.163008 1.836992 3.535534 0.937635 3.535534 0 
C 3.535534 -0.937635 3.163008 -1.836992 2.5 -2.5 
C 1.836992 -3.163008 0.937635 -3.535534 0 -3.535534 
C -0.937635 -3.535534 -1.836992 -3.163008 -2.5 -2.5 
C -3.163008 -1.836992 -3.535534 -0.937635 -3.535534 0 
C -3.535534 0.937635 -3.163008 1.836992 -2.5 2.5 
C -1.836992 3.163008 -0.937635 3.535534 0 3.535534 
z
" style="stroke: #ffffff; stroke-opacity: 0.8; stroke-width: 0.5"/>
    </defs>
    <g clip-path="url(#pfee7433db4)">
     <use xlink:href="#ma5eeb011fe" x="855.649993" y="209.264683" style="fill: #d9d9d9; fill-opacity: 0.8; stroke: #ffffff; stroke-opacity: 0.8; stroke-width: 0.5"/>
    </g>
   </g>
   <g id="matplotlib.axis_1">
    <g id="xtick_1">
     <g id="line2d_1">
      <defs>
       <path id="m1b69fb9b1c" d="M 0 0 
L 0 3.5 
" style="stroke: #000000; stroke-width: 0.8"/>
      </defs>
      <g>
       <use xlink:href="#m1b69fb9b1c" x="142.648381" y="410.010222" style="stroke: #000000; stroke-width: 0.8"/>
      </g>
     </g>
     <g id="text_1">
      <!-- L1: within sample -->
      <g transform="translate(69.085998 473.908184) rotate(-35) scale(0.1 -0.1)">
       <defs>
        <path id="DejaVuSans-4c" d="M 628 4666 
L 1259 4666 
L 1259 531 
L 3531 531 
L 3531 0 
L 628 0 
L 628 4666 
z
" transform="scale(0.015625)"/>
        <path id="DejaVuSans-31" d="M 794 531 
L 1825 531 
L 1825 4091 
L 703 3866 
L 703 4441 
L 1819 4666 
L 2450 4666 
L 2450 531 
L 3481 531 
L 3481 0 
L 794 0 
L 794 531 
z
" transform="scale(0.015625)"/>
        <path id="DejaVuSans-3a" d="M 750 794 
L 1409 794 
L 1409 0 
L 750 0 
L 750 794 
z
M 750 3309 
L 1409 3309 
L 1409 2516 
L 750 2516 
L 750 3309 
z
" transform="scale(0.015625)"/>
        <path id="DejaVuSans-20" transform="scale(0.015625)"/>
        <path id="DejaVuSans-77" d="M 269 3500 
L 844 3500 
L 1563 769 
L 2278 3500 
L 2956 3500 
L 3675 769 
L 4391 3500 
L 4966 3500 
L 4050 0 
L 3372 0 
L 2619 2869 
L 1863 0 
L 1184 0 
L 269 3500 
z
" transform="scale(0.015625)"/>
        <path id="DejaVuSans-69" d="M 603 3500 
L 1178 3500 
L 1178 0 
L 603 0 
L 603 3500 
z
M 603 4863 
L 1178 4863 
L 1178 4134 
L 603 4134 
L 603 4863 
z
" transform="scale(0.015625)"/>
        <path id="DejaVuSans-74" d="M 1172 4494 
L 1172 3500 
L 2356 3500 
L 2356 3053 
L 1172 3053 
L 1172 1153 
Q 1172 725 1289 603 
Q 1406 481 1766 481 
L 2356 481 
L 2356 0 
L 1766 0 
Q 1100 0 847 248 
Q 594 497 594 1153 
L 594 3053 
L 172 3053 
L 172 3500 
L 594 3500 
L 594 4494 
L 1172 4494 
z
" transform="scale(0.015625)"/>
        <path id="DejaVuSans-68" d="M 3513 2113 
L 3513 0 
L 2938 0 
L 2938 2094 
Q 2938 2591 2744 2837 
Q 2550 3084 2163 3084 
Q 1697 3084 1428 2787 
Q 1159 2491 1159 1978 
L 1159 0 
L 581 0 
L 581 4863 
L 1159 4863 
L 1159 2956 
Q 1366 3272 1645 3428 
Q 1925 3584 2291 3584 
Q 2894 3584 3203 3211 
Q 3513 2838 3513 2113 
z
" transform="scale(0.015625)"/>
        <path id="DejaVuSans-6e" d="M 3513 2113 
L 3513 0 
L 2938 0 
L 2938 2094 
Q 2938 2591 2744 2837 
Q 2550 3084 2163 3084 
Q 1697 3084 1428 2787 
Q 1159 2491 1159 1978 
L 1159 0 
L 581 0 
L 581 3500 
L 1159 3500 
L 1159 2956 
Q 1366 3272 1645 3428 
Q 1925 3584 2291 3584 
Q 2894 3584 3203 3211 
Q 3513 2838 3513 2113 
z
" transform="scale(0.015625)"/>
        <path id="DejaVuSans-73" d="M 2834 3397 
L 2834 2853 
Q 2591 2978 2328 3040 
Q 2066 3103 1784 3103 
Q 1356 3103 1142 2972 
Q 928 2841 928 2578 
Q 928 2378 1081 2264 
Q 1234 2150 1697 2047 
L 1894 2003 
Q 2506 1872 2764 1633 
Q 3022 1394 3022 966 
Q 3022 478 2636 193 
Q 2250 -91 1575 -91 
Q 1294 -91 989 -36 
Q 684 19 347 128 
L 347 722 
Q 666 556 975 473 
Q 1284 391 1588 391 
Q 1994 391 2212 530 
Q 2431 669 2431 922 
Q 2431 1156 2273 1281 
Q 2116 1406 1581 1522 
L 1381 1569 
Q 847 1681 609 1914 
Q 372 2147 372 2553 
Q 372 3047 722 3315 
Q 1072 3584 1716 3584 
Q 2034 3584 2315 3537 
Q 2597 3491 2834 3397 
z
" transform="scale(0.015625)"/>
        <path id="DejaVuSans-61" d="M 2194 1759 
Q 1497 1759 1228 1600 
Q 959 1441 959 1056 
Q 959 750 1161 570 
Q 1363 391 1709 391 
Q 2188 391 2477 730 
Q 2766 1069 2766 1631 
L 2766 1759 
L 2194 1759 
z
M 3341 1997 
L 3341 0 
L 2766 0 
L 2766 531 
Q 2569 213 2275 61 
Q 1981 -91 1556 -91 
Q 1019 -91 701 211 
Q 384 513 384 1019 
Q 384 1609 779 1909 
Q 1175 2209 1959 2209 
L 2766 2209 
L 2766 2266 
Q 2766 2663 2505 2880 
Q 2244 3097 1772 3097 
Q 1472 3097 1187 3025 
Q 903 2953 641 2809 
L 641 3341 
Q 956 3463 1253 3523 
Q 1550 3584 1831 3584 
Q 2591 3584 2966 3190 
Q 3341 2797 3341 1997 
z
" transform="scale(0.015625)"/>
        <path id="DejaVuSans-6d" d="M 3328 2828 
Q 3544 3216 3844 3400 
Q 4144 3584 4550 3584 
Q 5097 3584 5394 3201 
Q 5691 2819 5691 2113 
L 5691 0 
L 5113 0 
L 5113 2094 
Q 5113 2597 4934 2840 
Q 4756 3084 4391 3084 
Q 3944 3084 3684 2787 
Q 3425 2491 3425 1978 
L 3425 0 
L 2847 0 
L 2847 2094 
Q 2847 2600 2669 2842 
Q 2491 3084 2119 3084 
Q 1678 3084 1418 2786 
Q 1159 2488 1159 1978 
L 1159 0 
L 581 0 
L 581 3500 
L 1159 3500 
L 1159 2956 
Q 1356 3278 1631 3431 
Q 1906 3584 2284 3584 
Q 2666 3584 2933 3390 
Q 3200 3197 3328 2828 
z
" transform="scale(0.015625)"/>
        <path id="DejaVuSans-70" d="M 1159 525 
L 1159 -1331 
L 581 -1331 
L 581 3500 
L 1159 3500 
L 1159 2969 
Q 1341 3281 1617 3432 
Q 1894 3584 2278 3584 
Q 2916 3584 3314 3078 
Q 3713 2572 3713 1747 
Q 3713 922 3314 415 
Q 2916 -91 2278 -91 
Q 1894 -91 1617 61 
Q 1341 213 1159 525 
z
M 3116 1747 
Q 3116 2381 2855 2742 
Q 2594 3103 2138 3103 
Q 1681 3103 1420 2742 
Q 1159 2381 1159 1747 
Q 1159 1113 1420 752 
Q 1681 391 2138 391 
Q 2594 391 2855 752 
Q 3116 1113 3116 1747 
z
" transform="scale(0.015625)"/>
        <path id="DejaVuSans-6c" d="M 603 4863 
L 1178 4863 
L 1178 0 
L 603 0 
L 603 4863 
z
" transform="scale(0.015625)"/>
        <path id="DejaVuSans-65" d="M 3597 1894 
L 3597 1613 
L 953 1613 
Q 991 1019 1311 708 
Q 1631 397 2203 397 
Q 2534 397 2845 478 
Q 3156 559 3463 722 
L 3463 178 
Q 3153 47 2828 -22 
Q 2503 -91 2169 -91 
Q 1331 -91 842 396 
Q 353 884 353 1716 
Q 353 2575 817 3079 
Q 1281 3584 2069 3584 
Q 2775 3584 3186 3129 
Q 3597 2675 3597 1894 
z
M 3022 2063 
Q 3016 2534 2758 2815 
Q 2500 3097 2075 3097 
Q 1594 3097 1305 2825 
Q 1016 2553 972 2059 
L 3022 2063 
z
" transform="scale(0.015625)"/>
       </defs>
       <use xlink:href="#DejaVuSans-4c"/>
       <use xlink:href="#DejaVuSans-31" transform="translate(55.712891 0)"/>
       <use xlink:href="#DejaVuSans-3a" transform="translate(119.335938 0)"/>
       <use xlink:href="#DejaVuSans-20" transform="translate(153.027344 0)"/>
       <use xlink:href="#DejaVuSans-77" transform="translate(184.814453 0)"/>
       <use xlink:href="#DejaVuSans-69" transform="translate(266.601562 0)"/>
       <use xlink:href="#DejaVuSans-74" transform="translate(294.384766 0)"/>
       <use xlink:href="#DejaVuSans-68" transform="translate(333.59375 0)"/>
       <use xlink:href="#DejaVuSans-69" transform="translate(396.972656 0)"/>
       <use xlink:href="#DejaVuSans-6e" transform="translate(424.755859 0)"/>
       <use xlink:href="#DejaVuSans-20" transform="translate(488.134766 0)"/>
       <use xlink:href="#DejaVuSans-73" transform="translate(519.921875 0)"/>
       <use xlink:href="#DejaVuSans-61" transform="translate(572.021484 0)"/>
       <use xlink:href="#DejaVuSans-6d" transform="translate(633.300781 0)"/>
       <use xlink:href="#DejaVuSans-70" transform="translate(730.712891 0)"/>
       <use xlink:href="#DejaVuSans-6c" transform="translate(794.189453 0)"/>
       <use xlink:href="#DejaVuSans-65" transform="translate(821.972656 0)"/>
      </g>
     </g>
    </g>
    <g id="xtick_2">
     <g id="line2d_2">
      <g>
       <use xlink:href="#m1b69fb9b1c" x="276.38286" y="410.010222" style="stroke: #000000; stroke-width: 0.8"/>
      </g>
     </g>
     <g id="text_2">
      <!-- L2: within superset -->
      <g transform="translate(190.594495 477.971614) rotate(-35) scale(0.1 -0.1)">
       <defs>
        <path id="DejaVuSans-32" d="M 1228 531 
L 3431 531 
L 3431 0 
L 469 0 
L 469 531 
Q 828 903 1448 1529 
Q 2069 2156 2228 2338 
Q 2531 2678 2651 2914 
Q 2772 3150 2772 3378 
Q 2772 3750 2511 3984 
Q 2250 4219 1831 4219 
Q 1534 4219 1204 4116 
Q 875 4013 500 3803 
L 500 4441 
Q 881 4594 1212 4672 
Q 1544 4750 1819 4750 
Q 2544 4750 2975 4387 
Q 3406 4025 3406 3419 
Q 3406 3131 3298 2873 
Q 3191 2616 2906 2266 
Q 2828 2175 2409 1742 
Q 1991 1309 1228 531 
z
" transform="scale(0.015625)"/>
        <path id="DejaVuSans-75" d="M 544 1381 
L 544 3500 
L 1119 3500 
L 1119 1403 
Q 1119 906 1312 657 
Q 1506 409 1894 409 
Q 2359 409 2629 706 
Q 2900 1003 2900 1516 
L 2900 3500 
L 3475 3500 
L 3475 0 
L 2900 0 
L 2900 538 
Q 2691 219 2414 64 
Q 2138 -91 1772 -91 
Q 1169 -91 856 284 
Q 544 659 544 1381 
z
M 1991 3584 
L 1991 3584 
z
" transform="scale(0.015625)"/>
        <path id="DejaVuSans-72" d="M 2631 2963 
Q 2534 3019 2420 3045 
Q 2306 3072 2169 3072 
Q 1681 3072 1420 2755 
Q 1159 2438 1159 1844 
L 1159 0 
L 581 0 
L 581 3500 
L 1159 3500 
L 1159 2956 
Q 1341 3275 1631 3429 
Q 1922 3584 2338 3584 
Q 2397 3584 2469 3576 
Q 2541 3569 2628 3553 
L 2631 2963 
z
" transform="scale(0.015625)"/>
       </defs>
       <use xlink:href="#DejaVuSans-4c"/>
       <use xlink:href="#DejaVuSans-32" transform="translate(55.712891 0)"/>
       <use xlink:href="#DejaVuSans-3a" transform="translate(119.335938 0)"/>
       <use xlink:href="#DejaVuSans-20" transform="translate(153.027344 0)"/>
       <use xlink:href="#DejaVuSans-77" transform="translate(184.814453 0)"/>
       <use xlink:href="#DejaVuSans-69" transform="translate(266.601562 0)"/>
       <use xlink:href="#DejaVuSans-74" transform="translate(294.384766 0)"/>
       <use xlink:href="#DejaVuSans-68" transform="translate(333.59375 0)"/>
       <use xlink:href="#DejaVuSans-69" transform="translate(396.972656 0)"/>
       <use xlink:href="#DejaVuSans-6e" transform="translate(424.755859 0)"/>
       <use xlink:href="#DejaVuSans-20" transform="translate(488.134766 0)"/>
       <use xlink:href="#DejaVuSans-73" transform="translate(519.921875 0)"/>
       <use xlink:href="#DejaVuSans-75" transform="translate(572.021484 0)"/>
       <use xlink:href="#DejaVuSans-70" transform="translate(635.400391 0)"/>
       <use xlink:href="#DejaVuSans-65" transform="translate(698.876953 0)"/>
       <use xlink:href="#DejaVuSans-72" transform="translate(760.400391 0)"/>
       <use xlink:href="#DejaVuSans-73" transform="translate(801.513672 0)"/>
       <use xlink:href="#DejaVuSans-65" transform="translate(853.613281 0)"/>
       <use xlink:href="#DejaVuSans-74" transform="translate(915.136719 0)"/>
      </g>
      <!-- across mice -->
      <g transform="translate(226.533648 466.476753) rotate(-35) scale(0.1 -0.1)">
       <defs>
        <path id="DejaVuSans-63" d="M 3122 3366 
L 3122 2828 
Q 2878 2963 2633 3030 
Q 2388 3097 2138 3097 
Q 1578 3097 1268 2742 
Q 959 2388 959 1747 
Q 959 1106 1268 751 
Q 1578 397 2138 397 
Q 2388 397 2633 464 
Q 2878 531 3122 666 
L 3122 134 
Q 2881 22 2623 -34 
Q 2366 -91 2075 -91 
Q 1284 -91 818 406 
Q 353 903 353 1747 
Q 353 2603 823 3093 
Q 1294 3584 2113 3584 
Q 2378 3584 2631 3529 
Q 2884 3475 3122 3366 
z
" transform="scale(0.015625)"/>
        <path id="DejaVuSans-6f" d="M 1959 3097 
Q 1497 3097 1228 2736 
Q 959 2375 959 1747 
Q 959 1119 1226 758 
Q 1494 397 1959 397 
Q 2419 397 2687 759 
Q 2956 1122 2956 1747 
Q 2956 2369 2687 2733 
Q 2419 3097 1959 3097 
z
M 1959 3584 
Q 2709 3584 3137 3096 
Q 3566 2609 3566 1747 
Q 3566 888 3137 398 
Q 2709 -91 1959 -91 
Q 1206 -91 779 398 
Q 353 888 353 1747 
Q 353 2609 779 3096 
Q 1206 3584 1959 3584 
z
" transform="scale(0.015625)"/>
       </defs>
       <use xlink:href="#DejaVuSans-61"/>
       <use xlink:href="#DejaVuSans-63" transform="translate(61.279297 0)"/>
       <use xlink:href="#DejaVuSans-72" transform="translate(116.259766 0)"/>
       <use xlink:href="#DejaVuSans-6f" transform="translate(155.123047 0)"/>
       <use xlink:href="#DejaVuSans-73" transform="translate(216.304688 0)"/>
       <use xlink:href="#DejaVuSans-73" transform="translate(268.404297 0)"/>
       <use xlink:href="#DejaVuSans-20" transform="translate(320.503906 0)"/>
       <use xlink:href="#DejaVuSans-6d" transform="translate(352.291016 0)"/>
       <use xlink:href="#DejaVuSans-69" transform="translate(449.703125 0)"/>
       <use xlink:href="#DejaVuSans-63" transform="translate(477.486328 0)"/>
       <use xlink:href="#DejaVuSans-65" transform="translate(532.466797 0)"/>
      </g>
     </g>
    </g>
    <g id="xtick_3">
     <g id="line2d_3">
      <g>
       <use xlink:href="#m1b69fb9b1c" x="410.117338" y="410.010222" style="stroke: #000000; stroke-width: 0.8"/>
      </g>
     </g>
     <g id="text_3">
      <!-- L3: within epitope -->
      <g transform="translate(328.934144 474.747039) rotate(-35) scale(0.1 -0.1)">
       <defs>
        <path id="DejaVuSans-33" d="M 2597 2516 
Q 3050 2419 3304 2112 
Q 3559 1806 3559 1356 
Q 3559 666 3084 287 
Q 2609 -91 1734 -91 
Q 1441 -91 1130 -33 
Q 819 25 488 141 
L 488 750 
Q 750 597 1062 519 
Q 1375 441 1716 441 
Q 2309 441 2620 675 
Q 2931 909 2931 1356 
Q 2931 1769 2642 2001 
Q 2353 2234 1838 2234 
L 1294 2234 
L 1294 2753 
L 1863 2753 
Q 2328 2753 2575 2939 
Q 2822 3125 2822 3475 
Q 2822 3834 2567 4026 
Q 2313 4219 1838 4219 
Q 1578 4219 1281 4162 
Q 984 4106 628 3988 
L 628 4550 
Q 988 4650 1302 4700 
Q 1616 4750 1894 4750 
Q 2613 4750 3031 4423 
Q 3450 4097 3450 3541 
Q 3450 3153 3228 2886 
Q 3006 2619 2597 2516 
z
" transform="scale(0.015625)"/>
       </defs>
       <use xlink:href="#DejaVuSans-4c"/>
       <use xlink:href="#DejaVuSans-33" transform="translate(55.712891 0)"/>
       <use xlink:href="#DejaVuSans-3a" transform="translate(119.335938 0)"/>
       <use xlink:href="#DejaVuSans-20" transform="translate(153.027344 0)"/>
       <use xlink:href="#DejaVuSans-77" transform="translate(184.814453 0)"/>
       <use xlink:href="#DejaVuSans-69" transform="translate(266.601562 0)"/>
       <use xlink:href="#DejaVuSans-74" transform="translate(294.384766 0)"/>
       <use xlink:href="#DejaVuSans-68" transform="translate(333.59375 0)"/>
       <use xlink:href="#DejaVuSans-69" transform="translate(396.972656 0)"/>
       <use xlink:href="#DejaVuSans-6e" transform="translate(424.755859 0)"/>
       <use xlink:href="#DejaVuSans-20" transform="translate(488.134766 0)"/>
       <use xlink:href="#DejaVuSans-65" transform="translate(519.921875 0)"/>
       <use xlink:href="#DejaVuSans-70" transform="translate(581.445312 0)"/>
       <use xlink:href="#DejaVuSans-69" transform="translate(644.921875 0)"/>
       <use xlink:href="#DejaVuSans-74" transform="translate(672.705078 0)"/>
       <use xlink:href="#DejaVuSans-6f" transform="translate(711.914062 0)"/>
       <use xlink:href="#DejaVuSans-70" transform="translate(773.095703 0)"/>
       <use xlink:href="#DejaVuSans-65" transform="translate(836.572266 0)"/>
      </g>
      <!-- across strain -->
      <g transform="translate(356.734253 468.951197) rotate(-35) scale(0.1 -0.1)">
       <use xlink:href="#DejaVuSans-61"/>
       <use xlink:href="#DejaVuSans-63" transform="translate(61.279297 0)"/>
       <use xlink:href="#DejaVuSans-72" transform="translate(116.259766 0)"/>
       <use xlink:href="#DejaVuSans-6f" transform="translate(155.123047 0)"/>
       <use xlink:href="#DejaVuSans-73" transform="translate(216.304688 0)"/>
       <use xlink:href="#DejaVuSans-73" transform="translate(268.404297 0)"/>
       <use xlink:href="#DejaVuSans-20" transform="translate(320.503906 0)"/>
       <use xlink:href="#DejaVuSans-73" transform="translate(352.291016 0)"/>
       <use xlink:href="#DejaVuSans-74" transform="translate(404.390625 0)"/>
       <use xlink:href="#DejaVuSans-72" transform="translate(443.599609 0)"/>
       <use xlink:href="#DejaVuSans-61" transform="translate(484.712891 0)"/>
       <use xlink:href="#DejaVuSans-69" transform="translate(545.992188 0)"/>
       <use xlink:href="#DejaVuSans-6e" transform="translate(573.775391 0)"/>
      </g>
     </g>
    </g>
    <g id="xtick_4">
     <g id="line2d_4">
      <g>
       <use xlink:href="#m1b69fb9b1c" x="543.851816" y="410.010222" style="stroke: #000000; stroke-width: 0.8"/>
      </g>
     </g>
     <g id="text_4">
      <!-- L4: within strain -->
      <g transform="translate(470.316174 469.392165) rotate(-35) scale(0.1 -0.1)">
       <defs>
        <path id="DejaVuSans-34" d="M 2419 4116 
L 825 1625 
L 2419 1625 
L 2419 4116 
z
M 2253 4666 
L 3047 4666 
L 3047 1625 
L 3713 1625 
L 3713 1100 
L 3047 1100 
L 3047 0 
L 2419 0 
L 2419 1100 
L 313 1100 
L 313 1709 
L 2253 4666 
z
" transform="scale(0.015625)"/>
       </defs>
       <use xlink:href="#DejaVuSans-4c"/>
       <use xlink:href="#DejaVuSans-34" transform="translate(55.712891 0)"/>
       <use xlink:href="#DejaVuSans-3a" transform="translate(119.335938 0)"/>
       <use xlink:href="#DejaVuSans-20" transform="translate(153.027344 0)"/>
       <use xlink:href="#DejaVuSans-77" transform="translate(184.814453 0)"/>
       <use xlink:href="#DejaVuSans-69" transform="translate(266.601562 0)"/>
       <use xlink:href="#DejaVuSans-74" transform="translate(294.384766 0)"/>
       <use xlink:href="#DejaVuSans-68" transform="translate(333.59375 0)"/>
       <use xlink:href="#DejaVuSans-69" transform="translate(396.972656 0)"/>
       <use xlink:href="#DejaVuSans-6e" transform="translate(424.755859 0)"/>
       <use xlink:href="#DejaVuSans-20" transform="translate(488.134766 0)"/>
       <use xlink:href="#DejaVuSans-73" transform="translate(519.921875 0)"/>
       <use xlink:href="#DejaVuSans-74" transform="translate(572.021484 0)"/>
       <use xlink:href="#DejaVuSans-72" transform="translate(611.230469 0)"/>
       <use xlink:href="#DejaVuSans-61" transform="translate(652.34375 0)"/>
       <use xlink:href="#DejaVuSans-69" transform="translate(713.623047 0)"/>
       <use xlink:href="#DejaVuSans-6e" transform="translate(741.40625 0)"/>
      </g>
      <!-- across epitope -->
      <g transform="translate(482.821179 474.306071) rotate(-35) scale(0.1 -0.1)">
       <use xlink:href="#DejaVuSans-61"/>
       <use xlink:href="#DejaVuSans-63" transform="translate(61.279297 0)"/>
       <use xlink:href="#DejaVuSans-72" transform="translate(116.259766 0)"/>
       <use xlink:href="#DejaVuSans-6f" transform="translate(155.123047 0)"/>
       <use xlink:href="#DejaVuSans-73" transform="translate(216.304688 0)"/>
       <use xlink:href="#DejaVuSans-73" transform="translate(268.404297 0)"/>
       <use xlink:href="#DejaVuSans-20" transform="translate(320.503906 0)"/>
       <use xlink:href="#DejaVuSans-65" transform="translate(352.291016 0)"/>
       <use xlink:href="#DejaVuSans-70" transform="translate(413.814453 0)"/>
       <use xlink:href="#DejaVuSans-69" transform="translate(477.291016 0)"/>
       <use xlink:href="#DejaVuSans-74" transform="translate(505.074219 0)"/>
       <use xlink:href="#DejaVuSans-6f" transform="translate(544.283203 0)"/>
       <use xlink:href="#DejaVuSans-70" transform="translate(605.464844 0)"/>
       <use xlink:href="#DejaVuSans-65" transform="translate(668.941406 0)"/>
      </g>
     </g>
    </g>
    <g id="xtick_5">
     <g id="line2d_5">
      <g>
       <use xlink:href="#m1b69fb9b1c" x="677.586294" y="410.010222" style="stroke: #000000; stroke-width: 0.8"/>
      </g>
     </g>
     <g id="text_5">
      <!-- L5: all supersets -->
      <g transform="translate(609.226807 470.265077) rotate(-35) scale(0.1 -0.1)">
       <defs>
        <path id="DejaVuSans-35" d="M 691 4666 
L 3169 4666 
L 3169 4134 
L 1269 4134 
L 1269 2991 
Q 1406 3038 1543 3061 
Q 1681 3084 1819 3084 
Q 2600 3084 3056 2656 
Q 3513 2228 3513 1497 
Q 3513 744 3044 326 
Q 2575 -91 1722 -91 
Q 1428 -91 1123 -41 
Q 819 9 494 109 
L 494 744 
Q 775 591 1075 516 
Q 1375 441 1709 441 
Q 2250 441 2565 725 
Q 2881 1009 2881 1497 
Q 2881 1984 2565 2268 
Q 2250 2553 1709 2553 
Q 1456 2553 1204 2497 
Q 953 2441 691 2322 
L 691 4666 
z
" transform="scale(0.015625)"/>
       </defs>
       <use xlink:href="#DejaVuSans-4c"/>
       <use xlink:href="#DejaVuSans-35" transform="translate(55.712891 0)"/>
       <use xlink:href="#DejaVuSans-3a" transform="translate(119.335938 0)"/>
       <use xlink:href="#DejaVuSans-20" transform="translate(153.027344 0)"/>
       <use xlink:href="#DejaVuSans-61" transform="translate(184.814453 0)"/>
       <use xlink:href="#DejaVuSans-6c" transform="translate(246.09375 0)"/>
       <use xlink:href="#DejaVuSans-6c" transform="translate(273.876953 0)"/>
       <use xlink:href="#DejaVuSans-20" transform="translate(301.660156 0)"/>
       <use xlink:href="#DejaVuSans-73" transform="translate(333.447266 0)"/>
       <use xlink:href="#DejaVuSans-75" transform="translate(385.546875 0)"/>
       <use xlink:href="#DejaVuSans-70" transform="translate(448.925781 0)"/>
       <use xlink:href="#DejaVuSans-65" transform="translate(512.402344 0)"/>
       <use xlink:href="#DejaVuSans-72" transform="translate(573.925781 0)"/>
       <use xlink:href="#DejaVuSans-73" transform="translate(615.039062 0)"/>
       <use xlink:href="#DejaVuSans-65" transform="translate(667.138672 0)"/>
       <use xlink:href="#DejaVuSans-74" transform="translate(728.662109 0)"/>
       <use xlink:href="#DejaVuSans-73" transform="translate(767.871094 0)"/>
      </g>
     </g>
    </g>
    <g id="xtick_6">
     <g id="line2d_6">
      <g>
       <use xlink:href="#m1b69fb9b1c" x="811.320772" y="410.010222" style="stroke: #000000; stroke-width: 0.8"/>
      </g>
     </g>
     <g id="text_6">
      <!-- L6: pre-immune -->
      <g transform="translate(744.952848 468.870569) rotate(-35) scale(0.1 -0.1)">
       <defs>
        <path id="DejaVuSans-36" d="M 2113 2584 
Q 1688 2584 1439 2293 
Q 1191 2003 1191 1497 
Q 1191 994 1439 701 
Q 1688 409 2113 409 
Q 2538 409 2786 701 
Q 3034 994 3034 1497 
Q 3034 2003 2786 2293 
Q 2538 2584 2113 2584 
z
M 3366 4563 
L 3366 3988 
Q 3128 4100 2886 4159 
Q 2644 4219 2406 4219 
Q 1781 4219 1451 3797 
Q 1122 3375 1075 2522 
Q 1259 2794 1537 2939 
Q 1816 3084 2150 3084 
Q 2853 3084 3261 2657 
Q 3669 2231 3669 1497 
Q 3669 778 3244 343 
Q 2819 -91 2113 -91 
Q 1303 -91 875 529 
Q 447 1150 447 2328 
Q 447 3434 972 4092 
Q 1497 4750 2381 4750 
Q 2619 4750 2861 4703 
Q 3103 4656 3366 4563 
z
" transform="scale(0.015625)"/>
        <path id="DejaVuSans-2d" d="M 313 2009 
L 1997 2009 
L 1997 1497 
L 313 1497 
L 313 2009 
z
" transform="scale(0.015625)"/>
       </defs>
       <use xlink:href="#DejaVuSans-4c"/>
       <use xlink:href="#DejaVuSans-36" transform="translate(55.712891 0)"/>
       <use xlink:href="#DejaVuSans-3a" transform="translate(119.335938 0)"/>
       <use xlink:href="#DejaVuSans-20" transform="translate(153.027344 0)"/>
       <use xlink:href="#DejaVuSans-70" transform="translate(184.814453 0)"/>
       <use xlink:href="#DejaVuSans-72" transform="translate(248.291016 0)"/>
       <use xlink:href="#DejaVuSans-65" transform="translate(287.154297 0)"/>
       <use xlink:href="#DejaVuSans-2d" transform="translate(348.677734 0)"/>
       <use xlink:href="#DejaVuSans-69" transform="translate(384.761719 0)"/>
       <use xlink:href="#DejaVuSans-6d" transform="translate(412.544922 0)"/>
       <use xlink:href="#DejaVuSans-6d" transform="translate(509.957031 0)"/>
       <use xlink:href="#DejaVuSans-75" transform="translate(607.369141 0)"/>
       <use xlink:href="#DejaVuSans-6e" transform="translate(670.748047 0)"/>
       <use xlink:href="#DejaVuSans-65" transform="translate(734.126953 0)"/>
      </g>
     </g>
    </g>
   </g>
   <g id="matplotlib.axis_2">
    <g id="ytick_1">
     <g id="line2d_7">
      <defs>
       <path id="m0250362fab" d="M 0 0 
L -3.5 0 
" style="stroke: #000000; stroke-width: 0.8"/>
      </defs>
      <g>
       <use xlink:href="#m0250362fab" x="53.31375" y="356.022701" style="stroke: #000000; stroke-width: 0.8"/>
      </g>
     </g>
     <g id="text_7">
      <!-- $\mathdefault{10^{-9}}$ -->
      <g transform="translate(22.81375 359.82192) scale(0.1 -0.1)">
       <defs>
        <path id="DejaVuSans-30" d="M 2034 4250 
Q 1547 4250 1301 3770 
Q 1056 3291 1056 2328 
Q 1056 1369 1301 889 
Q 1547 409 2034 409 
Q 2525 409 2770 889 
Q 3016 1369 3016 2328 
Q 3016 3291 2770 3770 
Q 2525 4250 2034 4250 
z
M 2034 4750 
Q 2819 4750 3233 4129 
Q 3647 3509 3647 2328 
Q 3647 1150 3233 529 
Q 2819 -91 2034 -91 
Q 1250 -91 836 529 
Q 422 1150 422 2328 
Q 422 3509 836 4129 
Q 1250 4750 2034 4750 
z
" transform="scale(0.015625)"/>
        <path id="DejaVuSans-2212" d="M 678 2272 
L 4684 2272 
L 4684 1741 
L 678 1741 
L 678 2272 
z
" transform="scale(0.015625)"/>
        <path id="DejaVuSans-39" d="M 703 97 
L 703 672 
Q 941 559 1184 500 
Q 1428 441 1663 441 
Q 2288 441 2617 861 
Q 2947 1281 2994 2138 
Q 2813 1869 2534 1725 
Q 2256 1581 1919 1581 
Q 1219 1581 811 2004 
Q 403 2428 403 3163 
Q 403 3881 828 4315 
Q 1253 4750 1959 4750 
Q 2769 4750 3195 4129 
Q 3622 3509 3622 2328 
Q 3622 1225 3098 567 
Q 2575 -91 1691 -91 
Q 1453 -91 1209 -44 
Q 966 3 703 97 
z
M 1959 2075 
Q 2384 2075 2632 2365 
Q 2881 2656 2881 3163 
Q 2881 3666 2632 3958 
Q 2384 4250 1959 4250 
Q 1534 4250 1286 3958 
Q 1038 3666 1038 3163 
Q 1038 2656 1286 2365 
Q 1534 2075 1959 2075 
z
" transform="scale(0.015625)"/>
       </defs>
       <use xlink:href="#DejaVuSans-31" transform="translate(0 0.765625)"/>
       <use xlink:href="#DejaVuSans-30" transform="translate(63.623047 0.765625)"/>
       <use xlink:href="#DejaVuSans-2212" transform="translate(128.203125 39.046875) scale(0.7)"/>
       <use xlink:href="#DejaVuSans-39" transform="translate(186.855469 39.046875) scale(0.7)"/>
      </g>
     </g>
    </g>
    <g id="ytick_2">
     <g id="line2d_8">
      <g>
       <use xlink:href="#m0250362fab" x="53.31375" y="283.154241" style="stroke: #000000; stroke-width: 0.8"/>
      </g>
     </g>
     <g id="text_8">
      <!-- $\mathdefault{10^{-7}}$ -->
      <g transform="translate(22.81375 286.95346) scale(0.1 -0.1)">
       <defs>
        <path id="DejaVuSans-37" d="M 525 4666 
L 3525 4666 
L 3525 4397 
L 1831 0 
L 1172 0 
L 2766 4134 
L 525 4134 
L 525 4666 
z
" transform="scale(0.015625)"/>
       </defs>
       <use xlink:href="#DejaVuSans-31" transform="translate(0 0.684375)"/>
       <use xlink:href="#DejaVuSans-30" transform="translate(63.623047 0.684375)"/>
       <use xlink:href="#DejaVuSans-2212" transform="translate(128.203125 38.965625) scale(0.7)"/>
       <use xlink:href="#DejaVuSans-37" transform="translate(186.855469 38.965625) scale(0.7)"/>
      </g>
     </g>
    </g>
    <g id="ytick_3">
     <g id="line2d_9">
      <g>
       <use xlink:href="#m0250362fab" x="53.31375" y="210.285781" style="stroke: #000000; stroke-width: 0.8"/>
      </g>
     </g>
     <g id="text_9">
      <!-- $\mathdefault{10^{-5}}$ -->
      <g transform="translate(22.81375 214.085) scale(0.1 -0.1)">
       <use xlink:href="#DejaVuSans-31" transform="translate(0 0.684375)"/>
       <use xlink:href="#DejaVuSans-30" transform="translate(63.623047 0.684375)"/>
       <use xlink:href="#DejaVuSans-2212" transform="translate(128.203125 38.965625) scale(0.7)"/>
       <use xlink:href="#DejaVuSans-35" transform="translate(186.855469 38.965625) scale(0.7)"/>
      </g>
     </g>
    </g>
    <g id="ytick_4">
     <g id="line2d_10">
      <g>
       <use xlink:href="#m0250362fab" x="53.31375" y="137.417322" style="stroke: #000000; stroke-width: 0.8"/>
      </g>
     </g>
     <g id="text_10">
      <!-- $\mathdefault{10^{-3}}$ -->
      <g transform="translate(22.81375 141.21654) scale(0.1 -0.1)">
       <use xlink:href="#DejaVuSans-31" transform="translate(0 0.765625)"/>
       <use xlink:href="#DejaVuSans-30" transform="translate(63.623047 0.765625)"/>
       <use xlink:href="#DejaVuSans-2212" transform="translate(128.203125 39.046875) scale(0.7)"/>
       <use xlink:href="#DejaVuSans-33" transform="translate(186.855469 39.046875) scale(0.7)"/>
      </g>
     </g>
    </g>
    <g id="ytick_5">
     <g id="line2d_11">
      <g>
       <use xlink:href="#m0250362fab" x="53.31375" y="64.548862" style="stroke: #000000; stroke-width: 0.8"/>
      </g>
     </g>
     <g id="text_11">
      <!-- $\mathdefault{10^{-1}}$ -->
      <g transform="translate(22.81375 68.348081) scale(0.1 -0.1)">
       <use xlink:href="#DejaVuSans-31" transform="translate(0 0.684375)"/>
       <use xlink:href="#DejaVuSans-30" transform="translate(63.623047 0.684375)"/>
       <use xlink:href="#DejaVuSans-2212" transform="translate(128.203125 38.965625) scale(0.7)"/>
       <use xlink:href="#DejaVuSans-31" transform="translate(186.855469 38.965625) scale(0.7)"/>
      </g>
     </g>
    </g>
    <g id="text_12">
     <!-- $P_c$ -->
     <g transform="translate(16.318125 223.044017) rotate(-90) scale(0.12 -0.12)">
      <defs>
       <path id="DejaVuSans-Oblique-50" d="M 1081 4666 
L 2541 4666 
Q 3178 4666 3512 4369 
Q 3847 4072 3847 3500 
Q 3847 2731 3353 2303 
Q 2859 1875 1966 1875 
L 1172 1875 
L 806 0 
L 172 0 
L 1081 4666 
z
M 1613 4147 
L 1275 2394 
L 2069 2394 
Q 2606 2394 2893 2669 
Q 3181 2944 3181 3456 
Q 3181 3784 2986 3965 
Q 2791 4147 2438 4147 
L 1613 4147 
z
" transform="scale(0.015625)"/>
       <path id="DejaVuSans-Oblique-63" d="M 3431 3366 
L 3316 2797 
Q 3109 2947 2876 3022 
Q 2644 3097 2394 3097 
Q 2119 3097 1870 3000 
Q 1622 2903 1453 2725 
Q 1184 2453 1037 2087 
Q 891 1722 891 1331 
Q 891 859 1127 628 
Q 1363 397 1844 397 
Q 2081 397 2348 469 
Q 2616 541 2906 684 
L 2797 116 
Q 2547 13 2283 -39 
Q 2019 -91 1741 -91 
Q 1044 -91 669 257 
Q 294 606 294 1253 
Q 294 1797 489 2255 
Q 684 2713 1069 3078 
Q 1331 3328 1684 3456 
Q 2038 3584 2456 3584 
Q 2700 3584 2940 3529 
Q 3181 3475 3431 3366 
z
" transform="scale(0.015625)"/>
      </defs>
      <use xlink:href="#DejaVuSans-Oblique-50" transform="translate(0 0.09375)"/>
      <use xlink:href="#DejaVuSans-Oblique-63" transform="translate(60.302734 -16.3125) scale(0.7)"/>
     </g>
    </g>
   </g>
   <g id="patch_3">
    <path d="M 53.31375 410.010222 
L 53.31375 23.837812 
" style="fill: none; stroke: #000000; stroke-width: 0.8; stroke-linejoin: miter; stroke-linecap: square"/>
   </g>
   <g id="patch_4">
    <path d="M 900.655404 410.010222 
L 900.655404 23.837812 
" style="fill: none; stroke: #000000; stroke-width: 0.8; stroke-linejoin: miter; stroke-linecap: square"/>
   </g>
   <g id="patch_5">
    <path d="M 53.31375 410.010222 
L 900.655404 410.010222 
" style="fill: none; stroke: #000000; stroke-width: 0.8; stroke-linejoin: miter; stroke-linecap: square"/>
   </g>
   <g id="patch_6">
    <path d="M 53.31375 23.837812 
L 900.655404 23.837812 
" style="fill: none; stroke: #000000; stroke-width: 0.8; stroke-linejoin: miter; stroke-linecap: square"/>
   </g>
   <g id="text_13">
    <!-- Kb (CDR3b) Coincidence Probabilities Across Strictness Levels -->
    <g transform="translate(260.077546 17.837812) scale(0.14 -0.14)">
     <defs>
      <path id="DejaVuSans-4b" d="M 628 4666 
L 1259 4666 
L 1259 2694 
L 3353 4666 
L 4166 4666 
L 1850 2491 
L 4331 0 
L 3500 0 
L 1259 2247 
L 1259 0 
L 628 0 
L 628 4666 
z
" transform="scale(0.015625)"/>
      <path id="DejaVuSans-62" d="M 3116 1747 
Q 3116 2381 2855 2742 
Q 2594 3103 2138 3103 
Q 1681 3103 1420 2742 
Q 1159 2381 1159 1747 
Q 1159 1113 1420 752 
Q 1681 391 2138 391 
Q 2594 391 2855 752 
Q 3116 1113 3116 1747 
z
M 1159 2969 
Q 1341 3281 1617 3432 
Q 1894 3584 2278 3584 
Q 2916 3584 3314 3078 
Q 3713 2572 3713 1747 
Q 3713 922 3314 415 
Q 2916 -91 2278 -91 
Q 1894 -91 1617 61 
Q 1341 213 1159 525 
L 1159 0 
L 581 0 
L 581 4863 
L 1159 4863 
L 1159 2969 
z
" transform="scale(0.015625)"/>
      <path id="DejaVuSans-28" d="M 1984 4856 
Q 1566 4138 1362 3434 
Q 1159 2731 1159 2009 
Q 1159 1288 1364 580 
Q 1569 -128 1984 -844 
L 1484 -844 
Q 1016 -109 783 600 
Q 550 1309 550 2009 
Q 550 2706 781 3412 
Q 1013 4119 1484 4856 
L 1984 4856 
z
" transform="scale(0.015625)"/>
      <path id="DejaVuSans-43" d="M 4122 4306 
L 4122 3641 
Q 3803 3938 3442 4084 
Q 3081 4231 2675 4231 
Q 1875 4231 1450 3742 
Q 1025 3253 1025 2328 
Q 1025 1406 1450 917 
Q 1875 428 2675 428 
Q 3081 428 3442 575 
Q 3803 722 4122 1019 
L 4122 359 
Q 3791 134 3420 21 
Q 3050 -91 2638 -91 
Q 1578 -91 968 557 
Q 359 1206 359 2328 
Q 359 3453 968 4101 
Q 1578 4750 2638 4750 
Q 3056 4750 3426 4639 
Q 3797 4528 4122 4306 
z
" transform="scale(0.015625)"/>
      <path id="DejaVuSans-44" d="M 1259 4147 
L 1259 519 
L 2022 519 
Q 2988 519 3436 956 
Q 3884 1394 3884 2338 
Q 3884 3275 3436 3711 
Q 2988 4147 2022 4147 
L 1259 4147 
z
M 628 4666 
L 1925 4666 
Q 3281 4666 3915 4102 
Q 4550 3538 4550 2338 
Q 4550 1131 3912 565 
Q 3275 0 1925 0 
L 628 0 
L 628 4666 
z
" transform="scale(0.015625)"/>
      <path id="DejaVuSans-52" d="M 2841 2188 
Q 3044 2119 3236 1894 
Q 3428 1669 3622 1275 
L 4263 0 
L 3584 0 
L 2988 1197 
Q 2756 1666 2539 1819 
Q 2322 1972 1947 1972 
L 1259 1972 
L 1259 0 
L 628 0 
L 628 4666 
L 2053 4666 
Q 2853 4666 3247 4331 
Q 3641 3997 3641 3322 
Q 3641 2881 3436 2590 
Q 3231 2300 2841 2188 
z
M 1259 4147 
L 1259 2491 
L 2053 2491 
Q 2509 2491 2742 2702 
Q 2975 2913 2975 3322 
Q 2975 3731 2742 3939 
Q 2509 4147 2053 4147 
L 1259 4147 
z
" transform="scale(0.015625)"/>
      <path id="DejaVuSans-29" d="M 513 4856 
L 1013 4856 
Q 1481 4119 1714 3412 
Q 1947 2706 1947 2009 
Q 1947 1309 1714 600 
Q 1481 -109 1013 -844 
L 513 -844 
Q 928 -128 1133 580 
Q 1338 1288 1338 2009 
Q 1338 2731 1133 3434 
Q 928 4138 513 4856 
z
" transform="scale(0.015625)"/>
      <path id="DejaVuSans-64" d="M 2906 2969 
L 2906 4863 
L 3481 4863 
L 3481 0 
L 2906 0 
L 2906 525 
Q 2725 213 2448 61 
Q 2172 -91 1784 -91 
Q 1150 -91 751 415 
Q 353 922 353 1747 
Q 353 2572 751 3078 
Q 1150 3584 1784 3584 
Q 2172 3584 2448 3432 
Q 2725 3281 2906 2969 
z
M 947 1747 
Q 947 1113 1208 752 
Q 1469 391 1925 391 
Q 2381 391 2643 752 
Q 2906 1113 2906 1747 
Q 2906 2381 2643 2742 
Q 2381 3103 1925 3103 
Q 1469 3103 1208 2742 
Q 947 2381 947 1747 
z
" transform="scale(0.015625)"/>
      <path id="DejaVuSans-50" d="M 1259 4147 
L 1259 2394 
L 2053 2394 
Q 2494 2394 2734 2622 
Q 2975 2850 2975 3272 
Q 2975 3691 2734 3919 
Q 2494 4147 2053 4147 
L 1259 4147 
z
M 628 4666 
L 2053 4666 
Q 2838 4666 3239 4311 
Q 3641 3956 3641 3272 
Q 3641 2581 3239 2228 
Q 2838 1875 2053 1875 
L 1259 1875 
L 1259 0 
L 628 0 
L 628 4666 
z
" transform="scale(0.015625)"/>
      <path id="DejaVuSans-41" d="M 2188 4044 
L 1331 1722 
L 3047 1722 
L 2188 4044 
z
M 1831 4666 
L 2547 4666 
L 4325 0 
L 3669 0 
L 3244 1197 
L 1141 1197 
L 716 0 
L 50 0 
L 1831 4666 
z
" transform="scale(0.015625)"/>
      <path id="DejaVuSans-53" d="M 3425 4513 
L 3425 3897 
Q 3066 4069 2747 4153 
Q 2428 4238 2131 4238 
Q 1616 4238 1336 4038 
Q 1056 3838 1056 3469 
Q 1056 3159 1242 3001 
Q 1428 2844 1947 2747 
L 2328 2669 
Q 3034 2534 3370 2195 
Q 3706 1856 3706 1288 
Q 3706 609 3251 259 
Q 2797 -91 1919 -91 
Q 1588 -91 1214 -16 
Q 841 59 441 206 
L 441 856 
Q 825 641 1194 531 
Q 1563 422 1919 422 
Q 2459 422 2753 634 
Q 3047 847 3047 1241 
Q 3047 1584 2836 1778 
Q 2625 1972 2144 2069 
L 1759 2144 
Q 1053 2284 737 2584 
Q 422 2884 422 3419 
Q 422 4038 858 4394 
Q 1294 4750 2059 4750 
Q 2388 4750 2728 4690 
Q 3069 4631 3425 4513 
z
" transform="scale(0.015625)"/>
      <path id="DejaVuSans-76" d="M 191 3500 
L 800 3500 
L 1894 563 
L 2988 3500 
L 3597 3500 
L 2284 0 
L 1503 0 
L 191 3500 
z
" transform="scale(0.015625)"/>
     </defs>
     <use xlink:href="#DejaVuSans-4b"/>
     <use xlink:href="#DejaVuSans-62" transform="translate(65.576172 0)"/>
     <use xlink:href="#DejaVuSans-20" transform="translate(129.052734 0)"/>
     <use xlink:href="#DejaVuSans-28" transform="translate(160.839844 0)"/>
     <use xlink:href="#DejaVuSans-43" transform="translate(199.853516 0)"/>
     <use xlink:href="#DejaVuSans-44" transform="translate(269.677734 0)"/>
     <use xlink:href="#DejaVuSans-52" transform="translate(346.679688 0)"/>
     <use xlink:href="#DejaVuSans-33" transform="translate(416.162109 0)"/>
     <use xlink:href="#DejaVuSans-62" transform="translate(479.785156 0)"/>
     <use xlink:href="#DejaVuSans-29" transform="translate(543.261719 0)"/>
     <use xlink:href="#DejaVuSans-20" transform="translate(582.275391 0)"/>
     <use xlink:href="#DejaVuSans-43" transform="translate(614.0625 0)"/>
     <use xlink:href="#DejaVuSans-6f" transform="translate(683.886719 0)"/>
     <use xlink:href="#DejaVuSans-69" transform="translate(745.068359 0)"/>
     <use xlink:href="#DejaVuSans-6e" transform="translate(772.851562 0)"/>
     <use xlink:href="#DejaVuSans-63" transform="translate(836.230469 0)"/>
     <use xlink:href="#DejaVuSans-69" transform="translate(891.210938 0)"/>
     <use xlink:href="#DejaVuSans-64" transform="translate(918.994141 0)"/>
     <use xlink:href="#DejaVuSans-65" transform="translate(982.470703 0)"/>
     <use xlink:href="#DejaVuSans-6e" transform="translate(1043.994141 0)"/>
     <use xlink:href="#DejaVuSans-63" transform="translate(1107.373047 0)"/>
     <use xlink:href="#DejaVuSans-65" transform="translate(1162.353516 0)"/>
     <use xlink:href="#DejaVuSans-20" transform="translate(1223.876953 0)"/>
     <use xlink:href="#DejaVuSans-50" transform="translate(1255.664062 0)"/>
     <use xlink:href="#DejaVuSans-72" transform="translate(1314.216797 0)"/>
     <use xlink:href="#DejaVuSans-6f" transform="translate(1353.080078 0)"/>
     <use xlink:href="#DejaVuSans-62" transform="translate(1414.261719 0)"/>
     <use xlink:href="#DejaVuSans-61" transform="translate(1477.738281 0)"/>
     <use xlink:href="#DejaVuSans-62" transform="translate(1539.017578 0)"/>
     <use xlink:href="#DejaVuSans-69" transform="translate(1602.494141 0)"/>
     <use xlink:href="#DejaVuSans-6c" transform="translate(1630.277344 0)"/>
     <use xlink:href="#DejaVuSans-69" transform="translate(1658.060547 0)"/>
     <use xlink:href="#DejaVuSans-74" transform="translate(1685.84375 0)"/>
     <use xlink:href="#DejaVuSans-69" transform="translate(1725.052734 0)"/>
     <use xlink:href="#DejaVuSans-65" transform="translate(1752.835938 0)"/>
     <use xlink:href="#DejaVuSans-73" transform="translate(1814.359375 0)"/>
     <use xlink:href="#DejaVuSans-20" transform="translate(1866.458984 0)"/>
     <use xlink:href="#DejaVuSans-41" transform="translate(1898.246094 0)"/>
     <use xlink:href="#DejaVuSans-63" transform="translate(1964.904297 0)"/>
     <use xlink:href="#DejaVuSans-72" transform="translate(2019.884766 0)"/>
     <use xlink:href="#DejaVuSans-6f" transform="translate(2058.748047 0)"/>
     <use xlink:href="#DejaVuSans-73" transform="translate(2119.929688 0)"/>
     <use xlink:href="#DejaVuSans-73" transform="translate(2172.029297 0)"/>
     <use xlink:href="#DejaVuSans-20" transform="translate(2224.128906 0)"/>
     <use xlink:href="#DejaVuSans-53" transform="translate(2255.916016 0)"/>
     <use xlink:href="#DejaVuSans-74" transform="translate(2319.392578 0)"/>
     <use xlink:href="#DejaVuSans-72" transform="translate(2358.601562 0)"/>
     <use xlink:href="#DejaVuSans-69" transform="translate(2399.714844 0)"/>
     <use xlink:href="#DejaVuSans-63" transform="translate(2427.498047 0)"/>
     <use xlink:href="#DejaVuSans-74" transform="translate(2482.478516 0)"/>
     <use xlink:href="#DejaVuSans-6e" transform="translate(2521.6875 0)"/>
     <use xlink:href="#DejaVuSans-65" transform="translate(2585.066406 0)"/>
     <use xlink:href="#DejaVuSans-73" transform="translate(2646.589844 0)"/>
     <use xlink:href="#DejaVuSans-73" transform="translate(2698.689453 0)"/>
     <use xlink:href="#DejaVuSans-20" transform="translate(2750.789062 0)"/>
     <use xlink:href="#DejaVuSans-4c" transform="translate(2782.576172 0)"/>
     <use xlink:href="#DejaVuSans-65" transform="translate(2836.539062 0)"/>
     <use xlink:href="#DejaVuSans-76" transform="translate(2898.0625 0)"/>
     <use xlink:href="#DejaVuSans-65" transform="translate(2957.242188 0)"/>
     <use xlink:href="#DejaVuSans-6c" transform="translate(3018.765625 0)"/>
     <use xlink:href="#DejaVuSans-73" transform="translate(3046.548828 0)"/>
    </g>
   </g>
   <g id="legend_1">
    <g id="patch_7">
     <path d="M 923.902237 164.10875 
L 990.523331 164.10875 
Q 992.323331 164.10875 992.323331 162.30875 
L 992.323331 30.137812 
Q 992.323331 28.337812 990.523331 28.337812 
L 923.902237 28.337812 
Q 922.102237 28.337812 922.102237 30.137812 
L 922.102237 162.30875 
Q 922.102237 164.10875 923.902237 164.10875 
z
" style="fill: #ffffff; opacity: 0.8; stroke: #cccccc; stroke-linejoin: miter"/>
    </g>
    <g id="text_14">
     <!-- Group -->
     <g transform="translate(941.993253 39.53625) scale(0.1 -0.1)">
      <defs>
       <path id="DejaVuSans-47" d="M 3809 666 
L 3809 1919 
L 2778 1919 
L 2778 2438 
L 4434 2438 
L 4434 434 
Q 4069 175 3628 42 
Q 3188 -91 2688 -91 
Q 1594 -91 976 548 
Q 359 1188 359 2328 
Q 359 3472 976 4111 
Q 1594 4750 2688 4750 
Q 3144 4750 3555 4637 
Q 3966 4525 4313 4306 
L 4313 3634 
Q 3963 3931 3569 4081 
Q 3175 4231 2741 4231 
Q 1884 4231 1454 3753 
Q 1025 3275 1025 2328 
Q 1025 1384 1454 906 
Q 1884 428 2741 428 
Q 3075 428 3337 486 
Q 3600 544 3809 666 
z
" transform="scale(0.015625)"/>
      </defs>
      <use xlink:href="#DejaVuSans-47"/>
      <use xlink:href="#DejaVuSans-72" transform="translate(77.490234 0)"/>
      <use xlink:href="#DejaVuSans-6f" transform="translate(116.353516 0)"/>
      <use xlink:href="#DejaVuSans-75" transform="translate(177.535156 0)"/>
      <use xlink:href="#DejaVuSans-70" transform="translate(240.914062 0)"/>
     </g>
    </g>
    <g id="PathCollection_17">
     <g>
      <use xlink:href="#m77090f6c51" x="934.702237" y="50.592031" style="fill: #f4a5a5; fill-opacity: 0.8; stroke: #ffffff; stroke-opacity: 0.8; stroke-width: 0.5"/>
     </g>
    </g>
    <g id="text_15">
     <!-- RTY -->
     <g transform="translate(950.902237 52.954531) scale(0.09 -0.09)">
      <defs>
       <path id="DejaVuSans-54" d="M -19 4666 
L 3928 4666 
L 3928 4134 
L 2272 4134 
L 2272 0 
L 1638 0 
L 1638 4134 
L -19 4134 
L -19 4666 
z
" transform="scale(0.015625)"/>
       <path id="DejaVuSans-59" d="M -13 4666 
L 666 4666 
L 1959 2747 
L 3244 4666 
L 3922 4666 
L 2272 2222 
L 2272 0 
L 1638 0 
L 1638 2222 
L -13 4666 
z
" transform="scale(0.015625)"/>
      </defs>
      <use xlink:href="#DejaVuSans-52"/>
      <use xlink:href="#DejaVuSans-54" transform="translate(62.232422 0)"/>
      <use xlink:href="#DejaVuSans-59" transform="translate(123.316406 0)"/>
     </g>
    </g>
    <g id="PathCollection_18">
     <g>
      <use xlink:href="#m02417c6da2" x="934.702237" y="63.802344" style="fill: #a5c8e4; fill-opacity: 0.8; stroke: #ffffff; stroke-opacity: 0.8; stroke-width: 0.5"/>
     </g>
    </g>
    <g id="text_16">
     <!-- SNY -->
     <g transform="translate(950.902237 66.164844) scale(0.09 -0.09)">
      <defs>
       <path id="DejaVuSans-4e" d="M 628 4666 
L 1478 4666 
L 3547 763 
L 3547 4666 
L 4159 4666 
L 4159 0 
L 3309 0 
L 1241 3903 
L 1241 0 
L 628 0 
L 628 4666 
z
" transform="scale(0.015625)"/>
      </defs>
      <use xlink:href="#DejaVuSans-53"/>
      <use xlink:href="#DejaVuSans-4e" transform="translate(63.476562 0)"/>
      <use xlink:href="#DejaVuSans-59" transform="translate(138.28125 0)"/>
     </g>
    </g>
    <g id="PathCollection_19">
     <g>
      <use xlink:href="#m27bec71584" x="934.702237" y="77.012656" style="fill: #a5d6a5; fill-opacity: 0.8; stroke: #ffffff; stroke-opacity: 0.8; stroke-width: 0.5"/>
     </g>
    </g>
    <g id="text_17">
     <!-- VGP -->
     <g transform="translate(950.902237 79.375156) scale(0.09 -0.09)">
      <defs>
       <path id="DejaVuSans-56" d="M 1831 0 
L 50 4666 
L 709 4666 
L 2188 738 
L 3669 4666 
L 4325 4666 
L 2547 0 
L 1831 0 
z
" transform="scale(0.015625)"/>
      </defs>
      <use xlink:href="#DejaVuSans-56"/>
      <use xlink:href="#DejaVuSans-47" transform="translate(68.408203 0)"/>
      <use xlink:href="#DejaVuSans-50" transform="translate(145.898438 0)"/>
     </g>
    </g>
    <g id="PathCollection_20">
     <g>
      <use xlink:href="#m7620392139" x="934.702237" y="90.222969" style="fill: #e8d4f0; fill-opacity: 0.8; stroke: #ffffff; stroke-opacity: 0.8; stroke-width: 0.5"/>
     </g>
    </g>
    <g id="text_18">
     <!-- B10BRF -->
     <g transform="translate(950.902237 92.585469) scale(0.09 -0.09)">
      <defs>
       <path id="DejaVuSans-42" d="M 1259 2228 
L 1259 519 
L 2272 519 
Q 2781 519 3026 730 
Q 3272 941 3272 1375 
Q 3272 1813 3026 2020 
Q 2781 2228 2272 2228 
L 1259 2228 
z
M 1259 4147 
L 1259 2741 
L 2194 2741 
Q 2656 2741 2882 2914 
Q 3109 3088 3109 3444 
Q 3109 3797 2882 3972 
Q 2656 4147 2194 4147 
L 1259 4147 
z
M 628 4666 
L 2241 4666 
Q 2963 4666 3353 4366 
Q 3744 4066 3744 3513 
Q 3744 3084 3544 2831 
Q 3344 2578 2956 2516 
Q 3422 2416 3680 2098 
Q 3938 1781 3938 1306 
Q 3938 681 3513 340 
Q 3088 0 2303 0 
L 628 0 
L 628 4666 
z
" transform="scale(0.015625)"/>
       <path id="DejaVuSans-46" d="M 628 4666 
L 3309 4666 
L 3309 4134 
L 1259 4134 
L 1259 2759 
L 3109 2759 
L 3109 2228 
L 1259 2228 
L 1259 0 
L 628 0 
L 628 4666 
z
" transform="scale(0.015625)"/>
      </defs>
      <use xlink:href="#DejaVuSans-42"/>
      <use xlink:href="#DejaVuSans-31" transform="translate(68.603516 0)"/>
      <use xlink:href="#DejaVuSans-30" transform="translate(132.226562 0)"/>
      <use xlink:href="#DejaVuSans-42" transform="translate(195.849609 0)"/>
      <use xlink:href="#DejaVuSans-52" transform="translate(264.453125 0)"/>
      <use xlink:href="#DejaVuSans-46" transform="translate(333.935547 0)"/>
     </g>
    </g>
    <g id="PathCollection_21">
     <g>
      <use xlink:href="#m430d8cd6a0" x="934.702237" y="103.433281" style="fill: #c4a8d0; fill-opacity: 0.8; stroke: #ffffff; stroke-opacity: 0.8; stroke-width: 0.5"/>
     </g>
    </g>
    <g id="text_19">
     <!-- B10BRM -->
     <g transform="translate(950.902237 105.795781) scale(0.09 -0.09)">
      <defs>
       <path id="DejaVuSans-4d" d="M 628 4666 
L 1569 4666 
L 2759 1491 
L 3956 4666 
L 4897 4666 
L 4897 0 
L 4281 0 
L 4281 4097 
L 3078 897 
L 2444 897 
L 1241 4097 
L 1241 0 
L 628 0 
L 628 4666 
z
" transform="scale(0.015625)"/>
      </defs>
      <use xlink:href="#DejaVuSans-42"/>
      <use xlink:href="#DejaVuSans-31" transform="translate(68.603516 0)"/>
      <use xlink:href="#DejaVuSans-30" transform="translate(132.226562 0)"/>
      <use xlink:href="#DejaVuSans-42" transform="translate(195.849609 0)"/>
      <use xlink:href="#DejaVuSans-52" transform="translate(264.453125 0)"/>
      <use xlink:href="#DejaVuSans-4d" transform="translate(333.935547 0)"/>
     </g>
    </g>
    <g id="PathCollection_22">
     <g>
      <use xlink:href="#m411c0a8f9d" x="934.702237" y="116.643594" style="fill: #ffd699; fill-opacity: 0.8; stroke: #ffffff; stroke-opacity: 0.8; stroke-width: 0.5"/>
     </g>
    </g>
    <g id="text_20">
     <!-- BALBc -->
     <g transform="translate(950.902237 119.006094) scale(0.09 -0.09)">
      <use xlink:href="#DejaVuSans-42"/>
      <use xlink:href="#DejaVuSans-41" transform="translate(68.603516 0)"/>
      <use xlink:href="#DejaVuSans-4c" transform="translate(137.011719 0)"/>
      <use xlink:href="#DejaVuSans-42" transform="translate(192.724609 0)"/>
      <use xlink:href="#DejaVuSans-63" transform="translate(261.328125 0)"/>
     </g>
    </g>
    <g id="PathCollection_23">
     <g>
      <use xlink:href="#m254d71815b" x="934.702237" y="129.853906" style="fill: #c9c9c9; fill-opacity: 0.8; stroke: #ffffff; stroke-opacity: 0.8; stroke-width: 0.5"/>
     </g>
    </g>
    <g id="text_21">
     <!-- All -->
     <g transform="translate(950.902237 132.216406) scale(0.09 -0.09)">
      <use xlink:href="#DejaVuSans-41"/>
      <use xlink:href="#DejaVuSans-6c" transform="translate(68.408203 0)"/>
      <use xlink:href="#DejaVuSans-6c" transform="translate(96.191406 0)"/>
     </g>
    </g>
    <g id="PathCollection_24">
     <g>
      <use xlink:href="#m3543a05c63" x="934.702237" y="143.064219" style="fill: #fdc8b3; fill-opacity: 0.8; stroke: #ffffff; stroke-opacity: 0.8; stroke-width: 0.5"/>
     </g>
    </g>
    <g id="text_22">
     <!-- B10BR -->
     <g transform="translate(950.902237 145.426719) scale(0.09 -0.09)">
      <use xlink:href="#DejaVuSans-42"/>
      <use xlink:href="#DejaVuSans-31" transform="translate(68.603516 0)"/>
      <use xlink:href="#DejaVuSans-30" transform="translate(132.226562 0)"/>
      <use xlink:href="#DejaVuSans-42" transform="translate(195.849609 0)"/>
      <use xlink:href="#DejaVuSans-52" transform="translate(264.453125 0)"/>
     </g>
    </g>
    <g id="PathCollection_25">
     <g>
      <use xlink:href="#ma5eeb011fe" x="934.702237" y="156.274531" style="fill: #d9d9d9; fill-opacity: 0.8; stroke: #ffffff; stroke-opacity: 0.8; stroke-width: 0.5"/>
     </g>
    </g>
    <g id="text_23">
     <!-- Cross -->
     <g transform="translate(950.902237 158.637031) scale(0.09 -0.09)">
      <use xlink:href="#DejaVuSans-43"/>
      <use xlink:href="#DejaVuSans-72" transform="translate(69.824219 0)"/>
      <use xlink:href="#DejaVuSans-6f" transform="translate(108.6875 0)"/>
      <use xlink:href="#DejaVuSans-73" transform="translate(169.869141 0)"/>
      <use xlink:href="#DejaVuSans-73" transform="translate(221.96875 0)"/>
     </g>
    </g>
   </g>
   <g id="LineCollection_1">
    <path d="M 91.82928 57.759909 
L 113.226796 57.759909 
" clip-path="url(#pfee7433db4)" style="fill: none; stroke: #b81c1c; stroke-width: 3"/>
   </g>
   <g id="LineCollection_2">
    <path d="M 131.949623 65.05133 
L 153.34714 65.05133 
" clip-path="url(#pfee7433db4)" style="fill: none; stroke: #1c5a8c; stroke-width: 3"/>
   </g>
   <g id="LineCollection_3">
    <path d="M 172.069967 52.612562 
L 193.467483 52.612562 
" clip-path="url(#pfee7433db4)" style="fill: none; stroke: #2e7d2e; stroke-width: 3"/>
   </g>
   <g id="LineCollection_4">
    <path d="M 225.563758 93.813896 
L 246.961274 93.813896 
" clip-path="url(#pfee7433db4)" style="fill: none; stroke: #b81c1c; stroke-width: 3"/>
   </g>
   <g id="LineCollection_5">
    <path d="M 265.684101 94.795943 
L 287.081618 94.795943 
" clip-path="url(#pfee7433db4)" style="fill: none; stroke: #1c5a8c; stroke-width: 3"/>
   </g>
   <g id="LineCollection_6">
    <path d="M 305.804445 102.6229 
L 327.201961 102.6229 
" clip-path="url(#pfee7433db4)" style="fill: none; stroke: #2e7d2e; stroke-width: 3"/>
   </g>
   <g id="LineCollection_7">
    <path d="M 359.298236 94.255573 
L 380.695753 94.255573 
" clip-path="url(#pfee7433db4)" style="fill: none; stroke: #b81c1c; stroke-width: 3"/>
   </g>
   <g id="LineCollection_8">
    <path d="M 399.41858 111.553943 
L 420.816096 111.553943 
" clip-path="url(#pfee7433db4)" style="fill: none; stroke: #1c5a8c; stroke-width: 3"/>
   </g>
   <g id="LineCollection_9">
    <path d="M 439.538923 84.495205 
L 460.93644 84.495205 
" clip-path="url(#pfee7433db4)" style="fill: none; stroke: #2e7d2e; stroke-width: 3"/>
   </g>
   <g id="LineCollection_10">
    <path d="M 493.032714 132.015115 
L 514.430231 132.015115 
" clip-path="url(#pfee7433db4)" style="fill: none; stroke: #8a5d9d; stroke-width: 3"/>
   </g>
   <g id="LineCollection_11">
    <path d="M 533.153058 149.426552 
L 554.550574 149.426552 
" clip-path="url(#pfee7433db4)" style="fill: none; stroke: #5a2d6d; stroke-width: 3"/>
   </g>
   <g id="LineCollection_12">
    <path d="M 573.273401 97.719804 
L 594.670918 97.719804 
" clip-path="url(#pfee7433db4)" style="fill: none; stroke: #cc7000; stroke-width: 3"/>
   </g>
   <g id="LineCollection_13">
    <path d="M 666.887536 109.294822 
L 688.285052 109.294822 
" clip-path="url(#pfee7433db4)" style="fill: none; stroke: #555555; stroke-width: 3"/>
   </g>
   <g id="LineCollection_14">
    <path d="M 760.501671 201.874024 
L 781.899187 201.874024 
" clip-path="url(#pfee7433db4)" style="fill: none; stroke: #d45a2a; stroke-width: 3"/>
   </g>
   <g id="LineCollection_15">
    <path d="M 800.622014 205.961983 
L 822.019531 205.961983 
" clip-path="url(#pfee7433db4)" style="fill: none; stroke: #2e8b7a; stroke-width: 3"/>
   </g>
   <g id="LineCollection_16">
    <path d="M 840.742358 209.264683 
L 862.139874 209.264683 
" clip-path="url(#pfee7433db4)" style="fill: none; stroke: #666666; stroke-width: 3"/>
   </g>
  </g>
 </g>
 <defs>
  <clipPath id="pfee7433db4">
   <rect x="53.31375" y="23.837812" width="847.341654" height="386.17241"/>
  </clipPath>
 </defs>
</svg>
