<?xml version="1.0" encoding="utf-8" standalone="no"?>
<!DOCTYPE svg PUBLIC "-//W3C//DTD SVG 1.1//EN"
  "http://www.w3.org/Graphics/SVG/1.1/DTD/svg11.dtd">
<svg xmlns:xlink="http://www.w3.org/1999/xlink" width="999.568049pt" height="496.047905pt" viewBox="0 0 999.568049 496.047905" xmlns="http://www.w3.org/2000/svg" version="1.1">
 <metadata>
  <rdf:RDF xmlns:dc="http://purl.org/dc/elements/1.1/" xmlns:cc="http://creativecommons.org/ns#" xmlns:rdf="http://www.w3.org/1999/02/22-rdf-syntax-ns#">
   <cc:Work>
    <dc:type rdf:resource="http://purl.org/dc/dcmitype/StillImage"/>
    <dc:date>2026-01-02T18:35:55.530983</dc:date>
    <dc:format>image/svg+xml</dc:format>
    <dc:creator>
     <cc:Agent>
      <dc:title>Matplotlib v3.10.0, https://matplotlib.org/</dc:title>
     </cc:Agent>
    </dc:creator>
   </cc:Work>
  </rdf:RDF>
 </metadata>
 <defs>
  <style type="text/css">*{stroke-linejoin: round; stroke-linecap: butt}</style>
 </defs>
 <g id="figure_1">
  <g id="patch_1">
   <path d="M 0 496.047905 
L 999.568049 496.047905 
L 999.568049 0 
L 0 0 
z
" style="fill: #ffffff"/>
  </g>
  <g id="axes_1">
   <g id="patch_2">
    <path d="M 53.31375 410.010222 
L 903.805404 410.010222 
L 903.805404 23.837812 
L 53.31375 23.837812 
z
" style="fill: #ffffff"/>
   </g>
   <g id="PathCollection_1">
    <defs>
     <path id="m49fb35d01e" d="M 0 3.535534 
C 0.937635 3.535534 1.836992 3.163008 2.5 2.5 
C 3.163008 1.836992 3.535534 0.937635 3.535534 0 
C 3.535534 -0.937635 3.163008 -1.836992 2.5 -2.5 
C 1.836992 -3.163008 0.937635 -3.535534 0 -3.535534 
C -0.937635 -3.535534 -1.836992 -3.163008 -2.5 -2.5 
C -3.163008 -1.836992 -3.535534 -0.937635 -3.535534 0 
C -3.535534 0.937635 -3.163008 1.836992 -2.5 2.5 
C -1.836992 3.163008 -0.937635 3.535534 0 3.535534 
z
" style="stroke: #ffffff; stroke-opacity: 0.8; stroke-width: 0.5"/>
    </defs>
    <g clip-path="url(#p829be2246f)">
     <use xlink:href="#m49fb35d01e" x="97.781165" y="96.87827" style="fill: #f4a5a5; fill-opacity: 0.8; stroke: #ffffff; stroke-opacity: 0.8; stroke-width: 0.5"/>
     <use xlink:href="#m49fb35d01e" x="108.016992" y="88.303629" style="fill: #f4a5a5; fill-opacity: 0.8; stroke: #ffffff; stroke-opacity: 0.8; stroke-width: 0.5"/>
     <use xlink:href="#m49fb35d01e" x="103.068952" y="83.530698" style="fill: #f4a5a5; fill-opacity: 0.8; stroke: #ffffff; stroke-opacity: 0.8; stroke-width: 0.5"/>
     <use xlink:href="#m49fb35d01e" x="101.763804" y="116.702827" style="fill: #f4a5a5; fill-opacity: 0.8; stroke: #ffffff; stroke-opacity: 0.8; stroke-width: 0.5"/>
     <use xlink:href="#m49fb35d01e" x="101.781447" y="121.381528" style="fill: #f4a5a5; fill-opacity: 0.8; stroke: #ffffff; stroke-opacity: 0.8; stroke-width: 0.5"/>
     <use xlink:href="#m49fb35d01e" x="100.061604" y="146.198247" style="fill: #f4a5a5; fill-opacity: 0.8; stroke: #ffffff; stroke-opacity: 0.8; stroke-width: 0.5"/>
    </g>
   </g>
   <g id="PathCollection_2">
    <defs>
     <path id="m4e5b1ca932" d="M 0 3.535534 
C 0.937635 3.535534 1.836992 3.163008 2.5 2.5 
C 3.163008 1.836992 3.535534 0.937635 3.535534 0 
C 3.535534 -0.937635 3.163008 -1.836992 2.5 -2.5 
C 1.836992 -3.163008 0.937635 -3.535534 0 -3.535534 
C -0.937635 -3.535534 -1.836992 -3.163008 -2.5 -2.5 
C -3.163008 -1.836992 -3.535534 -0.937635 -3.535534 0 
C -3.535534 0.937635 -3.163008 1.836992 -2.5 2.5 
C -1.836992 3.163008 -0.937635 3.535534 0 3.535534 
z
" style="stroke: #ffffff; stroke-opacity: 0.8; stroke-width: 0.5"/>
    </defs>
    <g clip-path="url(#p829be2246f)">
     <use xlink:href="#m4e5b1ca932" x="144.04256" y="92.770973" style="fill: #a5c8e4; fill-opacity: 0.8; stroke: #ffffff; stroke-opacity: 0.8; stroke-width: 0.5"/>
     <use xlink:href="#m4e5b1ca932" x="150.617713" y="53.898316" style="fill: #a5c8e4; fill-opacity: 0.8; stroke: #ffffff; stroke-opacity: 0.8; stroke-width: 0.5"/>
     <use xlink:href="#m4e5b1ca932" x="141.508846" y="82.293994" style="fill: #a5c8e4; fill-opacity: 0.8; stroke: #ffffff; stroke-opacity: 0.8; stroke-width: 0.5"/>
     <use xlink:href="#m4e5b1ca932" x="140.961169" y="91.256" style="fill: #a5c8e4; fill-opacity: 0.8; stroke: #ffffff; stroke-opacity: 0.8; stroke-width: 0.5"/>
     <use xlink:href="#m4e5b1ca932" x="138.491589" y="127.458527" style="fill: #a5c8e4; fill-opacity: 0.8; stroke: #ffffff; stroke-opacity: 0.8; stroke-width: 0.5"/>
     <use xlink:href="#m4e5b1ca932" x="144.4933" y="113.962697" style="fill: #a5c8e4; fill-opacity: 0.8; stroke: #ffffff; stroke-opacity: 0.8; stroke-width: 0.5"/>
    </g>
   </g>
   <g id="PathCollection_3">
    <defs>
     <path id="m691dbabb54" d="M 0 3.535534 
C 0.937635 3.535534 1.836992 3.163008 2.5 2.5 
C 3.163008 1.836992 3.535534 0.937635 3.535534 0 
C 3.535534 -0.937635 3.163008 -1.836992 2.5 -2.5 
C 1.836992 -3.163008 0.937635 -3.535534 0 -3.535534 
C -0.937635 -3.535534 -1.836992 -3.163008 -2.5 -2.5 
C -3.163008 -1.836992 -3.535534 -0.937635 -3.535534 0 
C -3.535534 0.937635 -3.163008 1.836992 -2.5 2.5 
C -1.836992 3.163008 -0.937635 3.535534 0 3.535534 
z
" style="stroke: #ffffff; stroke-opacity: 0.8; stroke-width: 0.5"/>
    </defs>
    <g clip-path="url(#p829be2246f)">
     <use xlink:href="#m691dbabb54" x="194.591118" y="66.339451" style="fill: #a5d6a5; fill-opacity: 0.8; stroke: #ffffff; stroke-opacity: 0.8; stroke-width: 0.5"/>
     <use xlink:href="#m691dbabb54" x="186.769491" y="62.793561" style="fill: #a5d6a5; fill-opacity: 0.8; stroke: #ffffff; stroke-opacity: 0.8; stroke-width: 0.5"/>
     <use xlink:href="#m691dbabb54" x="182.595098" y="68.896757" style="fill: #a5d6a5; fill-opacity: 0.8; stroke: #ffffff; stroke-opacity: 0.8; stroke-width: 0.5"/>
     <use xlink:href="#m691dbabb54" x="179.749162" y="72.504997" style="fill: #a5d6a5; fill-opacity: 0.8; stroke: #ffffff; stroke-opacity: 0.8; stroke-width: 0.5"/>
     <use xlink:href="#m691dbabb54" x="184.943876" y="85.469333" style="fill: #a5d6a5; fill-opacity: 0.8; stroke: #ffffff; stroke-opacity: 0.8; stroke-width: 0.5"/>
     <use xlink:href="#m691dbabb54" x="180.494818" y="109.88182" style="fill: #a5d6a5; fill-opacity: 0.8; stroke: #ffffff; stroke-opacity: 0.8; stroke-width: 0.5"/>
     <use xlink:href="#m691dbabb54" x="188.165672" y="116.547051" style="fill: #a5d6a5; fill-opacity: 0.8; stroke: #ffffff; stroke-opacity: 0.8; stroke-width: 0.5"/>
     <use xlink:href="#m691dbabb54" x="181.507935" y="82.534214" style="fill: #a5d6a5; fill-opacity: 0.8; stroke: #ffffff; stroke-opacity: 0.8; stroke-width: 0.5"/>
     <use xlink:href="#m691dbabb54" x="181.825554" y="93.059859" style="fill: #a5d6a5; fill-opacity: 0.8; stroke: #ffffff; stroke-opacity: 0.8; stroke-width: 0.5"/>
     <use xlink:href="#m691dbabb54" x="181.845636" y="54.185019" style="fill: #a5d6a5; fill-opacity: 0.8; stroke: #ffffff; stroke-opacity: 0.8; stroke-width: 0.5"/>
     <use xlink:href="#m691dbabb54" x="184.11622" y="41.391104" style="fill: #a5d6a5; fill-opacity: 0.8; stroke: #ffffff; stroke-opacity: 0.8; stroke-width: 0.5"/>
     <use xlink:href="#m691dbabb54" x="181.238236" y="72.991317" style="fill: #a5d6a5; fill-opacity: 0.8; stroke: #ffffff; stroke-opacity: 0.8; stroke-width: 0.5"/>
     <use xlink:href="#m691dbabb54" x="187.357308" y="103.732449" style="fill: #a5d6a5; fill-opacity: 0.8; stroke: #ffffff; stroke-opacity: 0.8; stroke-width: 0.5"/>
     <use xlink:href="#m691dbabb54" x="177.058947" y="129.591239" style="fill: #a5d6a5; fill-opacity: 0.8; stroke: #ffffff; stroke-opacity: 0.8; stroke-width: 0.5"/>
     <use xlink:href="#m691dbabb54" x="183.196716" y="84.860636" style="fill: #a5d6a5; fill-opacity: 0.8; stroke: #ffffff; stroke-opacity: 0.8; stroke-width: 0.5"/>
    </g>
   </g>
   <g id="PathCollection_4">
    <g clip-path="url(#p829be2246f)">
     <use xlink:href="#m49fb35d01e" x="237.996987" y="115.606738" style="fill: #f4a5a5; fill-opacity: 0.8; stroke: #ffffff; stroke-opacity: 0.8; stroke-width: 0.5"/>
     <use xlink:href="#m49fb35d01e" x="234.581502" y="164.73418" style="fill: #f4a5a5; fill-opacity: 0.8; stroke: #ffffff; stroke-opacity: 0.8; stroke-width: 0.5"/>
     <use xlink:href="#m49fb35d01e" x="237.719572" y="153.500219" style="fill: #f4a5a5; fill-opacity: 0.8; stroke: #ffffff; stroke-opacity: 0.8; stroke-width: 0.5"/>
     <use xlink:href="#m49fb35d01e" x="244.24169" y="170.192542" style="fill: #f4a5a5; fill-opacity: 0.8; stroke: #ffffff; stroke-opacity: 0.8; stroke-width: 0.5"/>
     <use xlink:href="#m49fb35d01e" x="234.971006" y="134.707847" style="fill: #f4a5a5; fill-opacity: 0.8; stroke: #ffffff; stroke-opacity: 0.8; stroke-width: 0.5"/>
     <use xlink:href="#m49fb35d01e" x="235.017555" y="158.60894" style="fill: #f4a5a5; fill-opacity: 0.8; stroke: #ffffff; stroke-opacity: 0.8; stroke-width: 0.5"/>
    </g>
   </g>
   <g id="PathCollection_5">
    <g clip-path="url(#p829be2246f)">
     <use xlink:href="#m4e5b1ca932" x="274.336157" y="187.258819" style="fill: #a5c8e4; fill-opacity: 0.8; stroke: #ffffff; stroke-opacity: 0.8; stroke-width: 0.5"/>
     <use xlink:href="#m4e5b1ca932" x="273.911158" y="149.580082" style="fill: #a5c8e4; fill-opacity: 0.8; stroke: #ffffff; stroke-opacity: 0.8; stroke-width: 0.5"/>
     <use xlink:href="#m4e5b1ca932" x="273.045449" y="170.161226" style="fill: #a5c8e4; fill-opacity: 0.8; stroke: #ffffff; stroke-opacity: 0.8; stroke-width: 0.5"/>
     <use xlink:href="#m4e5b1ca932" x="279.940284" y="154.370206" style="fill: #a5c8e4; fill-opacity: 0.8; stroke: #ffffff; stroke-opacity: 0.8; stroke-width: 0.5"/>
     <use xlink:href="#m4e5b1ca932" x="280.166236" y="133.800548" style="fill: #a5c8e4; fill-opacity: 0.8; stroke: #ffffff; stroke-opacity: 0.8; stroke-width: 0.5"/>
     <use xlink:href="#m4e5b1ca932" x="276.835675" y="145.774958" style="fill: #a5c8e4; fill-opacity: 0.8; stroke: #ffffff; stroke-opacity: 0.8; stroke-width: 0.5"/>
    </g>
   </g>
   <g id="PathCollection_6">
    <g clip-path="url(#p829be2246f)">
     <use xlink:href="#m691dbabb54" x="316.497315" y="139.218274" style="fill: #a5d6a5; fill-opacity: 0.8; stroke: #ffffff; stroke-opacity: 0.8; stroke-width: 0.5"/>
     <use xlink:href="#m691dbabb54" x="326.173106" y="98.295366" style="fill: #a5d6a5; fill-opacity: 0.8; stroke: #ffffff; stroke-opacity: 0.8; stroke-width: 0.5"/>
     <use xlink:href="#m691dbabb54" x="317.94979" y="392.456931" style="fill: #a5d6a5; fill-opacity: 0.8; stroke: #ffffff; stroke-opacity: 0.8; stroke-width: 0.5"/>
     <use xlink:href="#m691dbabb54" x="315.23119" y="392.456931" style="fill: #a5d6a5; fill-opacity: 0.8; stroke: #ffffff; stroke-opacity: 0.8; stroke-width: 0.5"/>
     <use xlink:href="#m691dbabb54" x="313.83375" y="392.456931" style="fill: #a5d6a5; fill-opacity: 0.8; stroke: #ffffff; stroke-opacity: 0.8; stroke-width: 0.5"/>
     <use xlink:href="#m691dbabb54" x="307.332307" y="392.456931" style="fill: #a5d6a5; fill-opacity: 0.8; stroke: #ffffff; stroke-opacity: 0.8; stroke-width: 0.5"/>
     <use xlink:href="#m691dbabb54" x="312.183945" y="392.456931" style="fill: #a5d6a5; fill-opacity: 0.8; stroke: #ffffff; stroke-opacity: 0.8; stroke-width: 0.5"/>
     <use xlink:href="#m691dbabb54" x="327.251652" y="392.456931" style="fill: #a5d6a5; fill-opacity: 0.8; stroke: #ffffff; stroke-opacity: 0.8; stroke-width: 0.5"/>
     <use xlink:href="#m691dbabb54" x="315.645327" y="392.456931" style="fill: #a5d6a5; fill-opacity: 0.8; stroke: #ffffff; stroke-opacity: 0.8; stroke-width: 0.5"/>
     <use xlink:href="#m691dbabb54" x="315.731074" y="392.456931" style="fill: #a5d6a5; fill-opacity: 0.8; stroke: #ffffff; stroke-opacity: 0.8; stroke-width: 0.5"/>
     <use xlink:href="#m691dbabb54" x="323.976955" y="392.456931" style="fill: #a5d6a5; fill-opacity: 0.8; stroke: #ffffff; stroke-opacity: 0.8; stroke-width: 0.5"/>
     <use xlink:href="#m691dbabb54" x="312.748022" y="392.456931" style="fill: #a5d6a5; fill-opacity: 0.8; stroke: #ffffff; stroke-opacity: 0.8; stroke-width: 0.5"/>
     <use xlink:href="#m691dbabb54" x="312.675816" y="392.456931" style="fill: #a5d6a5; fill-opacity: 0.8; stroke: #ffffff; stroke-opacity: 0.8; stroke-width: 0.5"/>
     <use xlink:href="#m691dbabb54" x="316.573743" y="392.456931" style="fill: #a5d6a5; fill-opacity: 0.8; stroke: #ffffff; stroke-opacity: 0.8; stroke-width: 0.5"/>
     <use xlink:href="#m691dbabb54" x="323.857977" y="392.456931" style="fill: #a5d6a5; fill-opacity: 0.8; stroke: #ffffff; stroke-opacity: 0.8; stroke-width: 0.5"/>
     <use xlink:href="#m691dbabb54" x="309.771492" y="392.456931" style="fill: #a5d6a5; fill-opacity: 0.8; stroke: #ffffff; stroke-opacity: 0.8; stroke-width: 0.5"/>
     <use xlink:href="#m691dbabb54" x="314.680552" y="392.456931" style="fill: #a5d6a5; fill-opacity: 0.8; stroke: #ffffff; stroke-opacity: 0.8; stroke-width: 0.5"/>
     <use xlink:href="#m691dbabb54" x="316.960151" y="392.456931" style="fill: #a5d6a5; fill-opacity: 0.8; stroke: #ffffff; stroke-opacity: 0.8; stroke-width: 0.5"/>
     <use xlink:href="#m691dbabb54" x="319.160651" y="392.456931" style="fill: #a5d6a5; fill-opacity: 0.8; stroke: #ffffff; stroke-opacity: 0.8; stroke-width: 0.5"/>
     <use xlink:href="#m691dbabb54" x="317.926717" y="392.456931" style="fill: #a5d6a5; fill-opacity: 0.8; stroke: #ffffff; stroke-opacity: 0.8; stroke-width: 0.5"/>
     <use xlink:href="#m691dbabb54" x="327.437107" y="392.456931" style="fill: #a5d6a5; fill-opacity: 0.8; stroke: #ffffff; stroke-opacity: 0.8; stroke-width: 0.5"/>
     <use xlink:href="#m691dbabb54" x="320.635144" y="119.964901" style="fill: #a5d6a5; fill-opacity: 0.8; stroke: #ffffff; stroke-opacity: 0.8; stroke-width: 0.5"/>
     <use xlink:href="#m691dbabb54" x="312.736239" y="173.094146" style="fill: #a5d6a5; fill-opacity: 0.8; stroke: #ffffff; stroke-opacity: 0.8; stroke-width: 0.5"/>
     <use xlink:href="#m691dbabb54" x="321.429758" y="160.831827" style="fill: #a5d6a5; fill-opacity: 0.8; stroke: #ffffff; stroke-opacity: 0.8; stroke-width: 0.5"/>
     <use xlink:href="#m691dbabb54" x="313.051859" y="171.950297" style="fill: #a5d6a5; fill-opacity: 0.8; stroke: #ffffff; stroke-opacity: 0.8; stroke-width: 0.5"/>
     <use xlink:href="#m691dbabb54" x="318.653092" y="134.840992" style="fill: #a5d6a5; fill-opacity: 0.8; stroke: #ffffff; stroke-opacity: 0.8; stroke-width: 0.5"/>
     <use xlink:href="#m691dbabb54" x="313.021103" y="155.205854" style="fill: #a5d6a5; fill-opacity: 0.8; stroke: #ffffff; stroke-opacity: 0.8; stroke-width: 0.5"/>
     <use xlink:href="#m691dbabb54" x="315.930375" y="153.83151" style="fill: #a5d6a5; fill-opacity: 0.8; stroke: #ffffff; stroke-opacity: 0.8; stroke-width: 0.5"/>
     <use xlink:href="#m691dbabb54" x="315.405384" y="174.640935" style="fill: #a5d6a5; fill-opacity: 0.8; stroke: #ffffff; stroke-opacity: 0.8; stroke-width: 0.5"/>
     <use xlink:href="#m691dbabb54" x="313.476432" y="157.067987" style="fill: #a5d6a5; fill-opacity: 0.8; stroke: #ffffff; stroke-opacity: 0.8; stroke-width: 0.5"/>
     <use xlink:href="#m691dbabb54" x="316.730584" y="154.839262" style="fill: #a5d6a5; fill-opacity: 0.8; stroke: #ffffff; stroke-opacity: 0.8; stroke-width: 0.5"/>
     <use xlink:href="#m691dbabb54" x="325.538362" y="192.679388" style="fill: #a5d6a5; fill-opacity: 0.8; stroke: #ffffff; stroke-opacity: 0.8; stroke-width: 0.5"/>
     <use xlink:href="#m691dbabb54" x="314.735667" y="161.453148" style="fill: #a5d6a5; fill-opacity: 0.8; stroke: #ffffff; stroke-opacity: 0.8; stroke-width: 0.5"/>
     <use xlink:href="#m691dbabb54" x="310.721026" y="158.449899" style="fill: #a5d6a5; fill-opacity: 0.8; stroke: #ffffff; stroke-opacity: 0.8; stroke-width: 0.5"/>
     <use xlink:href="#m691dbabb54" x="311.668412" y="124.021579" style="fill: #a5d6a5; fill-opacity: 0.8; stroke: #ffffff; stroke-opacity: 0.8; stroke-width: 0.5"/>
     <use xlink:href="#m691dbabb54" x="314.149865" y="168.528304" style="fill: #a5d6a5; fill-opacity: 0.8; stroke: #ffffff; stroke-opacity: 0.8; stroke-width: 0.5"/>
     <use xlink:href="#m691dbabb54" x="319.824488" y="144.48842" style="fill: #a5d6a5; fill-opacity: 0.8; stroke: #ffffff; stroke-opacity: 0.8; stroke-width: 0.5"/>
     <use xlink:href="#m691dbabb54" x="308.74031" y="136.98159" style="fill: #a5d6a5; fill-opacity: 0.8; stroke: #ffffff; stroke-opacity: 0.8; stroke-width: 0.5"/>
     <use xlink:href="#m691dbabb54" x="310.99921" y="392.456931" style="fill: #a5d6a5; fill-opacity: 0.8; stroke: #ffffff; stroke-opacity: 0.8; stroke-width: 0.5"/>
     <use xlink:href="#m691dbabb54" x="311.218478" y="392.456931" style="fill: #a5d6a5; fill-opacity: 0.8; stroke: #ffffff; stroke-opacity: 0.8; stroke-width: 0.5"/>
     <use xlink:href="#m691dbabb54" x="321.308263" y="392.456931" style="fill: #a5d6a5; fill-opacity: 0.8; stroke: #ffffff; stroke-opacity: 0.8; stroke-width: 0.5"/>
     <use xlink:href="#m691dbabb54" x="315.992855" y="129.91927" style="fill: #a5d6a5; fill-opacity: 0.8; stroke: #ffffff; stroke-opacity: 0.8; stroke-width: 0.5"/>
     <use xlink:href="#m691dbabb54" x="320.430953" y="392.456931" style="fill: #a5d6a5; fill-opacity: 0.8; stroke: #ffffff; stroke-opacity: 0.8; stroke-width: 0.5"/>
     <use xlink:href="#m691dbabb54" x="323.466503" y="392.456931" style="fill: #a5d6a5; fill-opacity: 0.8; stroke: #ffffff; stroke-opacity: 0.8; stroke-width: 0.5"/>
     <use xlink:href="#m691dbabb54" x="320.776174" y="392.456931" style="fill: #a5d6a5; fill-opacity: 0.8; stroke: #ffffff; stroke-opacity: 0.8; stroke-width: 0.5"/>
     <use xlink:href="#m691dbabb54" x="321.001759" y="392.456931" style="fill: #a5d6a5; fill-opacity: 0.8; stroke: #ffffff; stroke-opacity: 0.8; stroke-width: 0.5"/>
     <use xlink:href="#m691dbabb54" x="313.74974" y="392.456931" style="fill: #a5d6a5; fill-opacity: 0.8; stroke: #ffffff; stroke-opacity: 0.8; stroke-width: 0.5"/>
     <use xlink:href="#m691dbabb54" x="320.052348" y="392.456931" style="fill: #a5d6a5; fill-opacity: 0.8; stroke: #ffffff; stroke-opacity: 0.8; stroke-width: 0.5"/>
     <use xlink:href="#m691dbabb54" x="309.337205" y="392.456931" style="fill: #a5d6a5; fill-opacity: 0.8; stroke: #ffffff; stroke-opacity: 0.8; stroke-width: 0.5"/>
     <use xlink:href="#m691dbabb54" x="313.917124" y="77.446655" style="fill: #a5d6a5; fill-opacity: 0.8; stroke: #ffffff; stroke-opacity: 0.8; stroke-width: 0.5"/>
     <use xlink:href="#m691dbabb54" x="312.788678" y="392.456931" style="fill: #a5d6a5; fill-opacity: 0.8; stroke: #ffffff; stroke-opacity: 0.8; stroke-width: 0.5"/>
    </g>
   </g>
   <g id="PathCollection_7">
    <g clip-path="url(#p829be2246f)">
     <use xlink:href="#m49fb35d01e" x="369.324168" y="392.456931" style="fill: #f4a5a5; fill-opacity: 0.8; stroke: #ffffff; stroke-opacity: 0.8; stroke-width: 0.5"/>
    </g>
   </g>
   <g id="PathCollection_8">
    <g clip-path="url(#p829be2246f)">
     <use xlink:href="#m4e5b1ca932" x="411.689547" y="392.456931" style="fill: #a5c8e4; fill-opacity: 0.8; stroke: #ffffff; stroke-opacity: 0.8; stroke-width: 0.5"/>
    </g>
   </g>
   <g id="PathCollection_9">
    <g clip-path="url(#p829be2246f)">
     <use xlink:href="#m691dbabb54" x="454.278532" y="148.150896" style="fill: #a5d6a5; fill-opacity: 0.8; stroke: #ffffff; stroke-opacity: 0.8; stroke-width: 0.5"/>
    </g>
   </g>
   <g id="PathCollection_10">
    <defs>
     <path id="m5102bdf169" d="M 0 3.535534 
C 0.937635 3.535534 1.836992 3.163008 2.5 2.5 
C 3.163008 1.836992 3.535534 0.937635 3.535534 0 
C 3.535534 -0.937635 3.163008 -1.836992 2.5 -2.5 
C 1.836992 -3.163008 0.937635 -3.535534 0 -3.535534 
C -0.937635 -3.535534 -1.836992 -3.163008 -2.5 -2.5 
C -3.163008 -1.836992 -3.535534 -0.937635 -3.535534 0 
C -3.535534 0.937635 -3.163008 1.836992 -2.5 2.5 
C -1.836992 3.163008 -0.937635 3.535534 0 3.535534 
z
" style="stroke: #ffffff; stroke-opacity: 0.8; stroke-width: 0.5"/>
    </defs>
    <g clip-path="url(#p829be2246f)">
     <use xlink:href="#m5102bdf169" x="507.31994" y="162.112794" style="fill: #d4b8e0; fill-opacity: 0.8; stroke: #ffffff; stroke-opacity: 0.8; stroke-width: 0.5"/>
     <use xlink:href="#m5102bdf169" x="504.617537" y="196.248208" style="fill: #d4b8e0; fill-opacity: 0.8; stroke: #ffffff; stroke-opacity: 0.8; stroke-width: 0.5"/>
     <use xlink:href="#m5102bdf169" x="505.332636" y="233.484706" style="fill: #d4b8e0; fill-opacity: 0.8; stroke: #ffffff; stroke-opacity: 0.8; stroke-width: 0.5"/>
    </g>
   </g>
   <g id="PathCollection_11">
    <defs>
     <path id="m99ddc166c8" d="M 0 3.535534 
C 0.937635 3.535534 1.836992 3.163008 2.5 2.5 
C 3.163008 1.836992 3.535534 0.937635 3.535534 0 
C 3.535534 -0.937635 3.163008 -1.836992 2.5 -2.5 
C 1.836992 -3.163008 0.937635 -3.535534 0 -3.535534 
C -0.937635 -3.535534 -1.836992 -3.163008 -2.5 -2.5 
C -3.163008 -1.836992 -3.535534 -0.937635 -3.535534 0 
C -3.535534 0.937635 -3.163008 1.836992 -2.5 2.5 
C -1.836992 3.163008 -0.937635 3.535534 0 3.535534 
z
" style="stroke: #ffffff; stroke-opacity: 0.8; stroke-width: 0.5"/>
    </defs>
    <g clip-path="url(#p829be2246f)">
     <use xlink:href="#m99ddc166c8" x="584.219948" y="134.388736" style="fill: #d4b8a0; fill-opacity: 0.8; stroke: #ffffff; stroke-opacity: 0.8; stroke-width: 0.5"/>
     <use xlink:href="#m99ddc166c8" x="587.211154" y="162.24806" style="fill: #d4b8a0; fill-opacity: 0.8; stroke: #ffffff; stroke-opacity: 0.8; stroke-width: 0.5"/>
     <use xlink:href="#m99ddc166c8" x="590.030893" y="128.97838" style="fill: #d4b8a0; fill-opacity: 0.8; stroke: #ffffff; stroke-opacity: 0.8; stroke-width: 0.5"/>
    </g>
   </g>
   <g id="PathCollection_12">
    <defs>
     <path id="m4e8ad58ff8" d="M 0 3.535534 
C 0.937635 3.535534 1.836992 3.163008 2.5 2.5 
C 3.163008 1.836992 3.535534 0.937635 3.535534 0 
C 3.535534 -0.937635 3.163008 -1.836992 2.5 -2.5 
C 1.836992 -3.163008 0.937635 -3.535534 0 -3.535534 
C -0.937635 -3.535534 -1.836992 -3.163008 -2.5 -2.5 
C -3.163008 -1.836992 -3.535534 -0.937635 -3.535534 0 
C -3.535534 0.937635 -3.163008 1.836992 -2.5 2.5 
C -1.836992 3.163008 -0.937635 3.535534 0 3.535534 
z
" style="stroke: #ffffff; stroke-opacity: 0.8; stroke-width: 0.5"/>
    </defs>
    <g clip-path="url(#p829be2246f)">
     <use xlink:href="#m4e8ad58ff8" x="676.742422" y="162.112794" style="fill: #c9c9c9; fill-opacity: 0.8; stroke: #ffffff; stroke-opacity: 0.8; stroke-width: 0.5"/>
     <use xlink:href="#m4e8ad58ff8" x="676.647647" y="196.248208" style="fill: #c9c9c9; fill-opacity: 0.8; stroke: #ffffff; stroke-opacity: 0.8; stroke-width: 0.5"/>
     <use xlink:href="#m4e8ad58ff8" x="678.488162" y="392.456931" style="fill: #c9c9c9; fill-opacity: 0.8; stroke: #ffffff; stroke-opacity: 0.8; stroke-width: 0.5"/>
     <use xlink:href="#m4e8ad58ff8" x="677.226137" y="392.456931" style="fill: #c9c9c9; fill-opacity: 0.8; stroke: #ffffff; stroke-opacity: 0.8; stroke-width: 0.5"/>
     <use xlink:href="#m4e8ad58ff8" x="680.147939" y="240.429439" style="fill: #c9c9c9; fill-opacity: 0.8; stroke: #ffffff; stroke-opacity: 0.8; stroke-width: 0.5"/>
     <use xlink:href="#m4e8ad58ff8" x="688.262004" y="233.484706" style="fill: #c9c9c9; fill-opacity: 0.8; stroke: #ffffff; stroke-opacity: 0.8; stroke-width: 0.5"/>
     <use xlink:href="#m4e8ad58ff8" x="672.25397" y="392.456931" style="fill: #c9c9c9; fill-opacity: 0.8; stroke: #ffffff; stroke-opacity: 0.8; stroke-width: 0.5"/>
     <use xlink:href="#m4e8ad58ff8" x="682.688047" y="392.456931" style="fill: #c9c9c9; fill-opacity: 0.8; stroke: #ffffff; stroke-opacity: 0.8; stroke-width: 0.5"/>
     <use xlink:href="#m4e8ad58ff8" x="683.171232" y="261.407318" style="fill: #c9c9c9; fill-opacity: 0.8; stroke: #ffffff; stroke-opacity: 0.8; stroke-width: 0.5"/>
     <use xlink:href="#m4e8ad58ff8" x="681.093227" y="196.488825" style="fill: #c9c9c9; fill-opacity: 0.8; stroke: #ffffff; stroke-opacity: 0.8; stroke-width: 0.5"/>
     <use xlink:href="#m4e8ad58ff8" x="678.014982" y="199.743841" style="fill: #c9c9c9; fill-opacity: 0.8; stroke: #ffffff; stroke-opacity: 0.8; stroke-width: 0.5"/>
     <use xlink:href="#m4e8ad58ff8" x="677.253772" y="148.150896" style="fill: #c9c9c9; fill-opacity: 0.8; stroke: #ffffff; stroke-opacity: 0.8; stroke-width: 0.5"/>
     <use xlink:href="#m4e8ad58ff8" x="683.131587" y="134.388736" style="fill: #c9c9c9; fill-opacity: 0.8; stroke: #ffffff; stroke-opacity: 0.8; stroke-width: 0.5"/>
     <use xlink:href="#m4e8ad58ff8" x="675.297612" y="162.24806" style="fill: #c9c9c9; fill-opacity: 0.8; stroke: #ffffff; stroke-opacity: 0.8; stroke-width: 0.5"/>
     <use xlink:href="#m4e8ad58ff8" x="681.746265" y="128.97838" style="fill: #c9c9c9; fill-opacity: 0.8; stroke: #ffffff; stroke-opacity: 0.8; stroke-width: 0.5"/>
    </g>
   </g>
   <g id="PathCollection_13">
    <defs>
     <path id="m70e94b558c" d="M 0 3.535534 
C 0.937635 3.535534 1.836992 3.163008 2.5 2.5 
C 3.163008 1.836992 3.535534 0.937635 3.535534 0 
C 3.535534 -0.937635 3.163008 -1.836992 2.5 -2.5 
C 1.836992 -3.163008 0.937635 -3.535534 0 -3.535534 
C -0.937635 -3.535534 -1.836992 -3.163008 -2.5 -2.5 
C -3.163008 -1.836992 -3.535534 -0.937635 -3.535534 0 
C -3.535534 0.937635 -3.163008 1.836992 -2.5 2.5 
C -1.836992 3.163008 -0.937635 3.535534 0 3.535534 
z
" style="stroke: #ffffff; stroke-opacity: 0.8; stroke-width: 0.5"/>
    </defs>
    <g clip-path="url(#p829be2246f)">
     <use xlink:href="#m70e94b558c" x="770.104148" y="214.881393" style="fill: #fdc8b3; fill-opacity: 0.8; stroke: #ffffff; stroke-opacity: 0.8; stroke-width: 0.5"/>
    </g>
   </g>
   <g id="PathCollection_14">
    <defs>
     <path id="m78376a0647" d="M 0 3.535534 
C 0.937635 3.535534 1.836992 3.163008 2.5 2.5 
C 3.163008 1.836992 3.535534 0.937635 3.535534 0 
C 3.535534 -0.937635 3.163008 -1.836992 2.5 -2.5 
C 1.836992 -3.163008 0.937635 -3.535534 0 -3.535534 
C -0.937635 -3.535534 -1.836992 -3.163008 -2.5 -2.5 
C -3.163008 -1.836992 -3.535534 -0.937635 -3.535534 0 
C -3.535534 0.937635 -3.163008 1.836992 -2.5 2.5 
C -1.836992 3.163008 -0.937635 3.535534 0 3.535534 
z
" style="stroke: #ffffff; stroke-opacity: 0.8; stroke-width: 0.5"/>
    </defs>
    <g clip-path="url(#p829be2246f)">
     <use xlink:href="#m78376a0647" x="812.63393" y="227.481351" style="fill: #c5cee8; fill-opacity: 0.8; stroke: #ffffff; stroke-opacity: 0.8; stroke-width: 0.5"/>
    </g>
   </g>
   <g id="PathCollection_15">
    <defs>
     <path id="me2888f237d" d="M 0 3.535534 
C 0.937635 3.535534 1.836992 3.163008 2.5 2.5 
C 3.163008 1.836992 3.535534 0.937635 3.535534 0 
C 3.535534 -0.937635 3.163008 -1.836992 2.5 -2.5 
C 1.836992 -3.163008 0.937635 -3.535534 0 -3.535534 
C -0.937635 -3.535534 -1.836992 -3.163008 -2.5 -2.5 
C -3.163008 -1.836992 -3.535534 -0.937635 -3.535534 0 
C -3.535534 0.937635 -3.163008 1.836992 -2.5 2.5 
C -1.836992 3.163008 -0.937635 3.535534 0 3.535534 
z
" style="stroke: #ffffff; stroke-opacity: 0.8; stroke-width: 0.5"/>
    </defs>
    <g clip-path="url(#p829be2246f)">
     <use xlink:href="#me2888f237d" x="845.28353" y="235.707381" style="fill: #d9d9d9; fill-opacity: 0.8; stroke: #ffffff; stroke-opacity: 0.8; stroke-width: 0.5"/>
    </g>
   </g>
   <g id="matplotlib.axis_1">
    <g id="xtick_1">
     <g id="line2d_1">
      <defs>
       <path id="m465aaa2a87" d="M 0 0 
L 0 3.5 
" style="stroke: #000000; stroke-width: 0.8"/>
      </defs>
      <g>
       <use xlink:href="#m465aaa2a87" x="142.980484" y="410.010222" style="stroke: #000000; stroke-width: 0.8"/>
      </g>
     </g>
     <g id="text_1">
      <!-- L1: within sample -->
      <g transform="translate(69.418101 473.908184) rotate(-35) scale(0.1 -0.1)">
       <defs>
        <path id="DejaVuSans-4c" d="M 628 4666 
L 1259 4666 
L 1259 531 
L 3531 531 
L 3531 0 
L 628 0 
L 628 4666 
z
" transform="scale(0.015625)"/>
        <path id="DejaVuSans-31" d="M 794 531 
L 1825 531 
L 1825 4091 
L 703 3866 
L 703 4441 
L 1819 4666 
L 2450 4666 
L 2450 531 
L 3481 531 
L 3481 0 
L 794 0 
L 794 531 
z
" transform="scale(0.015625)"/>
        <path id="DejaVuSans-3a" d="M 750 794 
L 1409 794 
L 1409 0 
L 750 0 
L 750 794 
z
M 750 3309 
L 1409 3309 
L 1409 2516 
L 750 2516 
L 750 3309 
z
" transform="scale(0.015625)"/>
        <path id="DejaVuSans-20" transform="scale(0.015625)"/>
        <path id="DejaVuSans-77" d="M 269 3500 
L 844 3500 
L 1563 769 
L 2278 3500 
L 2956 3500 
L 3675 769 
L 4391 3500 
L 4966 3500 
L 4050 0 
L 3372 0 
L 2619 2869 
L 1863 0 
L 1184 0 
L 269 3500 
z
" transform="scale(0.015625)"/>
        <path id="DejaVuSans-69" d="M 603 3500 
L 1178 3500 
L 1178 0 
L 603 0 
L 603 3500 
z
M 603 4863 
L 1178 4863 
L 1178 4134 
L 603 4134 
L 603 4863 
z
" transform="scale(0.015625)"/>
        <path id="DejaVuSans-74" d="M 1172 4494 
L 1172 3500 
L 2356 3500 
L 2356 3053 
L 1172 3053 
L 1172 1153 
Q 1172 725 1289 603 
Q 1406 481 1766 481 
L 2356 481 
L 2356 0 
L 1766 0 
Q 1100 0 847 248 
Q 594 497 594 1153 
L 594 3053 
L 172 3053 
L 172 3500 
L 594 3500 
L 594 4494 
L 1172 4494 
z
" transform="scale(0.015625)"/>
        <path id="DejaVuSans-68" d="M 3513 2113 
L 3513 0 
L 2938 0 
L 2938 2094 
Q 2938 2591 2744 2837 
Q 2550 3084 2163 3084 
Q 1697 3084 1428 2787 
Q 1159 2491 1159 1978 
L 1159 0 
L 581 0 
L 581 4863 
L 1159 4863 
L 1159 2956 
Q 1366 3272 1645 3428 
Q 1925 3584 2291 3584 
Q 2894 3584 3203 3211 
Q 3513 2838 3513 2113 
z
" transform="scale(0.015625)"/>
        <path id="DejaVuSans-6e" d="M 3513 2113 
L 3513 0 
L 2938 0 
L 2938 2094 
Q 2938 2591 2744 2837 
Q 2550 3084 2163 3084 
Q 1697 3084 1428 2787 
Q 1159 2491 1159 1978 
L 1159 0 
L 581 0 
L 581 3500 
L 1159 3500 
L 1159 2956 
Q 1366 3272 1645 3428 
Q 1925 3584 2291 3584 
Q 2894 3584 3203 3211 
Q 3513 2838 3513 2113 
z
" transform="scale(0.015625)"/>
        <path id="DejaVuSans-73" d="M 2834 3397 
L 2834 2853 
Q 2591 2978 2328 3040 
Q 2066 3103 1784 3103 
Q 1356 3103 1142 2972 
Q 928 2841 928 2578 
Q 928 2378 1081 2264 
Q 1234 2150 1697 2047 
L 1894 2003 
Q 2506 1872 2764 1633 
Q 3022 1394 3022 966 
Q 3022 478 2636 193 
Q 2250 -91 1575 -91 
Q 1294 -91 989 -36 
Q 684 19 347 128 
L 347 722 
Q 666 556 975 473 
Q 1284 391 1588 391 
Q 1994 391 2212 530 
Q 2431 669 2431 922 
Q 2431 1156 2273 1281 
Q 2116 1406 1581 1522 
L 1381 1569 
Q 847 1681 609 1914 
Q 372 2147 372 2553 
Q 372 3047 722 3315 
Q 1072 3584 1716 3584 
Q 2034 3584 2315 3537 
Q 2597 3491 2834 3397 
z
" transform="scale(0.015625)"/>
        <path id="DejaVuSans-61" d="M 2194 1759 
Q 1497 1759 1228 1600 
Q 959 1441 959 1056 
Q 959 750 1161 570 
Q 1363 391 1709 391 
Q 2188 391 2477 730 
Q 2766 1069 2766 1631 
L 2766 1759 
L 2194 1759 
z
M 3341 1997 
L 3341 0 
L 2766 0 
L 2766 531 
Q 2569 213 2275 61 
Q 1981 -91 1556 -91 
Q 1019 -91 701 211 
Q 384 513 384 1019 
Q 384 1609 779 1909 
Q 1175 2209 1959 2209 
L 2766 2209 
L 2766 2266 
Q 2766 2663 2505 2880 
Q 2244 3097 1772 3097 
Q 1472 3097 1187 3025 
Q 903 2953 641 2809 
L 641 3341 
Q 956 3463 1253 3523 
Q 1550 3584 1831 3584 
Q 2591 3584 2966 3190 
Q 3341 2797 3341 1997 
z
" transform="scale(0.015625)"/>
        <path id="DejaVuSans-6d" d="M 3328 2828 
Q 3544 3216 3844 3400 
Q 4144 3584 4550 3584 
Q 5097 3584 5394 3201 
Q 5691 2819 5691 2113 
L 5691 0 
L 5113 0 
L 5113 2094 
Q 5113 2597 4934 2840 
Q 4756 3084 4391 3084 
Q 3944 3084 3684 2787 
Q 3425 2491 3425 1978 
L 3425 0 
L 2847 0 
L 2847 2094 
Q 2847 2600 2669 2842 
Q 2491 3084 2119 3084 
Q 1678 3084 1418 2786 
Q 1159 2488 1159 1978 
L 1159 0 
L 581 0 
L 581 3500 
L 1159 3500 
L 1159 2956 
Q 1356 3278 1631 3431 
Q 1906 3584 2284 3584 
Q 2666 3584 2933 3390 
Q 3200 3197 3328 2828 
z
" transform="scale(0.015625)"/>
        <path id="DejaVuSans-70" d="M 1159 525 
L 1159 -1331 
L 581 -1331 
L 581 3500 
L 1159 3500 
L 1159 2969 
Q 1341 3281 1617 3432 
Q 1894 3584 2278 3584 
Q 2916 3584 3314 3078 
Q 3713 2572 3713 1747 
Q 3713 922 3314 415 
Q 2916 -91 2278 -91 
Q 1894 -91 1617 61 
Q 1341 213 1159 525 
z
M 3116 1747 
Q 3116 2381 2855 2742 
Q 2594 3103 2138 3103 
Q 1681 3103 1420 2742 
Q 1159 2381 1159 1747 
Q 1159 1113 1420 752 
Q 1681 391 2138 391 
Q 2594 391 2855 752 
Q 3116 1113 3116 1747 
z
" transform="scale(0.015625)"/>
        <path id="DejaVuSans-6c" d="M 603 4863 
L 1178 4863 
L 1178 0 
L 603 0 
L 603 4863 
z
" transform="scale(0.015625)"/>
        <path id="DejaVuSans-65" d="M 3597 1894 
L 3597 1613 
L 953 1613 
Q 991 1019 1311 708 
Q 1631 397 2203 397 
Q 2534 397 2845 478 
Q 3156 559 3463 722 
L 3463 178 
Q 3153 47 2828 -22 
Q 2503 -91 2169 -91 
Q 1331 -91 842 396 
Q 353 884 353 1716 
Q 353 2575 817 3079 
Q 1281 3584 2069 3584 
Q 2775 3584 3186 3129 
Q 3597 2675 3597 1894 
z
M 3022 2063 
Q 3016 2534 2758 2815 
Q 2500 3097 2075 3097 
Q 1594 3097 1305 2825 
Q 1016 2553 972 2059 
L 3022 2063 
z
" transform="scale(0.015625)"/>
       </defs>
       <use xlink:href="#DejaVuSans-4c"/>
       <use xlink:href="#DejaVuSans-31" transform="translate(55.712891 0)"/>
       <use xlink:href="#DejaVuSans-3a" transform="translate(119.335938 0)"/>
       <use xlink:href="#DejaVuSans-20" transform="translate(153.027344 0)"/>
       <use xlink:href="#DejaVuSans-77" transform="translate(184.814453 0)"/>
       <use xlink:href="#DejaVuSans-69" transform="translate(266.601562 0)"/>
       <use xlink:href="#DejaVuSans-74" transform="translate(294.384766 0)"/>
       <use xlink:href="#DejaVuSans-68" transform="translate(333.59375 0)"/>
       <use xlink:href="#DejaVuSans-69" transform="translate(396.972656 0)"/>
       <use xlink:href="#DejaVuSans-6e" transform="translate(424.755859 0)"/>
       <use xlink:href="#DejaVuSans-20" transform="translate(488.134766 0)"/>
       <use xlink:href="#DejaVuSans-73" transform="translate(519.921875 0)"/>
       <use xlink:href="#DejaVuSans-61" transform="translate(572.021484 0)"/>
       <use xlink:href="#DejaVuSans-6d" transform="translate(633.300781 0)"/>
       <use xlink:href="#DejaVuSans-70" transform="translate(730.712891 0)"/>
       <use xlink:href="#DejaVuSans-6c" transform="translate(794.189453 0)"/>
       <use xlink:href="#DejaVuSans-65" transform="translate(821.972656 0)"/>
      </g>
     </g>
    </g>
    <g id="xtick_2">
     <g id="line2d_2">
      <g>
       <use xlink:href="#m465aaa2a87" x="277.212121" y="410.010222" style="stroke: #000000; stroke-width: 0.8"/>
      </g>
     </g>
     <g id="text_2">
      <!-- L2: within superset -->
      <g transform="translate(191.423756 477.971614) rotate(-35) scale(0.1 -0.1)">
       <defs>
        <path id="DejaVuSans-32" d="M 1228 531 
L 3431 531 
L 3431 0 
L 469 0 
L 469 531 
Q 828 903 1448 1529 
Q 2069 2156 2228 2338 
Q 2531 2678 2651 2914 
Q 2772 3150 2772 3378 
Q 2772 3750 2511 3984 
Q 2250 4219 1831 4219 
Q 1534 4219 1204 4116 
Q 875 4013 500 3803 
L 500 4441 
Q 881 4594 1212 4672 
Q 1544 4750 1819 4750 
Q 2544 4750 2975 4387 
Q 3406 4025 3406 3419 
Q 3406 3131 3298 2873 
Q 3191 2616 2906 2266 
Q 2828 2175 2409 1742 
Q 1991 1309 1228 531 
z
" transform="scale(0.015625)"/>
        <path id="DejaVuSans-75" d="M 544 1381 
L 544 3500 
L 1119 3500 
L 1119 1403 
Q 1119 906 1312 657 
Q 1506 409 1894 409 
Q 2359 409 2629 706 
Q 2900 1003 2900 1516 
L 2900 3500 
L 3475 3500 
L 3475 0 
L 2900 0 
L 2900 538 
Q 2691 219 2414 64 
Q 2138 -91 1772 -91 
Q 1169 -91 856 284 
Q 544 659 544 1381 
z
M 1991 3584 
L 1991 3584 
z
" transform="scale(0.015625)"/>
        <path id="DejaVuSans-72" d="M 2631 2963 
Q 2534 3019 2420 3045 
Q 2306 3072 2169 3072 
Q 1681 3072 1420 2755 
Q 1159 2438 1159 1844 
L 1159 0 
L 581 0 
L 581 3500 
L 1159 3500 
L 1159 2956 
Q 1341 3275 1631 3429 
Q 1922 3584 2338 3584 
Q 2397 3584 2469 3576 
Q 2541 3569 2628 3553 
L 2631 2963 
z
" transform="scale(0.015625)"/>
       </defs>
       <use xlink:href="#DejaVuSans-4c"/>
       <use xlink:href="#DejaVuSans-32" transform="translate(55.712891 0)"/>
       <use xlink:href="#DejaVuSans-3a" transform="translate(119.335938 0)"/>
       <use xlink:href="#DejaVuSans-20" transform="translate(153.027344 0)"/>
       <use xlink:href="#DejaVuSans-77" transform="translate(184.814453 0)"/>
       <use xlink:href="#DejaVuSans-69" transform="translate(266.601562 0)"/>
       <use xlink:href="#DejaVuSans-74" transform="translate(294.384766 0)"/>
       <use xlink:href="#DejaVuSans-68" transform="translate(333.59375 0)"/>
       <use xlink:href="#DejaVuSans-69" transform="translate(396.972656 0)"/>
       <use xlink:href="#DejaVuSans-6e" transform="translate(424.755859 0)"/>
       <use xlink:href="#DejaVuSans-20" transform="translate(488.134766 0)"/>
       <use xlink:href="#DejaVuSans-73" transform="translate(519.921875 0)"/>
       <use xlink:href="#DejaVuSans-75" transform="translate(572.021484 0)"/>
       <use xlink:href="#DejaVuSans-70" transform="translate(635.400391 0)"/>
       <use xlink:href="#DejaVuSans-65" transform="translate(698.876953 0)"/>
       <use xlink:href="#DejaVuSans-72" transform="translate(760.400391 0)"/>
       <use xlink:href="#DejaVuSans-73" transform="translate(801.513672 0)"/>
       <use xlink:href="#DejaVuSans-65" transform="translate(853.613281 0)"/>
       <use xlink:href="#DejaVuSans-74" transform="translate(915.136719 0)"/>
      </g>
      <!-- across mice -->
      <g transform="translate(227.36291 466.476753) rotate(-35) scale(0.1 -0.1)">
       <defs>
        <path id="DejaVuSans-63" d="M 3122 3366 
L 3122 2828 
Q 2878 2963 2633 3030 
Q 2388 3097 2138 3097 
Q 1578 3097 1268 2742 
Q 959 2388 959 1747 
Q 959 1106 1268 751 
Q 1578 397 2138 397 
Q 2388 397 2633 464 
Q 2878 531 3122 666 
L 3122 134 
Q 2881 22 2623 -34 
Q 2366 -91 2075 -91 
Q 1284 -91 818 406 
Q 353 903 353 1747 
Q 353 2603 823 3093 
Q 1294 3584 2113 3584 
Q 2378 3584 2631 3529 
Q 2884 3475 3122 3366 
z
" transform="scale(0.015625)"/>
        <path id="DejaVuSans-6f" d="M 1959 3097 
Q 1497 3097 1228 2736 
Q 959 2375 959 1747 
Q 959 1119 1226 758 
Q 1494 397 1959 397 
Q 2419 397 2687 759 
Q 2956 1122 2956 1747 
Q 2956 2369 2687 2733 
Q 2419 3097 1959 3097 
z
M 1959 3584 
Q 2709 3584 3137 3096 
Q 3566 2609 3566 1747 
Q 3566 888 3137 398 
Q 2709 -91 1959 -91 
Q 1206 -91 779 398 
Q 353 888 353 1747 
Q 353 2609 779 3096 
Q 1206 3584 1959 3584 
z
" transform="scale(0.015625)"/>
       </defs>
       <use xlink:href="#DejaVuSans-61"/>
       <use xlink:href="#DejaVuSans-63" transform="translate(61.279297 0)"/>
       <use xlink:href="#DejaVuSans-72" transform="translate(116.259766 0)"/>
       <use xlink:href="#DejaVuSans-6f" transform="translate(155.123047 0)"/>
       <use xlink:href="#DejaVuSans-73" transform="translate(216.304688 0)"/>
       <use xlink:href="#DejaVuSans-73" transform="translate(268.404297 0)"/>
       <use xlink:href="#DejaVuSans-20" transform="translate(320.503906 0)"/>
       <use xlink:href="#DejaVuSans-6d" transform="translate(352.291016 0)"/>
       <use xlink:href="#DejaVuSans-69" transform="translate(449.703125 0)"/>
       <use xlink:href="#DejaVuSans-63" transform="translate(477.486328 0)"/>
       <use xlink:href="#DejaVuSans-65" transform="translate(532.466797 0)"/>
      </g>
     </g>
    </g>
    <g id="xtick_3">
     <g id="line2d_3">
      <g>
       <use xlink:href="#m465aaa2a87" x="411.443758" y="410.010222" style="stroke: #000000; stroke-width: 0.8"/>
      </g>
     </g>
     <g id="text_3">
      <!-- L3: within epitope -->
      <g transform="translate(330.260564 474.747039) rotate(-35) scale(0.1 -0.1)">
       <defs>
        <path id="DejaVuSans-33" d="M 2597 2516 
Q 3050 2419 3304 2112 
Q 3559 1806 3559 1356 
Q 3559 666 3084 287 
Q 2609 -91 1734 -91 
Q 1441 -91 1130 -33 
Q 819 25 488 141 
L 488 750 
Q 750 597 1062 519 
Q 1375 441 1716 441 
Q 2309 441 2620 675 
Q 2931 909 2931 1356 
Q 2931 1769 2642 2001 
Q 2353 2234 1838 2234 
L 1294 2234 
L 1294 2753 
L 1863 2753 
Q 2328 2753 2575 2939 
Q 2822 3125 2822 3475 
Q 2822 3834 2567 4026 
Q 2313 4219 1838 4219 
Q 1578 4219 1281 4162 
Q 984 4106 628 3988 
L 628 4550 
Q 988 4650 1302 4700 
Q 1616 4750 1894 4750 
Q 2613 4750 3031 4423 
Q 3450 4097 3450 3541 
Q 3450 3153 3228 2886 
Q 3006 2619 2597 2516 
z
" transform="scale(0.015625)"/>
       </defs>
       <use xlink:href="#DejaVuSans-4c"/>
       <use xlink:href="#DejaVuSans-33" transform="translate(55.712891 0)"/>
       <use xlink:href="#DejaVuSans-3a" transform="translate(119.335938 0)"/>
       <use xlink:href="#DejaVuSans-20" transform="translate(153.027344 0)"/>
       <use xlink:href="#DejaVuSans-77" transform="translate(184.814453 0)"/>
       <use xlink:href="#DejaVuSans-69" transform="translate(266.601562 0)"/>
       <use xlink:href="#DejaVuSans-74" transform="translate(294.384766 0)"/>
       <use xlink:href="#DejaVuSans-68" transform="translate(333.59375 0)"/>
       <use xlink:href="#DejaVuSans-69" transform="translate(396.972656 0)"/>
       <use xlink:href="#DejaVuSans-6e" transform="translate(424.755859 0)"/>
       <use xlink:href="#DejaVuSans-20" transform="translate(488.134766 0)"/>
       <use xlink:href="#DejaVuSans-65" transform="translate(519.921875 0)"/>
       <use xlink:href="#DejaVuSans-70" transform="translate(581.445312 0)"/>
       <use xlink:href="#DejaVuSans-69" transform="translate(644.921875 0)"/>
       <use xlink:href="#DejaVuSans-74" transform="translate(672.705078 0)"/>
       <use xlink:href="#DejaVuSans-6f" transform="translate(711.914062 0)"/>
       <use xlink:href="#DejaVuSans-70" transform="translate(773.095703 0)"/>
       <use xlink:href="#DejaVuSans-65" transform="translate(836.572266 0)"/>
      </g>
      <!-- across strain -->
      <g transform="translate(358.060674 468.951197) rotate(-35) scale(0.1 -0.1)">
       <use xlink:href="#DejaVuSans-61"/>
       <use xlink:href="#DejaVuSans-63" transform="translate(61.279297 0)"/>
       <use xlink:href="#DejaVuSans-72" transform="translate(116.259766 0)"/>
       <use xlink:href="#DejaVuSans-6f" transform="translate(155.123047 0)"/>
       <use xlink:href="#DejaVuSans-73" transform="translate(216.304688 0)"/>
       <use xlink:href="#DejaVuSans-73" transform="translate(268.404297 0)"/>
       <use xlink:href="#DejaVuSans-20" transform="translate(320.503906 0)"/>
       <use xlink:href="#DejaVuSans-73" transform="translate(352.291016 0)"/>
       <use xlink:href="#DejaVuSans-74" transform="translate(404.390625 0)"/>
       <use xlink:href="#DejaVuSans-72" transform="translate(443.599609 0)"/>
       <use xlink:href="#DejaVuSans-61" transform="translate(484.712891 0)"/>
       <use xlink:href="#DejaVuSans-69" transform="translate(545.992188 0)"/>
       <use xlink:href="#DejaVuSans-6e" transform="translate(573.775391 0)"/>
      </g>
     </g>
    </g>
    <g id="xtick_4">
     <g id="line2d_4">
      <g>
       <use xlink:href="#m465aaa2a87" x="545.675396" y="410.010222" style="stroke: #000000; stroke-width: 0.8"/>
      </g>
     </g>
     <g id="text_4">
      <!-- L4: within strain -->
      <g transform="translate(472.139754 469.392165) rotate(-35) scale(0.1 -0.1)">
       <defs>
        <path id="DejaVuSans-34" d="M 2419 4116 
L 825 1625 
L 2419 1625 
L 2419 4116 
z
M 2253 4666 
L 3047 4666 
L 3047 1625 
L 3713 1625 
L 3713 1100 
L 3047 1100 
L 3047 0 
L 2419 0 
L 2419 1100 
L 313 1100 
L 313 1709 
L 2253 4666 
z
" transform="scale(0.015625)"/>
       </defs>
       <use xlink:href="#DejaVuSans-4c"/>
       <use xlink:href="#DejaVuSans-34" transform="translate(55.712891 0)"/>
       <use xlink:href="#DejaVuSans-3a" transform="translate(119.335938 0)"/>
       <use xlink:href="#DejaVuSans-20" transform="translate(153.027344 0)"/>
       <use xlink:href="#DejaVuSans-77" transform="translate(184.814453 0)"/>
       <use xlink:href="#DejaVuSans-69" transform="translate(266.601562 0)"/>
       <use xlink:href="#DejaVuSans-74" transform="translate(294.384766 0)"/>
       <use xlink:href="#DejaVuSans-68" transform="translate(333.59375 0)"/>
       <use xlink:href="#DejaVuSans-69" transform="translate(396.972656 0)"/>
       <use xlink:href="#DejaVuSans-6e" transform="translate(424.755859 0)"/>
       <use xlink:href="#DejaVuSans-20" transform="translate(488.134766 0)"/>
       <use xlink:href="#DejaVuSans-73" transform="translate(519.921875 0)"/>
       <use xlink:href="#DejaVuSans-74" transform="translate(572.021484 0)"/>
       <use xlink:href="#DejaVuSans-72" transform="translate(611.230469 0)"/>
       <use xlink:href="#DejaVuSans-61" transform="translate(652.34375 0)"/>
       <use xlink:href="#DejaVuSans-69" transform="translate(713.623047 0)"/>
       <use xlink:href="#DejaVuSans-6e" transform="translate(741.40625 0)"/>
      </g>
      <!-- across epitope -->
      <g transform="translate(484.644759 474.306071) rotate(-35) scale(0.1 -0.1)">
       <use xlink:href="#DejaVuSans-61"/>
       <use xlink:href="#DejaVuSans-63" transform="translate(61.279297 0)"/>
       <use xlink:href="#DejaVuSans-72" transform="translate(116.259766 0)"/>
       <use xlink:href="#DejaVuSans-6f" transform="translate(155.123047 0)"/>
       <use xlink:href="#DejaVuSans-73" transform="translate(216.304688 0)"/>
       <use xlink:href="#DejaVuSans-73" transform="translate(268.404297 0)"/>
       <use xlink:href="#DejaVuSans-20" transform="translate(320.503906 0)"/>
       <use xlink:href="#DejaVuSans-65" transform="translate(352.291016 0)"/>
       <use xlink:href="#DejaVuSans-70" transform="translate(413.814453 0)"/>
       <use xlink:href="#DejaVuSans-69" transform="translate(477.291016 0)"/>
       <use xlink:href="#DejaVuSans-74" transform="translate(505.074219 0)"/>
       <use xlink:href="#DejaVuSans-6f" transform="translate(544.283203 0)"/>
       <use xlink:href="#DejaVuSans-70" transform="translate(605.464844 0)"/>
       <use xlink:href="#DejaVuSans-65" transform="translate(668.941406 0)"/>
      </g>
     </g>
    </g>
    <g id="xtick_5">
     <g id="line2d_5">
      <g>
       <use xlink:href="#m465aaa2a87" x="679.907033" y="410.010222" style="stroke: #000000; stroke-width: 0.8"/>
      </g>
     </g>
     <g id="text_5">
      <!-- L5: all supersets -->
      <g transform="translate(611.547545 470.265077) rotate(-35) scale(0.1 -0.1)">
       <defs>
        <path id="DejaVuSans-35" d="M 691 4666 
L 3169 4666 
L 3169 4134 
L 1269 4134 
L 1269 2991 
Q 1406 3038 1543 3061 
Q 1681 3084 1819 3084 
Q 2600 3084 3056 2656 
Q 3513 2228 3513 1497 
Q 3513 744 3044 326 
Q 2575 -91 1722 -91 
Q 1428 -91 1123 -41 
Q 819 9 494 109 
L 494 744 
Q 775 591 1075 516 
Q 1375 441 1709 441 
Q 2250 441 2565 725 
Q 2881 1009 2881 1497 
Q 2881 1984 2565 2268 
Q 2250 2553 1709 2553 
Q 1456 2553 1204 2497 
Q 953 2441 691 2322 
L 691 4666 
z
" transform="scale(0.015625)"/>
       </defs>
       <use xlink:href="#DejaVuSans-4c"/>
       <use xlink:href="#DejaVuSans-35" transform="translate(55.712891 0)"/>
       <use xlink:href="#DejaVuSans-3a" transform="translate(119.335938 0)"/>
       <use xlink:href="#DejaVuSans-20" transform="translate(153.027344 0)"/>
       <use xlink:href="#DejaVuSans-61" transform="translate(184.814453 0)"/>
       <use xlink:href="#DejaVuSans-6c" transform="translate(246.09375 0)"/>
       <use xlink:href="#DejaVuSans-6c" transform="translate(273.876953 0)"/>
       <use xlink:href="#DejaVuSans-20" transform="translate(301.660156 0)"/>
       <use xlink:href="#DejaVuSans-73" transform="translate(333.447266 0)"/>
       <use xlink:href="#DejaVuSans-75" transform="translate(385.546875 0)"/>
       <use xlink:href="#DejaVuSans-70" transform="translate(448.925781 0)"/>
       <use xlink:href="#DejaVuSans-65" transform="translate(512.402344 0)"/>
       <use xlink:href="#DejaVuSans-72" transform="translate(573.925781 0)"/>
       <use xlink:href="#DejaVuSans-73" transform="translate(615.039062 0)"/>
       <use xlink:href="#DejaVuSans-65" transform="translate(667.138672 0)"/>
       <use xlink:href="#DejaVuSans-74" transform="translate(728.662109 0)"/>
       <use xlink:href="#DejaVuSans-73" transform="translate(767.871094 0)"/>
      </g>
     </g>
    </g>
    <g id="xtick_6">
     <g id="line2d_6">
      <g>
       <use xlink:href="#m465aaa2a87" x="814.13867" y="410.010222" style="stroke: #000000; stroke-width: 0.8"/>
      </g>
     </g>
     <g id="text_6">
      <!-- L6: pre-immune -->
      <g transform="translate(747.770746 468.870569) rotate(-35) scale(0.1 -0.1)">
       <defs>
        <path id="DejaVuSans-36" d="M 2113 2584 
Q 1688 2584 1439 2293 
Q 1191 2003 1191 1497 
Q 1191 994 1439 701 
Q 1688 409 2113 409 
Q 2538 409 2786 701 
Q 3034 994 3034 1497 
Q 3034 2003 2786 2293 
Q 2538 2584 2113 2584 
z
M 3366 4563 
L 3366 3988 
Q 3128 4100 2886 4159 
Q 2644 4219 2406 4219 
Q 1781 4219 1451 3797 
Q 1122 3375 1075 2522 
Q 1259 2794 1537 2939 
Q 1816 3084 2150 3084 
Q 2853 3084 3261 2657 
Q 3669 2231 3669 1497 
Q 3669 778 3244 343 
Q 2819 -91 2113 -91 
Q 1303 -91 875 529 
Q 447 1150 447 2328 
Q 447 3434 972 4092 
Q 1497 4750 2381 4750 
Q 2619 4750 2861 4703 
Q 3103 4656 3366 4563 
z
" transform="scale(0.015625)"/>
        <path id="DejaVuSans-2d" d="M 313 2009 
L 1997 2009 
L 1997 1497 
L 313 1497 
L 313 2009 
z
" transform="scale(0.015625)"/>
       </defs>
       <use xlink:href="#DejaVuSans-4c"/>
       <use xlink:href="#DejaVuSans-36" transform="translate(55.712891 0)"/>
       <use xlink:href="#DejaVuSans-3a" transform="translate(119.335938 0)"/>
       <use xlink:href="#DejaVuSans-20" transform="translate(153.027344 0)"/>
       <use xlink:href="#DejaVuSans-70" transform="translate(184.814453 0)"/>
       <use xlink:href="#DejaVuSans-72" transform="translate(248.291016 0)"/>
       <use xlink:href="#DejaVuSans-65" transform="translate(287.154297 0)"/>
       <use xlink:href="#DejaVuSans-2d" transform="translate(348.677734 0)"/>
       <use xlink:href="#DejaVuSans-69" transform="translate(384.761719 0)"/>
       <use xlink:href="#DejaVuSans-6d" transform="translate(412.544922 0)"/>
       <use xlink:href="#DejaVuSans-6d" transform="translate(509.957031 0)"/>
       <use xlink:href="#DejaVuSans-75" transform="translate(607.369141 0)"/>
       <use xlink:href="#DejaVuSans-6e" transform="translate(670.748047 0)"/>
       <use xlink:href="#DejaVuSans-65" transform="translate(734.126953 0)"/>
      </g>
     </g>
    </g>
   </g>
   <g id="matplotlib.axis_2">
    <g id="ytick_1">
     <g id="line2d_7">
      <defs>
       <path id="m452d47924f" d="M 0 0 
L -3.5 0 
" style="stroke: #000000; stroke-width: 0.8"/>
      </defs>
      <g>
       <use xlink:href="#m452d47924f" x="53.31375" y="356.796744" style="stroke: #000000; stroke-width: 0.8"/>
      </g>
     </g>
     <g id="text_7">
      <!-- $\mathdefault{10^{-9}}$ -->
      <g transform="translate(22.81375 360.595962) scale(0.1 -0.1)">
       <defs>
        <path id="DejaVuSans-30" d="M 2034 4250 
Q 1547 4250 1301 3770 
Q 1056 3291 1056 2328 
Q 1056 1369 1301 889 
Q 1547 409 2034 409 
Q 2525 409 2770 889 
Q 3016 1369 3016 2328 
Q 3016 3291 2770 3770 
Q 2525 4250 2034 4250 
z
M 2034 4750 
Q 2819 4750 3233 4129 
Q 3647 3509 3647 2328 
Q 3647 1150 3233 529 
Q 2819 -91 2034 -91 
Q 1250 -91 836 529 
Q 422 1150 422 2328 
Q 422 3509 836 4129 
Q 1250 4750 2034 4750 
z
" transform="scale(0.015625)"/>
        <path id="DejaVuSans-2212" d="M 678 2272 
L 4684 2272 
L 4684 1741 
L 678 1741 
L 678 2272 
z
" transform="scale(0.015625)"/>
        <path id="DejaVuSans-39" d="M 703 97 
L 703 672 
Q 941 559 1184 500 
Q 1428 441 1663 441 
Q 2288 441 2617 861 
Q 2947 1281 2994 2138 
Q 2813 1869 2534 1725 
Q 2256 1581 1919 1581 
Q 1219 1581 811 2004 
Q 403 2428 403 3163 
Q 403 3881 828 4315 
Q 1253 4750 1959 4750 
Q 2769 4750 3195 4129 
Q 3622 3509 3622 2328 
Q 3622 1225 3098 567 
Q 2575 -91 1691 -91 
Q 1453 -91 1209 -44 
Q 966 3 703 97 
z
M 1959 2075 
Q 2384 2075 2632 2365 
Q 2881 2656 2881 3163 
Q 2881 3666 2632 3958 
Q 2384 4250 1959 4250 
Q 1534 4250 1286 3958 
Q 1038 3666 1038 3163 
Q 1038 2656 1286 2365 
Q 1534 2075 1959 2075 
z
" transform="scale(0.015625)"/>
       </defs>
       <use xlink:href="#DejaVuSans-31" transform="translate(0 0.765625)"/>
       <use xlink:href="#DejaVuSans-30" transform="translate(63.623047 0.765625)"/>
       <use xlink:href="#DejaVuSans-2212" transform="translate(128.203125 39.046875) scale(0.7)"/>
       <use xlink:href="#DejaVuSans-39" transform="translate(186.855469 39.046875) scale(0.7)"/>
      </g>
     </g>
    </g>
    <g id="ytick_2">
     <g id="line2d_8">
      <g>
       <use xlink:href="#m452d47924f" x="53.31375" y="285.476369" style="stroke: #000000; stroke-width: 0.8"/>
      </g>
     </g>
     <g id="text_8">
      <!-- $\mathdefault{10^{-7}}$ -->
      <g transform="translate(22.81375 289.275588) scale(0.1 -0.1)">
       <defs>
        <path id="DejaVuSans-37" d="M 525 4666 
L 3525 4666 
L 3525 4397 
L 1831 0 
L 1172 0 
L 2766 4134 
L 525 4134 
L 525 4666 
z
" transform="scale(0.015625)"/>
       </defs>
       <use xlink:href="#DejaVuSans-31" transform="translate(0 0.684375)"/>
       <use xlink:href="#DejaVuSans-30" transform="translate(63.623047 0.684375)"/>
       <use xlink:href="#DejaVuSans-2212" transform="translate(128.203125 38.965625) scale(0.7)"/>
       <use xlink:href="#DejaVuSans-37" transform="translate(186.855469 38.965625) scale(0.7)"/>
      </g>
     </g>
    </g>
    <g id="ytick_3">
     <g id="line2d_9">
      <g>
       <use xlink:href="#m452d47924f" x="53.31375" y="214.155995" style="stroke: #000000; stroke-width: 0.8"/>
      </g>
     </g>
     <g id="text_9">
      <!-- $\mathdefault{10^{-5}}$ -->
      <g transform="translate(22.81375 217.955213) scale(0.1 -0.1)">
       <use xlink:href="#DejaVuSans-31" transform="translate(0 0.684375)"/>
       <use xlink:href="#DejaVuSans-30" transform="translate(63.623047 0.684375)"/>
       <use xlink:href="#DejaVuSans-2212" transform="translate(128.203125 38.965625) scale(0.7)"/>
       <use xlink:href="#DejaVuSans-35" transform="translate(186.855469 38.965625) scale(0.7)"/>
      </g>
     </g>
    </g>
    <g id="ytick_4">
     <g id="line2d_10">
      <g>
       <use xlink:href="#m452d47924f" x="53.31375" y="142.83562" style="stroke: #000000; stroke-width: 0.8"/>
      </g>
     </g>
     <g id="text_10">
      <!-- $\mathdefault{10^{-3}}$ -->
      <g transform="translate(22.81375 146.634839) scale(0.1 -0.1)">
       <use xlink:href="#DejaVuSans-31" transform="translate(0 0.765625)"/>
       <use xlink:href="#DejaVuSans-30" transform="translate(63.623047 0.765625)"/>
       <use xlink:href="#DejaVuSans-2212" transform="translate(128.203125 39.046875) scale(0.7)"/>
       <use xlink:href="#DejaVuSans-33" transform="translate(186.855469 39.046875) scale(0.7)"/>
      </g>
     </g>
    </g>
    <g id="ytick_5">
     <g id="line2d_11">
      <g>
       <use xlink:href="#m452d47924f" x="53.31375" y="71.515246" style="stroke: #000000; stroke-width: 0.8"/>
      </g>
     </g>
     <g id="text_11">
      <!-- $\mathdefault{10^{-1}}$ -->
      <g transform="translate(22.81375 75.314465) scale(0.1 -0.1)">
       <use xlink:href="#DejaVuSans-31" transform="translate(0 0.684375)"/>
       <use xlink:href="#DejaVuSans-30" transform="translate(63.623047 0.684375)"/>
       <use xlink:href="#DejaVuSans-2212" transform="translate(128.203125 38.965625) scale(0.7)"/>
       <use xlink:href="#DejaVuSans-31" transform="translate(186.855469 38.965625) scale(0.7)"/>
      </g>
     </g>
    </g>
    <g id="text_12">
     <!-- $P_c$ -->
     <g transform="translate(16.318125 223.044017) rotate(-90) scale(0.12 -0.12)">
      <defs>
       <path id="DejaVuSans-Oblique-50" d="M 1081 4666 
L 2541 4666 
Q 3178 4666 3512 4369 
Q 3847 4072 3847 3500 
Q 3847 2731 3353 2303 
Q 2859 1875 1966 1875 
L 1172 1875 
L 806 0 
L 172 0 
L 1081 4666 
z
M 1613 4147 
L 1275 2394 
L 2069 2394 
Q 2606 2394 2893 2669 
Q 3181 2944 3181 3456 
Q 3181 3784 2986 3965 
Q 2791 4147 2438 4147 
L 1613 4147 
z
" transform="scale(0.015625)"/>
       <path id="DejaVuSans-Oblique-63" d="M 3431 3366 
L 3316 2797 
Q 3109 2947 2876 3022 
Q 2644 3097 2394 3097 
Q 2119 3097 1870 3000 
Q 1622 2903 1453 2725 
Q 1184 2453 1037 2087 
Q 891 1722 891 1331 
Q 891 859 1127 628 
Q 1363 397 1844 397 
Q 2081 397 2348 469 
Q 2616 541 2906 684 
L 2797 116 
Q 2547 13 2283 -39 
Q 2019 -91 1741 -91 
Q 1044 -91 669 257 
Q 294 606 294 1253 
Q 294 1797 489 2255 
Q 684 2713 1069 3078 
Q 1331 3328 1684 3456 
Q 2038 3584 2456 3584 
Q 2700 3584 2940 3529 
Q 3181 3475 3431 3366 
z
" transform="scale(0.015625)"/>
      </defs>
      <use xlink:href="#DejaVuSans-Oblique-50" transform="translate(0 0.09375)"/>
      <use xlink:href="#DejaVuSans-Oblique-63" transform="translate(60.302734 -16.3125) scale(0.7)"/>
     </g>
    </g>
   </g>
   <g id="patch_3">
    <path d="M 53.31375 410.010222 
L 53.31375 23.837812 
" style="fill: none; stroke: #000000; stroke-width: 0.8; stroke-linejoin: miter; stroke-linecap: square"/>
   </g>
   <g id="patch_4">
    <path d="M 903.805404 410.010222 
L 903.805404 23.837812 
" style="fill: none; stroke: #000000; stroke-width: 0.8; stroke-linejoin: miter; stroke-linecap: square"/>
   </g>
   <g id="patch_5">
    <path d="M 53.31375 410.010222 
L 903.805404 410.010222 
" style="fill: none; stroke: #000000; stroke-width: 0.8; stroke-linejoin: miter; stroke-linecap: square"/>
   </g>
   <g id="patch_6">
    <path d="M 53.31375 23.837812 
L 903.805404 23.837812 
" style="fill: none; stroke: #000000; stroke-width: 0.8; stroke-linejoin: miter; stroke-linecap: square"/>
   </g>
   <g id="text_13">
    <!-- Kd (FullBeta) Coincidence Probabilities Across Strictness Levels -->
    <g transform="translate(257.581608 17.837812) scale(0.14 -0.14)">
     <defs>
      <path id="DejaVuSans-4b" d="M 628 4666 
L 1259 4666 
L 1259 2694 
L 3353 4666 
L 4166 4666 
L 1850 2491 
L 4331 0 
L 3500 0 
L 1259 2247 
L 1259 0 
L 628 0 
L 628 4666 
z
" transform="scale(0.015625)"/>
      <path id="DejaVuSans-64" d="M 2906 2969 
L 2906 4863 
L 3481 4863 
L 3481 0 
L 2906 0 
L 2906 525 
Q 2725 213 2448 61 
Q 2172 -91 1784 -91 
Q 1150 -91 751 415 
Q 353 922 353 1747 
Q 353 2572 751 3078 
Q 1150 3584 1784 3584 
Q 2172 3584 2448 3432 
Q 2725 3281 2906 2969 
z
M 947 1747 
Q 947 1113 1208 752 
Q 1469 391 1925 391 
Q 2381 391 2643 752 
Q 2906 1113 2906 1747 
Q 2906 2381 2643 2742 
Q 2381 3103 1925 3103 
Q 1469 3103 1208 2742 
Q 947 2381 947 1747 
z
" transform="scale(0.015625)"/>
      <path id="DejaVuSans-28" d="M 1984 4856 
Q 1566 4138 1362 3434 
Q 1159 2731 1159 2009 
Q 1159 1288 1364 580 
Q 1569 -128 1984 -844 
L 1484 -844 
Q 1016 -109 783 600 
Q 550 1309 550 2009 
Q 550 2706 781 3412 
Q 1013 4119 1484 4856 
L 1984 4856 
z
" transform="scale(0.015625)"/>
      <path id="DejaVuSans-46" d="M 628 4666 
L 3309 4666 
L 3309 4134 
L 1259 4134 
L 1259 2759 
L 3109 2759 
L 3109 2228 
L 1259 2228 
L 1259 0 
L 628 0 
L 628 4666 
z
" transform="scale(0.015625)"/>
      <path id="DejaVuSans-42" d="M 1259 2228 
L 1259 519 
L 2272 519 
Q 2781 519 3026 730 
Q 3272 941 3272 1375 
Q 3272 1813 3026 2020 
Q 2781 2228 2272 2228 
L 1259 2228 
z
M 1259 4147 
L 1259 2741 
L 2194 2741 
Q 2656 2741 2882 2914 
Q 3109 3088 3109 3444 
Q 3109 3797 2882 3972 
Q 2656 4147 2194 4147 
L 1259 4147 
z
M 628 4666 
L 2241 4666 
Q 2963 4666 3353 4366 
Q 3744 4066 3744 3513 
Q 3744 3084 3544 2831 
Q 3344 2578 2956 2516 
Q 3422 2416 3680 2098 
Q 3938 1781 3938 1306 
Q 3938 681 3513 340 
Q 3088 0 2303 0 
L 628 0 
L 628 4666 
z
" transform="scale(0.015625)"/>
      <path id="DejaVuSans-29" d="M 513 4856 
L 1013 4856 
Q 1481 4119 1714 3412 
Q 1947 2706 1947 2009 
Q 1947 1309 1714 600 
Q 1481 -109 1013 -844 
L 513 -844 
Q 928 -128 1133 580 
Q 1338 1288 1338 2009 
Q 1338 2731 1133 3434 
Q 928 4138 513 4856 
z
" transform="scale(0.015625)"/>
      <path id="DejaVuSans-43" d="M 4122 4306 
L 4122 3641 
Q 3803 3938 3442 4084 
Q 3081 4231 2675 4231 
Q 1875 4231 1450 3742 
Q 1025 3253 1025 2328 
Q 1025 1406 1450 917 
Q 1875 428 2675 428 
Q 3081 428 3442 575 
Q 3803 722 4122 1019 
L 4122 359 
Q 3791 134 3420 21 
Q 3050 -91 2638 -91 
Q 1578 -91 968 557 
Q 359 1206 359 2328 
Q 359 3453 968 4101 
Q 1578 4750 2638 4750 
Q 3056 4750 3426 4639 
Q 3797 4528 4122 4306 
z
" transform="scale(0.015625)"/>
      <path id="DejaVuSans-50" d="M 1259 4147 
L 1259 2394 
L 2053 2394 
Q 2494 2394 2734 2622 
Q 2975 2850 2975 3272 
Q 2975 3691 2734 3919 
Q 2494 4147 2053 4147 
L 1259 4147 
z
M 628 4666 
L 2053 4666 
Q 2838 4666 3239 4311 
Q 3641 3956 3641 3272 
Q 3641 2581 3239 2228 
Q 2838 1875 2053 1875 
L 1259 1875 
L 1259 0 
L 628 0 
L 628 4666 
z
" transform="scale(0.015625)"/>
      <path id="DejaVuSans-62" d="M 3116 1747 
Q 3116 2381 2855 2742 
Q 2594 3103 2138 3103 
Q 1681 3103 1420 2742 
Q 1159 2381 1159 1747 
Q 1159 1113 1420 752 
Q 1681 391 2138 391 
Q 2594 391 2855 752 
Q 3116 1113 3116 1747 
z
M 1159 2969 
Q 1341 3281 1617 3432 
Q 1894 3584 2278 3584 
Q 2916 3584 3314 3078 
Q 3713 2572 3713 1747 
Q 3713 922 3314 415 
Q 2916 -91 2278 -91 
Q 1894 -91 1617 61 
Q 1341 213 1159 525 
L 1159 0 
L 581 0 
L 581 4863 
L 1159 4863 
L 1159 2969 
z
" transform="scale(0.015625)"/>
      <path id="DejaVuSans-41" d="M 2188 4044 
L 1331 1722 
L 3047 1722 
L 2188 4044 
z
M 1831 4666 
L 2547 4666 
L 4325 0 
L 3669 0 
L 3244 1197 
L 1141 1197 
L 716 0 
L 50 0 
L 1831 4666 
z
" transform="scale(0.015625)"/>
      <path id="DejaVuSans-53" d="M 3425 4513 
L 3425 3897 
Q 3066 4069 2747 4153 
Q 2428 4238 2131 4238 
Q 1616 4238 1336 4038 
Q 1056 3838 1056 3469 
Q 1056 3159 1242 3001 
Q 1428 2844 1947 2747 
L 2328 2669 
Q 3034 2534 3370 2195 
Q 3706 1856 3706 1288 
Q 3706 609 3251 259 
Q 2797 -91 1919 -91 
Q 1588 -91 1214 -16 
Q 841 59 441 206 
L 441 856 
Q 825 641 1194 531 
Q 1563 422 1919 422 
Q 2459 422 2753 634 
Q 3047 847 3047 1241 
Q 3047 1584 2836 1778 
Q 2625 1972 2144 2069 
L 1759 2144 
Q 1053 2284 737 2584 
Q 422 2884 422 3419 
Q 422 4038 858 4394 
Q 1294 4750 2059 4750 
Q 2388 4750 2728 4690 
Q 3069 4631 3425 4513 
z
" transform="scale(0.015625)"/>
      <path id="DejaVuSans-76" d="M 191 3500 
L 800 3500 
L 1894 563 
L 2988 3500 
L 3597 3500 
L 2284 0 
L 1503 0 
L 191 3500 
z
" transform="scale(0.015625)"/>
     </defs>
     <use xlink:href="#DejaVuSans-4b"/>
     <use xlink:href="#DejaVuSans-64" transform="translate(65.576172 0)"/>
     <use xlink:href="#DejaVuSans-20" transform="translate(129.052734 0)"/>
     <use xlink:href="#DejaVuSans-28" transform="translate(160.839844 0)"/>
     <use xlink:href="#DejaVuSans-46" transform="translate(199.853516 0)"/>
     <use xlink:href="#DejaVuSans-75" transform="translate(251.873047 0)"/>
     <use xlink:href="#DejaVuSans-6c" transform="translate(315.251953 0)"/>
     <use xlink:href="#DejaVuSans-6c" transform="translate(343.035156 0)"/>
     <use xlink:href="#DejaVuSans-42" transform="translate(370.818359 0)"/>
     <use xlink:href="#DejaVuSans-65" transform="translate(439.421875 0)"/>
     <use xlink:href="#DejaVuSans-74" transform="translate(500.945312 0)"/>
     <use xlink:href="#DejaVuSans-61" transform="translate(540.154297 0)"/>
     <use xlink:href="#DejaVuSans-29" transform="translate(601.433594 0)"/>
     <use xlink:href="#DejaVuSans-20" transform="translate(640.447266 0)"/>
     <use xlink:href="#DejaVuSans-43" transform="translate(672.234375 0)"/>
     <use xlink:href="#DejaVuSans-6f" transform="translate(742.058594 0)"/>
     <use xlink:href="#DejaVuSans-69" transform="translate(803.240234 0)"/>
     <use xlink:href="#DejaVuSans-6e" transform="translate(831.023438 0)"/>
     <use xlink:href="#DejaVuSans-63" transform="translate(894.402344 0)"/>
     <use xlink:href="#DejaVuSans-69" transform="translate(949.382812 0)"/>
     <use xlink:href="#DejaVuSans-64" transform="translate(977.166016 0)"/>
     <use xlink:href="#DejaVuSans-65" transform="translate(1040.642578 0)"/>
     <use xlink:href="#DejaVuSans-6e" transform="translate(1102.166016 0)"/>
     <use xlink:href="#DejaVuSans-63" transform="translate(1165.544922 0)"/>
     <use xlink:href="#DejaVuSans-65" transform="translate(1220.525391 0)"/>
     <use xlink:href="#DejaVuSans-20" transform="translate(1282.048828 0)"/>
     <use xlink:href="#DejaVuSans-50" transform="translate(1313.835938 0)"/>
     <use xlink:href="#DejaVuSans-72" transform="translate(1372.388672 0)"/>
     <use xlink:href="#DejaVuSans-6f" transform="translate(1411.251953 0)"/>
     <use xlink:href="#DejaVuSans-62" transform="translate(1472.433594 0)"/>
     <use xlink:href="#DejaVuSans-61" transform="translate(1535.910156 0)"/>
     <use xlink:href="#DejaVuSans-62" transform="translate(1597.189453 0)"/>
     <use xlink:href="#DejaVuSans-69" transform="translate(1660.666016 0)"/>
     <use xlink:href="#DejaVuSans-6c" transform="translate(1688.449219 0)"/>
     <use xlink:href="#DejaVuSans-69" transform="translate(1716.232422 0)"/>
     <use xlink:href="#DejaVuSans-74" transform="translate(1744.015625 0)"/>
     <use xlink:href="#DejaVuSans-69" transform="translate(1783.224609 0)"/>
     <use xlink:href="#DejaVuSans-65" transform="translate(1811.007812 0)"/>
     <use xlink:href="#DejaVuSans-73" transform="translate(1872.53125 0)"/>
     <use xlink:href="#DejaVuSans-20" transform="translate(1924.630859 0)"/>
     <use xlink:href="#DejaVuSans-41" transform="translate(1956.417969 0)"/>
     <use xlink:href="#DejaVuSans-63" transform="translate(2023.076172 0)"/>
     <use xlink:href="#DejaVuSans-72" transform="translate(2078.056641 0)"/>
     <use xlink:href="#DejaVuSans-6f" transform="translate(2116.919922 0)"/>
     <use xlink:href="#DejaVuSans-73" transform="translate(2178.101562 0)"/>
     <use xlink:href="#DejaVuSans-73" transform="translate(2230.201172 0)"/>
     <use xlink:href="#DejaVuSans-20" transform="translate(2282.300781 0)"/>
     <use xlink:href="#DejaVuSans-53" transform="translate(2314.087891 0)"/>
     <use xlink:href="#DejaVuSans-74" transform="translate(2377.564453 0)"/>
     <use xlink:href="#DejaVuSans-72" transform="translate(2416.773438 0)"/>
     <use xlink:href="#DejaVuSans-69" transform="translate(2457.886719 0)"/>
     <use xlink:href="#DejaVuSans-63" transform="translate(2485.669922 0)"/>
     <use xlink:href="#DejaVuSans-74" transform="translate(2540.650391 0)"/>
     <use xlink:href="#DejaVuSans-6e" transform="translate(2579.859375 0)"/>
     <use xlink:href="#DejaVuSans-65" transform="translate(2643.238281 0)"/>
     <use xlink:href="#DejaVuSans-73" transform="translate(2704.761719 0)"/>
     <use xlink:href="#DejaVuSans-73" transform="translate(2756.861328 0)"/>
     <use xlink:href="#DejaVuSans-20" transform="translate(2808.960938 0)"/>
     <use xlink:href="#DejaVuSans-4c" transform="translate(2840.748047 0)"/>
     <use xlink:href="#DejaVuSans-65" transform="translate(2894.710938 0)"/>
     <use xlink:href="#DejaVuSans-76" transform="translate(2956.234375 0)"/>
     <use xlink:href="#DejaVuSans-65" transform="translate(3015.414062 0)"/>
     <use xlink:href="#DejaVuSans-6c" transform="translate(3076.9375 0)"/>
     <use xlink:href="#DejaVuSans-73" transform="translate(3104.720703 0)"/>
    </g>
   </g>
   <g id="legend_1">
    <g id="patch_7">
     <path d="M 927.115237 137.688125 
L 990.568049 137.688125 
Q 992.368049 137.688125 992.368049 135.888125 
L 992.368049 30.137812 
Q 992.368049 28.337812 990.568049 28.337812 
L 927.115237 28.337812 
Q 925.315237 28.337812 925.315237 30.137812 
L 925.315237 135.888125 
Q 925.315237 137.688125 927.115237 137.688125 
z
" style="fill: #ffffff; opacity: 0.8; stroke: #cccccc; stroke-linejoin: miter"/>
    </g>
    <g id="text_14">
     <!-- Group -->
     <g transform="translate(943.622112 39.53625) scale(0.1 -0.1)">
      <defs>
       <path id="DejaVuSans-47" d="M 3809 666 
L 3809 1919 
L 2778 1919 
L 2778 2438 
L 4434 2438 
L 4434 434 
Q 4069 175 3628 42 
Q 3188 -91 2688 -91 
Q 1594 -91 976 548 
Q 359 1188 359 2328 
Q 359 3472 976 4111 
Q 1594 4750 2688 4750 
Q 3144 4750 3555 4637 
Q 3966 4525 4313 4306 
L 4313 3634 
Q 3963 3931 3569 4081 
Q 3175 4231 2741 4231 
Q 1884 4231 1454 3753 
Q 1025 3275 1025 2328 
Q 1025 1384 1454 906 
Q 1884 428 2741 428 
Q 3075 428 3337 486 
Q 3600 544 3809 666 
z
" transform="scale(0.015625)"/>
      </defs>
      <use xlink:href="#DejaVuSans-47"/>
      <use xlink:href="#DejaVuSans-72" transform="translate(77.490234 0)"/>
      <use xlink:href="#DejaVuSans-6f" transform="translate(116.353516 0)"/>
      <use xlink:href="#DejaVuSans-75" transform="translate(177.535156 0)"/>
      <use xlink:href="#DejaVuSans-70" transform="translate(240.914062 0)"/>
     </g>
    </g>
    <g id="PathCollection_16">
     <g>
      <use xlink:href="#m49fb35d01e" x="937.915237" y="50.592031" style="fill: #f4a5a5; fill-opacity: 0.8; stroke: #ffffff; stroke-opacity: 0.8; stroke-width: 0.5"/>
     </g>
    </g>
    <g id="text_15">
     <!-- GYF -->
     <g transform="translate(954.115237 52.954531) scale(0.09 -0.09)">
      <defs>
       <path id="DejaVuSans-59" d="M -13 4666 
L 666 4666 
L 1959 2747 
L 3244 4666 
L 3922 4666 
L 2272 2222 
L 2272 0 
L 1638 0 
L 1638 2222 
L -13 4666 
z
" transform="scale(0.015625)"/>
      </defs>
      <use xlink:href="#DejaVuSans-47"/>
      <use xlink:href="#DejaVuSans-59" transform="translate(72.490234 0)"/>
      <use xlink:href="#DejaVuSans-46" transform="translate(133.574219 0)"/>
     </g>
    </g>
    <g id="PathCollection_17">
     <g>
      <use xlink:href="#m4e5b1ca932" x="937.915237" y="63.802344" style="fill: #a5c8e4; fill-opacity: 0.8; stroke: #ffffff; stroke-opacity: 0.8; stroke-width: 0.5"/>
     </g>
    </g>
    <g id="text_16">
     <!-- HFL -->
     <g transform="translate(954.115237 66.164844) scale(0.09 -0.09)">
      <defs>
       <path id="DejaVuSans-48" d="M 628 4666 
L 1259 4666 
L 1259 2753 
L 3553 2753 
L 3553 4666 
L 4184 4666 
L 4184 0 
L 3553 0 
L 3553 2222 
L 1259 2222 
L 1259 0 
L 628 0 
L 628 4666 
z
" transform="scale(0.015625)"/>
      </defs>
      <use xlink:href="#DejaVuSans-48"/>
      <use xlink:href="#DejaVuSans-46" transform="translate(75.195312 0)"/>
      <use xlink:href="#DejaVuSans-4c" transform="translate(132.714844 0)"/>
     </g>
    </g>
    <g id="PathCollection_18">
     <g>
      <use xlink:href="#m691dbabb54" x="937.915237" y="77.012656" style="fill: #a5d6a5; fill-opacity: 0.8; stroke: #ffffff; stroke-opacity: 0.8; stroke-width: 0.5"/>
     </g>
    </g>
    <g id="text_17">
     <!-- SYF -->
     <g transform="translate(954.115237 79.375156) scale(0.09 -0.09)">
      <use xlink:href="#DejaVuSans-53"/>
      <use xlink:href="#DejaVuSans-59" transform="translate(63.476562 0)"/>
      <use xlink:href="#DejaVuSans-46" transform="translate(124.560547 0)"/>
     </g>
    </g>
    <g id="PathCollection_19">
     <g>
      <use xlink:href="#m5102bdf169" x="937.915237" y="90.222969" style="fill: #d4b8e0; fill-opacity: 0.8; stroke: #ffffff; stroke-opacity: 0.8; stroke-width: 0.5"/>
     </g>
    </g>
    <g id="text_18">
     <!-- B10BR -->
     <g transform="translate(954.115237 92.585469) scale(0.09 -0.09)">
      <defs>
       <path id="DejaVuSans-52" d="M 2841 2188 
Q 3044 2119 3236 1894 
Q 3428 1669 3622 1275 
L 4263 0 
L 3584 0 
L 2988 1197 
Q 2756 1666 2539 1819 
Q 2322 1972 1947 1972 
L 1259 1972 
L 1259 0 
L 628 0 
L 628 4666 
L 2053 4666 
Q 2853 4666 3247 4331 
Q 3641 3997 3641 3322 
Q 3641 2881 3436 2590 
Q 3231 2300 2841 2188 
z
M 1259 4147 
L 1259 2491 
L 2053 2491 
Q 2509 2491 2742 2702 
Q 2975 2913 2975 3322 
Q 2975 3731 2742 3939 
Q 2509 4147 2053 4147 
L 1259 4147 
z
" transform="scale(0.015625)"/>
      </defs>
      <use xlink:href="#DejaVuSans-42"/>
      <use xlink:href="#DejaVuSans-31" transform="translate(68.603516 0)"/>
      <use xlink:href="#DejaVuSans-30" transform="translate(132.226562 0)"/>
      <use xlink:href="#DejaVuSans-42" transform="translate(195.849609 0)"/>
      <use xlink:href="#DejaVuSans-52" transform="translate(264.453125 0)"/>
     </g>
    </g>
    <g id="PathCollection_20">
     <g>
      <use xlink:href="#m99ddc166c8" x="937.915237" y="103.433281" style="fill: #d4b8a0; fill-opacity: 0.8; stroke: #ffffff; stroke-opacity: 0.8; stroke-width: 0.5"/>
     </g>
    </g>
    <g id="text_19">
     <!-- C57BL6 -->
     <g transform="translate(954.115237 105.795781) scale(0.09 -0.09)">
      <use xlink:href="#DejaVuSans-43"/>
      <use xlink:href="#DejaVuSans-35" transform="translate(69.824219 0)"/>
      <use xlink:href="#DejaVuSans-37" transform="translate(133.447266 0)"/>
      <use xlink:href="#DejaVuSans-42" transform="translate(197.070312 0)"/>
      <use xlink:href="#DejaVuSans-4c" transform="translate(265.673828 0)"/>
      <use xlink:href="#DejaVuSans-36" transform="translate(321.386719 0)"/>
     </g>
    </g>
    <g id="PathCollection_21">
     <g>
      <use xlink:href="#m4e8ad58ff8" x="937.915237" y="116.643594" style="fill: #c9c9c9; fill-opacity: 0.8; stroke: #ffffff; stroke-opacity: 0.8; stroke-width: 0.5"/>
     </g>
    </g>
    <g id="text_20">
     <!-- All -->
     <g transform="translate(954.115237 119.006094) scale(0.09 -0.09)">
      <use xlink:href="#DejaVuSans-41"/>
      <use xlink:href="#DejaVuSans-6c" transform="translate(68.408203 0)"/>
      <use xlink:href="#DejaVuSans-6c" transform="translate(96.191406 0)"/>
     </g>
    </g>
    <g id="PathCollection_22">
     <g>
      <use xlink:href="#me2888f237d" x="937.915237" y="129.853906" style="fill: #d9d9d9; fill-opacity: 0.8; stroke: #ffffff; stroke-opacity: 0.8; stroke-width: 0.5"/>
     </g>
    </g>
    <g id="text_21">
     <!-- Cross -->
     <g transform="translate(954.115237 132.216406) scale(0.09 -0.09)">
      <use xlink:href="#DejaVuSans-43"/>
      <use xlink:href="#DejaVuSans-72" transform="translate(69.824219 0)"/>
      <use xlink:href="#DejaVuSans-6f" transform="translate(108.6875 0)"/>
      <use xlink:href="#DejaVuSans-73" transform="translate(169.869141 0)"/>
      <use xlink:href="#DejaVuSans-73" transform="translate(221.96875 0)"/>
     </g>
    </g>
   </g>
   <g id="LineCollection_1">
    <path d="M 91.972462 97.858228 
L 113.449524 97.858228 
" clip-path="url(#p829be2246f)" style="fill: none; stroke: #b81c1c; stroke-width: 3"/>
   </g>
   <g id="LineCollection_2">
    <path d="M 132.241953 76.884465 
L 153.719015 76.884465 
" clip-path="url(#p829be2246f)" style="fill: none; stroke: #1c5a8c; stroke-width: 3"/>
   </g>
   <g id="LineCollection_3">
    <path d="M 172.511444 68.609224 
L 193.988506 68.609224 
" clip-path="url(#p829be2246f)" style="fill: none; stroke: #2e7d2e; stroke-width: 3"/>
   </g>
   <g id="LineCollection_4">
    <path d="M 226.204099 136.957985 
L 247.681161 136.957985 
" clip-path="url(#p829be2246f)" style="fill: none; stroke: #b81c1c; stroke-width: 3"/>
   </g>
   <g id="LineCollection_5">
    <path d="M 266.47359 149.235168 
L 287.950652 149.235168 
" clip-path="url(#p829be2246f)" style="fill: none; stroke: #1c5a8c; stroke-width: 3"/>
   </g>
   <g id="LineCollection_6">
    <path d="M 306.743081 131.695512 
L 328.220143 131.695512 
" clip-path="url(#p829be2246f)" style="fill: none; stroke: #2e7d2e; stroke-width: 3"/>
   </g>
   <g id="LineCollection_7">
    <path d="M 360.435736 392.456931 
L 381.912798 392.456931 
" clip-path="url(#p829be2246f)" style="fill: none; stroke: #b81c1c; stroke-width: 3"/>
   </g>
   <g id="LineCollection_8">
    <path d="M 400.705227 392.456931 
L 422.182289 392.456931 
" clip-path="url(#p829be2246f)" style="fill: none; stroke: #1c5a8c; stroke-width: 3"/>
   </g>
   <g id="LineCollection_9">
    <path d="M 440.974718 148.150896 
L 462.45178 148.150896 
" clip-path="url(#p829be2246f)" style="fill: none; stroke: #2e7d2e; stroke-width: 3"/>
   </g>
   <g id="LineCollection_10">
    <path d="M 494.667373 177.367573 
L 516.144435 177.367573 
" clip-path="url(#p829be2246f)" style="fill: none; stroke: #6a3d7d; stroke-width: 3"/>
   </g>
   <g id="LineCollection_11">
    <path d="M 575.206356 136.702783 
L 596.683418 136.702783 
" clip-path="url(#p829be2246f)" style="fill: none; stroke: #704214; stroke-width: 3"/>
   </g>
   <g id="LineCollection_12">
    <path d="M 669.168502 158.237197 
L 690.645564 158.237197 
" clip-path="url(#p829be2246f)" style="fill: none; stroke: #555555; stroke-width: 3"/>
   </g>
   <g id="LineCollection_13">
    <path d="M 763.130648 214.881393 
L 784.60771 214.881393 
" clip-path="url(#p829be2246f)" style="fill: none; stroke: #d45a2a; stroke-width: 3"/>
   </g>
   <g id="LineCollection_14">
    <path d="M 803.400139 227.481351 
L 824.877201 227.481351 
" clip-path="url(#p829be2246f)" style="fill: none; stroke: #5a6aa8; stroke-width: 3"/>
   </g>
   <g id="LineCollection_15">
    <path d="M 843.66963 235.707381 
L 865.146692 235.707381 
" clip-path="url(#p829be2246f)" style="fill: none; stroke: #666666; stroke-width: 3"/>
   </g>
  </g>
 </g>
 <defs>
  <clipPath id="p829be2246f">
   <rect x="53.31375" y="23.837812" width="850.491654" height="386.17241"/>
  </clipPath>
 </defs>
</svg>
